<svg width="48" height="48" viewBox="0 0 48 48" fill="none" xmlns="http://www.w3.org/2000/svg">
<circle cx="24" cy="24" r="24" fill="#D9D9D9"/>
<path d="M33.47 17.03C32.42 15.8867 31.2417 15.0583 29.935 14.545C28.6517 14.0083 27.2633 13.74 25.77 13.74C24.4867 13.74 23.2967 13.9733 22.2 14.44C21.1267 14.8833 20.1817 15.5367 19.365 16.4C18.5717 17.2633 17.9417 18.325 17.475 19.585C17.0317 20.845 16.81 22.2917 16.81 23.925C16.81 27.2617 17.545 29.8283 19.015 31.625C20.5083 33.4217 22.7717 34.32 25.805 34.32C26.855 34.32 27.6717 34.215 28.255 34.005C28.8383 33.7717 29.3283 33.4567 29.725 33.06V26.935H23.845V23.26H34.135V35.405C32.665 36.2917 31.2067 36.9217 29.76 37.295C28.3133 37.6917 26.82 37.89 25.28 37.89C23.1567 37.89 21.29 37.5517 19.68 36.875C18.07 36.2217 16.7167 35.2883 15.62 34.075C14.5467 32.8617 13.73 31.4033 13.17 29.7C12.61 27.9733 12.33 26.06 12.33 23.96C12.33 21.86 12.6567 19.9583 13.31 18.255C13.9867 16.5517 14.9083 15.105 16.075 13.915C17.2417 12.725 18.63 11.815 20.24 11.185C21.85 10.5317 23.6 10.205 25.49 10.205C27.1 10.205 28.6167 10.4033 30.04 10.8C31.4633 11.1967 32.77 11.8383 33.96 12.725V16.785C33.96 16.925 33.9017 17.03 33.785 17.1C33.6683 17.17 33.5633 17.1467 33.47 17.03Z" fill="#DC9B00"/>
</svg>
