<svg width="40" height="40" viewBox="0 0 40 40" fill="none" xmlns="http://www.w3.org/2000/svg">
<circle cx="20" cy="20" r="20" fill="#2A2927"/>
<path d="M19 13C19.1667 11.1667 20.4 7.5 24 7.5C23.8333 9.5 22.6 13.4 19 13Z" fill="#FFFBFB"/>
<path d="M11.9999 14.5C14 12.4999 18 13.5 18.9999 14.5C19.5445 14.9 20.2269 14.6667 20.5 14.5C23.7 11.6999 28.5 13.9999 28.5 15.5002C26.5 16.5 26 18.6667 26 20C26 22.4 27.8333 24.3335 29 25.0002C28.6 27.0002 27 30 25 31.0002C23.7354 31.6326 22 31.2502 21.5 31.0002C19.9 30.2002 18.5 30.7503 18 31.0002C17 31.5 16.1667 31.6669 15.5 31.5002C14.3 31.1002 12.9999 29.6669 12.4999 29.0002C7.29987 21.8002 9.99987 16.3334 11.9999 14.5Z" fill="#FFFBFB"/>
</svg>
