<svg width="311" height="323" viewBox="0 0 311 323" fill="none" xmlns="http://www.w3.org/2000/svg">
<rect width="311" height="323" fill="white"/>
<path d="M256.212 231.33H255.352V222.2H256.212V231.33ZM253.492 222.3H254.352V231.1H253.492V226.16H252.502C252.482 227.167 252.302 227.93 251.962 228.45C251.622 228.97 251.159 229.23 250.572 229.23C249.985 229.23 249.522 228.957 249.182 228.41C248.842 227.857 248.672 227.053 248.672 226C248.672 224.947 248.842 224.147 249.182 223.6C249.522 223.047 249.985 222.77 250.572 222.77C251.112 222.77 251.549 222.993 251.882 223.44C252.215 223.887 252.415 224.543 252.482 225.41H253.492V222.3ZM251.662 226C251.662 225.633 251.642 225.297 251.602 224.99C251.562 224.683 251.499 224.42 251.412 224.2C251.325 223.98 251.212 223.81 251.072 223.69C250.932 223.57 250.762 223.51 250.562 223.51C250.369 223.51 250.205 223.57 250.072 223.69C249.939 223.81 249.832 223.98 249.752 224.2C249.672 224.42 249.612 224.683 249.572 224.99C249.539 225.297 249.522 225.633 249.522 226C249.522 226.367 249.539 226.703 249.572 227.01C249.612 227.317 249.672 227.58 249.752 227.8C249.832 228.02 249.939 228.19 250.072 228.31C250.205 228.43 250.369 228.49 250.562 228.49C250.762 228.49 250.932 228.43 251.072 228.31C251.212 228.19 251.325 228.02 251.412 227.8C251.499 227.58 251.562 227.317 251.602 227.01C251.642 226.703 251.662 226.367 251.662 226ZM265.878 229.28V230.01H257.378V229.28H265.878ZM262.018 223.97C262.398 224.677 262.868 225.28 263.428 225.78C263.995 226.28 264.651 226.653 265.398 226.9L264.838 227.55C264.198 227.323 263.605 226.973 263.058 226.5C262.511 226.027 262.055 225.48 261.688 224.86C261.368 225.487 260.931 226.027 260.378 226.48C259.825 226.927 259.215 227.273 258.548 227.52L257.978 226.86C258.485 226.68 258.941 226.467 259.348 226.22C259.761 225.967 260.111 225.67 260.398 225.33C260.685 224.983 260.901 224.59 261.048 224.15C261.201 223.703 261.271 223.197 261.258 222.63H262.148C262.168 223.117 262.125 223.563 262.018 223.97ZM274.094 231.23H268.154V228.88H273.044V228.03H268.154V227.29H273.894V229.61H269.004V230.49H274.094V231.23ZM270.494 223.32C270.094 223.333 269.704 223.343 269.324 223.35C268.951 223.35 268.564 223.35 268.164 223.35H267.084V222.63H268.734C269.201 222.63 269.657 222.63 270.104 222.63C270.557 222.63 271.021 222.623 271.494 222.61C271.454 223.137 271.317 223.637 271.084 224.11C270.851 224.583 270.537 225.02 270.144 225.42C269.751 225.813 269.287 226.163 268.754 226.47C268.227 226.777 267.647 227.027 267.014 227.22L266.534 226.59C267.174 226.41 267.754 226.18 268.274 225.9C268.794 225.62 269.234 225.29 269.594 224.91C269.314 224.943 269.024 224.967 268.724 224.98C268.431 224.987 268.127 224.993 267.814 225H266.954V224.33H268.154C268.507 224.33 268.844 224.323 269.164 224.31C269.484 224.29 269.804 224.26 270.124 224.22C270.204 224.08 270.274 223.937 270.334 223.79C270.401 223.637 270.454 223.48 270.494 223.32ZM271.394 225.28V224.52H273.034V222.2H273.894V226.77H273.034V225.28H271.394ZM282.96 231.33H282.1V222.2H282.96V231.33ZM280.29 222.3H281.14V231.1H280.29V226.16H279.17V225.41H280.29V222.3ZM275.68 229.15V225.55H277.78V223.68H275.66V222.94H278.64V226.28H276.54V228.41H276.81C277.417 228.41 277.97 228.373 278.47 228.3C278.97 228.227 279.38 228.157 279.7 228.09V228.8C279.527 228.847 279.32 228.89 279.08 228.93C278.847 228.97 278.597 229.007 278.33 229.04C278.063 229.073 277.79 229.1 277.51 229.12C277.23 229.14 276.957 229.15 276.69 229.15H275.68ZM290.866 222.2H291.726V231.33H290.866V222.2ZM289.136 225.99C289.136 226.523 289.076 226.997 288.956 227.41C288.836 227.817 288.669 228.157 288.456 228.43C288.249 228.703 288.003 228.91 287.716 229.05C287.429 229.19 287.123 229.26 286.796 229.26C286.469 229.26 286.163 229.19 285.876 229.05C285.596 228.91 285.349 228.703 285.136 228.43C284.923 228.157 284.753 227.817 284.626 227.41C284.506 226.997 284.446 226.523 284.446 225.99C284.446 225.457 284.506 224.987 284.626 224.58C284.753 224.173 284.923 223.833 285.136 223.56C285.349 223.287 285.596 223.08 285.876 222.94C286.163 222.8 286.469 222.73 286.796 222.73C287.123 222.73 287.429 222.8 287.716 222.94C288.003 223.08 288.249 223.287 288.456 223.56C288.669 223.833 288.836 224.173 288.956 224.58C289.076 224.987 289.136 225.457 289.136 225.99ZM288.266 225.99C288.266 225.617 288.233 225.277 288.166 224.97C288.099 224.663 288.003 224.4 287.876 224.18C287.756 223.96 287.603 223.79 287.416 223.67C287.236 223.55 287.029 223.49 286.796 223.49C286.563 223.49 286.353 223.55 286.166 223.67C285.986 223.79 285.833 223.96 285.706 224.18C285.586 224.4 285.493 224.663 285.426 224.97C285.359 225.277 285.326 225.617 285.326 225.99C285.326 226.363 285.359 226.703 285.426 227.01C285.493 227.317 285.586 227.58 285.706 227.8C285.833 228.02 285.986 228.193 286.166 228.32C286.353 228.44 286.563 228.5 286.796 228.5C287.029 228.5 287.236 228.44 287.416 228.32C287.603 228.193 287.756 228.02 287.876 227.8C288.003 227.58 288.099 227.317 288.166 227.01C288.233 226.703 288.266 226.363 288.266 225.99ZM298.172 226.14V225.39H299.782V222.2H300.642V231.33H299.782V226.14H298.172ZM295.572 229.04H293.552V222.94H297.522V223.67H294.412V225.6H297.302V226.33H294.412V228.31H295.702C296.269 228.31 296.815 228.28 297.342 228.22C297.875 228.153 298.389 228.063 298.882 227.95V228.66C298.389 228.787 297.859 228.883 297.292 228.95C296.725 229.01 296.152 229.04 295.572 229.04Z" fill="black"/>
<path d="M256.04 245.77H255.21V241.2H256.04V245.77ZM253.37 241.3H254.19V245.77H253.37V243.72H252.35C252.33 244.033 252.267 244.31 252.16 244.55C252.053 244.783 251.913 244.98 251.74 245.14C251.573 245.3 251.373 245.42 251.14 245.5C250.913 245.58 250.67 245.62 250.41 245.62C250.137 245.62 249.88 245.577 249.64 245.49C249.4 245.397 249.193 245.263 249.02 245.09C248.847 244.91 248.71 244.69 248.61 244.43C248.51 244.163 248.46 243.86 248.46 243.52C248.46 243.173 248.51 242.87 248.61 242.61C248.71 242.343 248.847 242.123 249.02 241.95C249.193 241.77 249.4 241.637 249.64 241.55C249.88 241.457 250.137 241.41 250.41 241.41C250.883 241.41 251.293 241.543 251.64 241.81C251.987 242.07 252.21 242.457 252.31 242.97H253.37V241.3ZM256.24 250.23H250.15V247.9H255.19V247.01H250.11V246.29H256.04V248.6H251V249.5H256.24V250.23ZM251.53 243.53C251.53 243.09 251.427 242.75 251.22 242.51C251.013 242.27 250.743 242.15 250.41 242.15C250.077 242.15 249.807 242.27 249.6 242.51C249.393 242.75 249.29 243.09 249.29 243.53C249.29 243.963 249.393 244.297 249.6 244.53C249.807 244.763 250.077 244.88 250.41 244.88C250.743 244.88 251.013 244.763 251.22 244.53C251.427 244.297 251.53 243.963 251.53 243.53ZM263.866 241.2H264.726V250.33H263.866V241.2ZM258.546 247.43H259.936C260.283 247.43 260.616 247.42 260.936 247.4C261.263 247.373 261.566 247.343 261.846 247.31C262.133 247.27 262.396 247.23 262.636 247.19C262.876 247.143 263.086 247.1 263.266 247.06V247.77C263.066 247.823 262.833 247.873 262.566 247.92C262.299 247.967 262.013 248.007 261.706 248.04C261.399 248.073 261.083 248.103 260.756 248.13C260.436 248.15 260.123 248.16 259.816 248.16H257.666V244.54H260.776V242.67H257.646V241.93H261.656V245.27H258.546V247.43ZM273.792 250.33H272.932V241.2H273.792V250.33ZM271.102 241.3H271.952V250.1H271.102V245.26H269.942V247.82H266.512V241.91H267.352V244.15H269.112V241.91H269.942V244.51H271.102V241.3ZM269.112 244.86H267.352V247.1H269.112V244.86ZM281.698 241.2H282.558V250.33H281.698V241.2ZM279.968 244.99C279.968 245.523 279.908 245.997 279.788 246.41C279.668 246.817 279.501 247.157 279.288 247.43C279.081 247.703 278.835 247.91 278.548 248.05C278.261 248.19 277.955 248.26 277.628 248.26C277.301 248.26 276.995 248.19 276.708 248.05C276.428 247.91 276.181 247.703 275.968 247.43C275.755 247.157 275.585 246.817 275.458 246.41C275.338 245.997 275.278 245.523 275.278 244.99C275.278 244.457 275.338 243.987 275.458 243.58C275.585 243.173 275.755 242.833 275.968 242.56C276.181 242.287 276.428 242.08 276.708 241.94C276.995 241.8 277.301 241.73 277.628 241.73C277.955 241.73 278.261 241.8 278.548 241.94C278.835 242.08 279.081 242.287 279.288 242.56C279.501 242.833 279.668 243.173 279.788 243.58C279.908 243.987 279.968 244.457 279.968 244.99ZM279.098 244.99C279.098 244.617 279.065 244.277 278.998 243.97C278.931 243.663 278.835 243.4 278.708 243.18C278.588 242.96 278.435 242.79 278.248 242.67C278.068 242.55 277.861 242.49 277.628 242.49C277.395 242.49 277.185 242.55 276.998 242.67C276.818 242.79 276.665 242.96 276.538 243.18C276.418 243.4 276.325 243.663 276.258 243.97C276.191 244.277 276.158 244.617 276.158 244.99C276.158 245.363 276.191 245.703 276.258 246.01C276.325 246.317 276.418 246.58 276.538 246.8C276.665 247.02 276.818 247.193 276.998 247.32C277.185 247.44 277.395 247.5 277.628 247.5C277.861 247.5 278.068 247.44 278.248 247.32C278.435 247.193 278.588 247.02 278.708 246.8C278.835 246.58 278.931 246.317 278.998 246.01C279.065 245.703 279.098 245.363 279.098 244.99ZM289.004 245.14V244.39H290.614V241.2H291.474V250.33H290.614V245.14H289.004ZM286.404 248.04H284.384V241.94H288.354V242.67H285.244V244.6H288.134V245.33H285.244V247.31H286.534C287.101 247.31 287.647 247.28 288.174 247.22C288.707 247.153 289.221 247.063 289.714 246.95V247.66C289.221 247.787 288.691 247.883 288.124 247.95C287.557 248.01 286.984 248.04 286.404 248.04Z" fill="black"/>
<path d="M248.36 262.45V261.74H253.86V262.45H248.36ZM249.53 261.19V260.46H252.58V261.19H249.53ZM253.37 264.46C253.37 264.867 253.22 265.217 252.92 265.51C252.627 265.797 252.187 265.973 251.6 266.04V266.99C252.067 266.97 252.523 266.947 252.97 266.92C253.423 266.887 253.833 266.843 254.2 266.79V267.5C253.88 267.547 253.527 267.587 253.14 267.62C252.76 267.653 252.367 267.683 251.96 267.71C251.56 267.73 251.16 267.747 250.76 267.76C250.36 267.773 249.983 267.78 249.63 267.78H248.11V267.04H249.62C249.793 267.04 249.97 267.04 250.15 267.04C250.337 267.033 250.53 267.027 250.73 267.02V266.04C250.123 265.98 249.67 265.807 249.37 265.52C249.07 265.227 248.92 264.873 248.92 264.46C248.92 264.233 248.967 264.023 249.06 263.83C249.153 263.637 249.293 263.47 249.48 263.33C249.667 263.183 249.897 263.07 250.17 262.99C250.45 262.91 250.777 262.87 251.15 262.87C251.517 262.87 251.837 262.91 252.11 262.99C252.39 263.07 252.623 263.183 252.81 263.33C252.997 263.47 253.137 263.637 253.23 263.83C253.323 264.023 253.37 264.233 253.37 264.46ZM252.5 264.46C252.5 264.34 252.473 264.223 252.42 264.11C252.373 263.997 252.293 263.897 252.18 263.81C252.073 263.723 251.933 263.653 251.76 263.6C251.593 263.547 251.39 263.52 251.15 263.52C250.91 263.52 250.703 263.547 250.53 263.6C250.357 263.653 250.213 263.723 250.1 263.81C249.993 263.897 249.913 263.997 249.86 264.11C249.813 264.223 249.79 264.34 249.79 264.46C249.79 264.58 249.813 264.697 249.86 264.81C249.913 264.923 249.993 265.023 250.1 265.11C250.213 265.197 250.357 265.267 250.53 265.32C250.703 265.373 250.91 265.4 251.15 265.4C251.39 265.4 251.593 265.373 251.76 265.32C251.933 265.267 252.073 265.197 252.18 265.11C252.293 265.023 252.373 264.923 252.42 264.81C252.473 264.697 252.5 264.58 252.5 264.46ZM256.9 264.83H255.45V269.33H254.62V260.2H255.45V264.09H256.9V264.83ZM261.106 262.86C261.359 263.18 261.666 263.477 262.026 263.75C262.393 264.023 262.743 264.25 263.076 264.43L262.516 265.06C262.176 264.86 261.843 264.623 261.516 264.35C261.189 264.077 260.889 263.777 260.616 263.45C260.396 263.69 260.159 263.917 259.906 264.13C259.653 264.337 259.399 264.523 259.146 264.69C258.893 264.857 258.639 265.007 258.386 265.14C258.139 265.267 257.906 265.37 257.686 265.45L257.126 264.82C257.573 264.66 258.003 264.453 258.416 264.2C258.829 263.947 259.203 263.667 259.536 263.36C259.869 263.053 260.156 262.727 260.396 262.38C260.636 262.033 260.803 261.68 260.896 261.32C260.523 261.333 260.153 261.343 259.786 261.35C259.426 261.35 259.063 261.35 258.696 261.35H257.676V260.61H259.336C259.763 260.61 260.193 260.61 260.626 260.61C261.066 260.61 261.519 260.603 261.986 260.59C261.953 261.01 261.856 261.41 261.696 261.79C261.543 262.163 261.346 262.52 261.106 262.86ZM265.736 263.18H264.296V265.76H263.436V260.2H264.296V262.42H265.736V263.18ZM264.396 267.61C264.396 267.87 264.333 268.11 264.206 268.33C264.086 268.55 263.899 268.74 263.646 268.9C263.399 269.06 263.089 269.183 262.716 269.27C262.349 269.363 261.923 269.41 261.436 269.41C260.943 269.41 260.513 269.363 260.146 269.27C259.779 269.183 259.469 269.06 259.216 268.9C258.969 268.74 258.783 268.55 258.656 268.33C258.536 268.11 258.476 267.87 258.476 267.61C258.476 267.09 258.723 266.667 259.216 266.34C259.709 266.013 260.449 265.85 261.436 265.85C262.423 265.85 263.163 266.013 263.656 266.34C264.149 266.667 264.396 267.09 264.396 267.61ZM263.496 267.63C263.496 267.483 263.456 267.347 263.376 267.22C263.296 267.093 263.169 266.983 262.996 266.89C262.829 266.797 262.616 266.723 262.356 266.67C262.103 266.617 261.796 266.59 261.436 266.59C260.729 266.59 260.206 266.69 259.866 266.89C259.533 267.09 259.366 267.337 259.366 267.63C259.366 267.923 259.533 268.17 259.866 268.37C260.206 268.57 260.729 268.67 261.436 268.67C262.149 268.67 262.669 268.57 262.996 268.37C263.329 268.17 263.496 267.923 263.496 267.63ZM269.472 260.38C269.485 260.64 269.475 260.89 269.442 261.13C269.415 261.37 269.375 261.597 269.322 261.81C269.555 262.23 269.872 262.63 270.272 263.01C270.679 263.383 271.179 263.697 271.772 263.95L271.232 264.56C270.732 264.34 270.299 264.07 269.932 263.75C269.572 263.43 269.255 263.07 268.982 262.67C268.729 263.143 268.399 263.557 267.992 263.91C267.592 264.257 267.142 264.56 266.642 264.82L266.042 264.24C266.455 264.02 266.825 263.787 267.152 263.54C267.479 263.287 267.752 263.007 267.972 262.7C268.199 262.387 268.362 262.04 268.462 261.66C268.569 261.28 268.609 260.853 268.582 260.38H269.472ZM272.782 260.2H273.642V264.82H272.782V260.2ZM273.842 269.23H267.902V266.91H272.792V266.08H267.902V265.34H273.642V267.64H268.752V268.49H273.842V269.23Z" fill="black"/>
<path d="M117 247.5H146.5V157.5H238.5V92.5H260V78.5H204.5H173.5M173.5 92.5H24V266.5" stroke="#D9D9D9"/>
<rect x="84" y="35" width="130" height="60" fill="#6180BE"/>
<rect x="23" y="247" width="93" height="49" fill="#D9D9D9"/>
<rect x="23" y="65" width="42" height="150" fill="#6180BE"/>
<rect x="44" y="76" width="40" height="139" fill="#6180BE"/>
<path d="M37.16 276.2H38.02V285.33H37.16V276.2ZM30.84 283.33L30.22 282.78C30.6266 282.487 31.0033 282.15 31.35 281.77C31.6966 281.39 31.99 280.957 32.23 280.47C32.47 279.977 32.6466 279.423 32.76 278.81C32.88 278.197 32.9133 277.513 32.86 276.76H33.77C33.7833 277.2 33.77 277.617 33.73 278.01C33.69 278.403 33.6333 278.78 33.56 279.14C33.8 279.827 34.14 280.457 34.58 281.03C35.02 281.597 35.5433 282.083 36.15 282.49L35.59 283.13C35.09 282.777 34.64 282.36 34.24 281.88C33.8466 281.393 33.51 280.847 33.23 280.24C32.9766 280.893 32.6466 281.477 32.24 281.99C31.84 282.497 31.3733 282.943 30.84 283.33ZM43.206 277.45C42.806 277.463 42.406 277.473 42.006 277.48C41.6126 277.48 41.216 277.48 40.816 277.48H39.976V276.74H41.426C41.8926 276.74 42.3593 276.74 42.826 276.74C43.2926 276.74 43.7626 276.733 44.236 276.72C44.196 277.313 44.076 277.877 43.876 278.41C43.6826 278.937 43.406 279.423 43.046 279.87C42.6926 280.317 42.256 280.717 41.736 281.07C41.2226 281.417 40.6326 281.71 39.966 281.95L39.446 281.3C40.526 280.96 41.3926 280.463 42.046 279.81C42.6993 279.157 43.086 278.37 43.206 277.45ZM47.946 279.9H46.506V282.84H45.646V276.2H46.506V279.14H47.946V279.9ZM46.706 285.15H41.006V282.38H41.876V284.4H46.706V285.15ZM56.002 285.33H55.142V276.2H56.002V285.33ZM53.302 281.66H52.092C51.9453 282.18 51.7253 282.573 51.432 282.84C51.1387 283.1 50.782 283.23 50.362 283.23C49.7753 283.23 49.312 282.957 48.972 282.41C48.632 281.857 48.462 281.053 48.462 280C48.462 278.947 48.632 278.147 48.972 277.6C49.312 277.047 49.7753 276.77 50.362 276.77C51.1887 276.77 51.7553 277.263 52.062 278.25H53.302V276.3H54.162V285.1H53.302V281.66ZM52.242 280.93H53.312V278.98H52.222C52.2487 279.133 52.2653 279.297 52.272 279.47C52.2853 279.637 52.292 279.813 52.292 280C52.292 280.167 52.2853 280.33 52.272 280.49C52.2653 280.643 52.2553 280.79 52.242 280.93ZM51.452 280C51.452 279.633 51.432 279.297 51.392 278.99C51.352 278.683 51.2887 278.42 51.202 278.2C51.1153 277.98 51.002 277.81 50.862 277.69C50.722 277.57 50.552 277.51 50.352 277.51C50.1587 277.51 49.9953 277.57 49.862 277.69C49.7287 277.81 49.622 277.98 49.542 278.2C49.462 278.42 49.402 278.683 49.362 278.99C49.3287 279.297 49.312 279.633 49.312 280C49.312 280.367 49.3287 280.703 49.362 281.01C49.402 281.317 49.462 281.58 49.542 281.8C49.622 282.02 49.7287 282.19 49.862 282.31C49.9953 282.43 50.1587 282.49 50.352 282.49C50.552 282.49 50.722 282.43 50.862 282.31C51.002 282.19 51.1153 282.02 51.202 281.8C51.2887 281.58 51.352 281.317 51.392 281.01C51.432 280.703 51.452 280.367 51.452 280ZM61.798 277.16C61.938 277.34 62.128 277.51 62.368 277.67C62.6147 277.823 62.8847 277.963 63.178 278.09C63.478 278.217 63.7913 278.323 64.118 278.41C64.4447 278.497 64.7613 278.56 65.068 278.6L64.628 279.28C63.968 279.167 63.3513 278.973 62.778 278.7C62.2113 278.42 61.738 278.1 61.358 277.74C61.1647 277.94 60.9413 278.127 60.688 278.3C60.4413 278.473 60.178 278.63 59.898 278.77C59.618 278.91 59.3313 279.03 59.038 279.13C58.7447 279.23 58.4547 279.303 58.168 279.35L57.738 278.69C58.2113 278.61 58.6547 278.493 59.068 278.34C59.4813 278.18 59.8413 277.993 60.148 277.78C60.4547 277.56 60.6947 277.317 60.868 277.05C61.0413 276.783 61.1247 276.5 61.118 276.2H62.038C62.0513 276.367 62.0347 276.53 61.988 276.69C61.948 276.85 61.8847 277.007 61.798 277.16ZM60.958 281.59V280.61H57.068V279.9H65.768V280.61H61.848V281.59H64.368V283.79H59.318V284.62H64.608V285.33H58.468V283.11H63.518V282.3H58.468V281.59H60.958ZM73.314 280.39H67.474V276.41H68.334V277.72H72.454V276.41H73.314V280.39ZM72.474 279.67V278.43H68.314V279.67H72.474ZM66.084 282.23V281.49H74.584V282.23H70.864V285.28H69.984V282.23H66.084Z" fill="black"/>
<path d="M139.421 65.63V64.78L142.741 59.78H143.771V64.93H144.901V65.63H143.771V67.36H142.921V65.63H139.421ZM142.681 61.07L140.141 64.94V64.95H142.961V61.09L142.971 60.53L142.681 61.07ZM150.401 62.29V61.53H151.991V59.2H152.851V66H151.991V62.29H150.401ZM153.051 68.15H147.251V65.48H148.121V67.4H153.051V68.15ZM149.131 62.27C149.258 62.4367 149.404 62.6 149.571 62.76C149.744 62.9133 149.924 63.06 150.111 63.2C150.298 63.34 150.488 63.47 150.681 63.59C150.874 63.71 151.061 63.8133 151.241 63.9L150.691 64.54C150.324 64.34 149.961 64.0967 149.601 63.81C149.248 63.5167 148.928 63.2 148.641 62.86C148.254 63.2667 147.824 63.6267 147.351 63.94C146.878 64.2533 146.381 64.5267 145.861 64.76L145.311 64.12C145.851 63.9 146.334 63.6467 146.761 63.36C147.194 63.0733 147.568 62.7733 147.881 62.46C148.194 62.14 148.448 61.8133 148.641 61.48C148.834 61.14 148.968 60.8067 149.041 60.48C148.668 60.4933 148.298 60.5033 147.931 60.51C147.571 60.51 147.208 60.51 146.841 60.51H145.911V59.77H147.481C147.908 59.77 148.338 59.77 148.771 59.77C149.204 59.77 149.658 59.7633 150.131 59.75C150.071 60.2367 149.954 60.69 149.781 61.11C149.608 61.5233 149.391 61.91 149.131 62.27ZM160.907 59.2H161.767V68.33H160.907V59.2ZM154.587 66.33L153.967 65.78C154.374 65.4867 154.75 65.15 155.097 64.77C155.444 64.39 155.737 63.9567 155.977 63.47C156.217 62.9767 156.394 62.4233 156.507 61.81C156.627 61.1967 156.66 60.5133 156.607 59.76H157.517C157.53 60.2 157.517 60.6167 157.477 61.01C157.437 61.4033 157.38 61.78 157.307 62.14C157.547 62.8267 157.887 63.4567 158.327 64.03C158.767 64.5967 159.29 65.0833 159.897 65.49L159.337 66.13C158.837 65.7767 158.387 65.36 157.987 64.88C157.594 64.3933 157.257 63.8467 156.977 63.24C156.724 63.8933 156.394 64.4767 155.987 64.99C155.587 65.4967 155.12 65.9433 154.587 66.33ZM166.513 59.38C166.526 59.64 166.516 59.89 166.483 60.13C166.456 60.37 166.416 60.5967 166.363 60.81C166.596 61.23 166.913 61.63 167.313 62.01C167.72 62.3833 168.22 62.6967 168.813 62.95L168.273 63.56C167.773 63.34 167.34 63.07 166.973 62.75C166.613 62.43 166.296 62.07 166.023 61.67C165.77 62.1433 165.44 62.5567 165.033 62.91C164.633 63.2567 164.183 63.56 163.683 63.82L163.083 63.24C163.496 63.02 163.866 62.7867 164.193 62.54C164.52 62.2867 164.793 62.0067 165.013 61.7C165.24 61.3867 165.403 61.04 165.503 60.66C165.61 60.28 165.65 59.8533 165.623 59.38H166.513ZM169.823 59.2H170.683V63.82H169.823V59.2ZM170.883 68.23H164.943V65.91H169.833V65.08H164.943V64.34H170.683V66.64H165.793V67.49H170.883V68.23Z" fill="white"/>
<path d="M41.0809 149.45C40.6343 149.443 40.2043 149.373 39.7909 149.24C39.3843 149.107 39.0543 148.92 38.8009 148.68V147.96C38.8009 147.913 38.8109 147.887 38.8309 147.88C38.8576 147.867 38.8876 147.877 38.9209 147.91C39.2809 148.21 39.6343 148.427 39.9809 148.56C40.3343 148.687 40.7076 148.75 41.1009 148.75C41.3209 148.75 41.5243 148.717 41.7109 148.65C41.8976 148.577 42.0609 148.477 42.2009 148.35C42.3409 148.217 42.4509 148.063 42.5309 147.89C42.6109 147.717 42.6509 147.523 42.6509 147.31C42.6509 146.277 42.0309 145.76 40.7909 145.76H40.5209V145.05H40.6409C40.8809 145.043 41.1109 145.02 41.3309 144.98C41.5509 144.933 41.7443 144.86 41.9109 144.76C42.0776 144.653 42.2109 144.51 42.3109 144.33C42.4109 144.15 42.4609 143.917 42.4609 143.63C42.4609 143.183 42.3276 142.857 42.0609 142.65C41.8009 142.443 41.4709 142.34 41.0709 142.34C40.7509 142.34 40.4209 142.403 40.0809 142.53C39.7409 142.657 39.4243 142.85 39.1309 143.11C39.1043 143.13 39.0776 143.137 39.0509 143.13C39.0309 143.123 39.0209 143.1 39.0209 143.06V142.32C39.1209 142.233 39.2409 142.15 39.3809 142.07C39.5209 141.99 39.6776 141.92 39.8509 141.86C40.0243 141.793 40.2109 141.74 40.4109 141.7C40.6176 141.66 40.8309 141.64 41.0509 141.64C41.3843 141.64 41.6909 141.68 41.9709 141.76C42.2576 141.84 42.5009 141.963 42.7009 142.13C42.9076 142.29 43.0676 142.493 43.1809 142.74C43.2943 142.98 43.3509 143.26 43.3509 143.58C43.3509 143.813 43.3176 144.03 43.2509 144.23C43.1843 144.423 43.0909 144.6 42.9709 144.76C42.8509 144.913 42.7076 145.043 42.5409 145.15C42.3743 145.257 42.1909 145.33 41.9909 145.37V145.39C42.4709 145.497 42.8476 145.7 43.1209 146C43.3943 146.293 43.5309 146.72 43.5309 147.28C43.5309 147.56 43.4776 147.833 43.3709 148.1C43.2709 148.36 43.1176 148.59 42.9109 148.79C42.7043 148.99 42.4476 149.15 42.1409 149.27C41.8409 149.39 41.4876 149.45 41.0809 149.45ZM49.401 144.29V143.53H50.991V141.2H51.851V148H50.991V144.29H49.401ZM52.051 150.15H46.251V147.48H47.121V149.4H52.051V150.15ZM48.131 144.27C48.2577 144.437 48.4043 144.6 48.571 144.76C48.7443 144.913 48.9243 145.06 49.111 145.2C49.2977 145.34 49.4877 145.47 49.681 145.59C49.8743 145.71 50.061 145.813 50.241 145.9L49.691 146.54C49.3243 146.34 48.961 146.097 48.601 145.81C48.2477 145.517 47.9277 145.2 47.641 144.86C47.2543 145.267 46.8243 145.627 46.351 145.94C45.8777 146.253 45.381 146.527 44.861 146.76L44.311 146.12C44.851 145.9 45.3343 145.647 45.761 145.36C46.1943 145.073 46.5677 144.773 46.881 144.46C47.1943 144.14 47.4477 143.813 47.641 143.48C47.8343 143.14 47.9677 142.807 48.041 142.48C47.6677 142.493 47.2977 142.503 46.931 142.51C46.571 142.51 46.2077 142.51 45.841 142.51H44.911V141.77H46.481C46.9077 141.77 47.3377 141.77 47.771 141.77C48.2043 141.77 48.6577 141.763 49.131 141.75C49.071 142.237 48.9543 142.69 48.781 143.11C48.6077 143.523 48.391 143.91 48.131 144.27ZM59.907 141.2H60.767V150.33H59.907V141.2ZM53.587 148.33L52.967 147.78C53.3737 147.487 53.7504 147.15 54.097 146.77C54.4437 146.39 54.737 145.957 54.977 145.47C55.217 144.977 55.3937 144.423 55.507 143.81C55.627 143.197 55.6604 142.513 55.607 141.76H56.517C56.5304 142.2 56.517 142.617 56.477 143.01C56.437 143.403 56.3804 143.78 56.307 144.14C56.547 144.827 56.887 145.457 57.327 146.03C57.767 146.597 58.2904 147.083 58.897 147.49L58.337 148.13C57.837 147.777 57.387 147.36 56.987 146.88C56.5937 146.393 56.257 145.847 55.977 145.24C55.7237 145.893 55.3937 146.477 54.987 146.99C54.587 147.497 54.1204 147.943 53.587 148.33ZM65.513 141.38C65.5264 141.64 65.5164 141.89 65.483 142.13C65.4564 142.37 65.4164 142.597 65.363 142.81C65.5964 143.23 65.913 143.63 66.313 144.01C66.7197 144.383 67.2197 144.697 67.813 144.95L67.273 145.56C66.773 145.34 66.3397 145.07 65.973 144.75C65.613 144.43 65.2964 144.07 65.023 143.67C64.7697 144.143 64.4397 144.557 64.033 144.91C63.633 145.257 63.183 145.56 62.683 145.82L62.083 145.24C62.4964 145.02 62.8664 144.787 63.193 144.54C63.5197 144.287 63.793 144.007 64.013 143.7C64.2397 143.387 64.403 143.04 64.503 142.66C64.6097 142.28 64.6497 141.853 64.623 141.38H65.513ZM68.823 141.2H69.683V145.82H68.823V141.2ZM69.883 150.23H63.943V147.91H68.833V147.08H63.943V146.34H69.683V148.64H64.793V149.49H69.883V150.23Z" fill="white"/>
<rect x="24" y="215" width="31" height="31" fill="#D9D9D9"/>
<rect x="117" y="124" width="70" height="17" fill="#D9D9D9"/>
<path d="M148.917 134.5H150.292L152.375 130.75H153.083C153.257 130.75 153.405 130.689 153.526 130.568C153.648 130.447 153.709 130.299 153.708 130.125C153.708 129.951 153.647 129.804 153.526 129.683C153.405 129.561 153.258 129.501 153.083 129.5H151.708L149.625 133.25H148.917C148.743 133.25 148.596 133.311 148.474 133.433C148.353 133.554 148.292 133.702 148.292 133.875C148.291 134.048 148.352 134.196 148.474 134.318C148.596 134.44 148.744 134.501 148.917 134.5ZM148.083 135.75C147.854 135.75 147.658 135.668 147.495 135.505C147.332 135.342 147.25 135.146 147.25 134.917V129.083C147.25 128.854 147.332 128.658 147.495 128.495C147.658 128.332 147.854 128.25 148.083 128.25H153.917C154.146 128.25 154.342 128.332 154.505 128.495C154.669 128.658 154.75 128.854 154.75 129.083V134.917C154.75 135.146 154.668 135.342 154.505 135.505C154.342 135.669 154.146 135.75 153.917 135.75H148.083Z" fill="black"/>
<g clip-path="url(#clip0_597_1813)">
<path d="M34.5984 228.5C35.3155 228.5 35.8984 227.939 35.8984 227.25C35.8984 226.561 35.3155 226 34.5984 226C33.8814 226 33.2984 226.561 33.2984 227.25C33.2984 227.939 33.8814 228.5 34.5984 228.5ZM42.3984 228.5C43.1155 228.5 43.6984 227.939 43.6984 227.25C43.6984 226.561 43.1155 226 42.3984 226C41.6814 226 41.0984 226.561 41.0984 227.25C41.0984 227.939 41.6814 228.5 42.3984 228.5ZM44.9842 232.924L44.058 229.295C43.9909 229.031 43.7431 228.846 43.4527 228.822C43.148 229.012 42.7864 229.125 42.3964 229.125C42.0064 229.125 41.6448 229.012 41.3402 228.822C41.0497 228.846 40.8019 229.031 40.7348 229.295L39.8086 232.924C39.7375 233.219 39.9812 233.5 40.3103 233.5H41.4234V235.531C41.4234 235.791 41.6408 236 41.9109 236H42.8859C43.1561 236 43.3734 235.791 43.3734 235.531V233.5H44.4866C44.8156 233.5 45.0594 233.219 44.9842 232.924ZM38.8234 226H38.1734C37.9947 226 37.8484 226.141 37.8484 226.312V235.688C37.8484 235.859 37.9947 236 38.1734 236H38.8234C39.0022 236 39.1484 235.859 39.1484 235.688V226.312C39.1484 226.141 39.0022 226 38.8234 226ZM35.6567 228.82C35.352 229.012 34.9884 229.125 34.5984 229.125C34.2084 229.125 33.8448 229.012 33.5402 228.82C33.0405 228.861 32.6484 229.26 32.6484 229.75V232.406C32.6484 232.666 32.8658 232.875 33.1359 232.875H33.2984V235.531C33.2984 235.791 33.5158 236 33.7859 236H35.4109C35.6811 236 35.8984 235.791 35.8984 235.531V232.875H36.0609C36.3311 232.875 36.5484 232.666 36.5484 232.406V229.75C36.5484 229.26 36.1564 228.861 35.6567 228.82Z" fill="black"/>
</g>
<rect x="244" y="48" width="31" height="31" fill="#D9D9D9"/>
<g clip-path="url(#clip1_597_1813)">
<path d="M254.598 61.5C255.315 61.5 255.898 60.9395 255.898 60.25C255.898 59.5605 255.315 59 254.598 59C253.881 59 253.298 59.5605 253.298 60.25C253.298 60.9395 253.881 61.5 254.598 61.5ZM262.398 61.5C263.115 61.5 263.698 60.9395 263.698 60.25C263.698 59.5605 263.115 59 262.398 59C261.681 59 261.098 59.5605 261.098 60.25C261.098 60.9395 261.681 61.5 262.398 61.5ZM264.984 65.9238L264.058 62.2949C263.991 62.0312 263.743 61.8457 263.453 61.8223C263.148 62.0117 262.786 62.125 262.396 62.125C262.006 62.125 261.645 62.0117 261.34 61.8223C261.05 61.8457 260.802 62.0312 260.735 62.2949L259.809 65.9238C259.737 66.2188 259.981 66.5 260.31 66.5H261.423V68.5312C261.423 68.791 261.641 69 261.911 69H262.886C263.156 69 263.373 68.791 263.373 68.5312V66.5H264.487C264.816 66.5 265.059 66.2188 264.984 65.9238ZM258.823 59H258.173C257.995 59 257.848 59.1406 257.848 59.3125V68.6875C257.848 68.8594 257.995 69 258.173 69H258.823C259.002 69 259.148 68.8594 259.148 68.6875V59.3125C259.148 59.1406 259.002 59 258.823 59ZM255.657 61.8203C255.352 62.0117 254.988 62.125 254.598 62.125C254.208 62.125 253.845 62.0117 253.54 61.8203C253.04 61.8613 252.648 62.2598 252.648 62.75V65.4062C252.648 65.666 252.866 65.875 253.136 65.875H253.298V68.5312C253.298 68.791 253.516 69 253.786 69H255.411C255.681 69 255.898 68.791 255.898 68.5312V65.875H256.061C256.331 65.875 256.548 65.666 256.548 65.4062V62.75C256.548 62.2598 256.156 61.8613 255.657 61.8203Z" fill="black"/>
</g>
<path d="M239 117.5H274.5V77.5" stroke="#D9D9D9"/>
<path d="M75.6992 216.8H72.9992C72.5218 216.8 72.064 216.989 71.7264 217.327C71.3889 217.665 71.1992 218.122 71.1992 218.6V222.8C71.1992 223.277 71.3889 223.735 71.7264 224.073C72.064 224.41 72.5218 224.6 72.9992 224.6H75.6992V216.8ZM73.3868 219.287C73.4147 219.259 73.4478 219.237 73.4842 219.222C73.5207 219.207 73.5598 219.199 73.5992 219.199C73.6387 219.199 73.6778 219.207 73.7142 219.222C73.7506 219.237 73.7838 219.259 73.8116 219.287L74.7116 220.187C74.7395 220.215 74.7616 220.248 74.7767 220.285C74.7918 220.321 74.7996 220.36 74.7996 220.4C74.7996 220.439 74.7918 220.478 74.7767 220.515C74.7616 220.551 74.7395 220.584 74.7116 220.612C74.6837 220.64 74.6506 220.662 74.6142 220.677C74.5777 220.692 74.5387 220.7 74.4992 220.7C74.4598 220.7 74.4207 220.692 74.3843 220.677C74.3478 220.662 74.3147 220.64 74.2868 220.612L73.8992 220.224V221.9C73.8992 221.979 73.8676 222.056 73.8114 222.112C73.7551 222.168 73.6788 222.2 73.5992 222.2C73.5197 222.2 73.4433 222.168 73.3871 222.112C73.3308 222.056 73.2992 221.979 73.2992 221.9V220.224L72.9116 220.612C72.8837 220.64 72.8506 220.662 72.8142 220.677C72.7777 220.692 72.7387 220.7 72.6992 220.7C72.6598 220.7 72.6207 220.692 72.5843 220.677C72.5478 220.662 72.5147 220.64 72.4868 220.612C72.4589 220.584 72.4368 220.551 72.4217 220.515C72.4066 220.478 72.3988 220.439 72.3988 220.4C72.3988 220.36 72.4066 220.321 72.4217 220.285C72.4368 220.248 72.4589 220.215 72.4868 220.187L73.3868 219.287ZM76.2992 224.6H78.9992C79.4766 224.6 79.9344 224.41 80.272 224.073C80.6096 223.735 80.7992 223.277 80.7992 222.8V218.6C80.7992 218.122 80.6096 217.665 80.272 217.327C79.9344 216.989 79.4766 216.8 78.9992 216.8H76.2992V224.6ZM78.6116 222.112C78.5838 222.14 78.5506 222.162 78.5142 222.177C78.4778 222.193 78.4387 222.2 78.3992 222.2C78.3598 222.2 78.3207 222.193 78.2842 222.177C78.2478 222.162 78.2147 222.14 78.1868 222.112L77.2868 221.212C77.2305 221.156 77.1988 221.079 77.1988 221C77.1988 220.92 77.2305 220.844 77.2868 220.787C77.3432 220.731 77.4196 220.699 77.4992 220.699C77.5789 220.699 77.6553 220.731 77.7116 220.787L78.0992 221.176V219.5C78.0992 219.42 78.1308 219.344 78.1871 219.288C78.2433 219.231 78.3197 219.2 78.3992 219.2C78.4788 219.2 78.5551 219.231 78.6114 219.288C78.6676 219.344 78.6992 219.42 78.6992 219.5V221.176L79.0868 220.787C79.1432 220.731 79.2196 220.699 79.2992 220.699C79.3789 220.699 79.4553 220.731 79.5116 220.787C79.568 220.844 79.5996 220.92 79.5996 221C79.5996 221.079 79.568 221.156 79.5116 221.212L78.6116 222.112Z" fill="black"/>
<path d="M232.5 230H234.15L236.65 225.5H237.5C237.708 225.5 237.885 225.427 238.031 225.281C238.177 225.136 238.25 224.959 238.25 224.75C238.25 224.541 238.177 224.364 238.031 224.219C237.886 224.074 237.709 224.001 237.5 224H235.85L233.35 228.5H232.5C232.292 228.5 232.115 228.573 231.969 228.719C231.823 228.865 231.75 229.042 231.75 229.25C231.75 229.458 231.823 229.635 231.969 229.781C232.115 229.928 232.292 230.001 232.5 230ZM231.5 231.5C231.225 231.5 230.99 231.402 230.794 231.207C230.598 231.011 230.5 230.775 230.5 230.5V223.5C230.5 223.225 230.598 222.99 230.794 222.794C230.99 222.598 231.225 222.5 231.5 222.5H238.5C238.775 222.5 239.01 222.598 239.207 222.794C239.403 222.99 239.5 223.225 239.5 223.5V230.5C239.5 230.775 239.402 231.01 239.207 231.207C239.011 231.403 238.775 231.5 238.5 231.5H231.5Z" fill="black"/>
<path d="M234.648 241.1H231.498C230.941 241.1 230.407 241.321 230.014 241.715C229.62 242.109 229.398 242.643 229.398 243.2V248.1C229.398 248.657 229.62 249.191 230.014 249.585C230.407 249.978 230.941 250.2 231.498 250.2H234.648V241.1ZM231.951 244.002C231.983 243.969 232.022 243.943 232.064 243.926C232.107 243.908 232.152 243.899 232.198 243.899C232.244 243.899 232.29 243.908 232.333 243.926C232.375 243.943 232.414 243.969 232.446 244.002L233.496 245.052C233.529 245.084 233.555 245.123 233.572 245.166C233.59 245.208 233.599 245.254 233.599 245.3C233.599 245.346 233.59 245.391 233.572 245.434C233.555 245.476 233.529 245.515 233.496 245.547C233.464 245.58 233.425 245.606 233.383 245.623C233.34 245.641 233.294 245.65 233.248 245.65C233.202 245.65 233.157 245.641 233.114 245.623C233.072 245.606 233.033 245.58 233.001 245.547L232.548 245.095V247.05C232.548 247.142 232.512 247.231 232.446 247.297C232.38 247.363 232.291 247.4 232.198 247.4C232.106 247.4 232.017 247.363 231.951 247.297C231.885 247.231 231.848 247.142 231.848 247.05V245.095L231.396 245.547C231.364 245.58 231.325 245.606 231.283 245.623C231.24 245.641 231.194 245.65 231.148 245.65C231.102 245.65 231.057 245.641 231.014 245.623C230.972 245.606 230.933 245.58 230.901 245.547C230.868 245.515 230.842 245.476 230.825 245.434C230.807 245.391 230.798 245.346 230.798 245.3C230.798 245.254 230.807 245.208 230.825 245.166C230.842 245.123 230.868 245.084 230.901 245.052L231.951 244.002ZM235.348 250.2H238.498C239.055 250.2 239.59 249.978 239.983 249.585C240.377 249.191 240.598 248.657 240.598 248.1V243.2C240.598 242.643 240.377 242.109 239.983 241.715C239.59 241.321 239.055 241.1 238.498 241.1H235.348V250.2ZM238.046 247.297C238.014 247.33 237.975 247.356 237.933 247.374C237.89 247.391 237.844 247.4 237.798 247.4C237.752 247.4 237.707 247.391 237.664 247.374C237.622 247.356 237.583 247.33 237.551 247.297L236.501 246.247C236.435 246.182 236.398 246.093 236.398 246C236.398 245.907 236.435 245.818 236.501 245.752C236.566 245.686 236.655 245.649 236.748 245.649C236.841 245.649 236.931 245.686 236.996 245.752L237.448 246.205V244.25C237.448 244.157 237.485 244.068 237.551 244.002C237.617 243.936 237.706 243.9 237.798 243.9C237.891 243.9 237.98 243.936 238.046 244.002C238.112 244.068 238.148 244.157 238.148 244.25V246.205L238.601 245.752C238.666 245.686 238.755 245.649 238.848 245.649C238.941 245.649 239.031 245.686 239.096 245.752C239.162 245.818 239.199 245.907 239.199 246C239.199 246.093 239.162 246.182 239.096 246.247L238.046 247.297Z" fill="black"/>
<g clip-path="url(#clip2_597_1813)">
<path d="M231.098 261.5C231.815 261.5 232.398 260.939 232.398 260.25C232.398 259.561 231.815 259 231.098 259C230.381 259 229.798 259.561 229.798 260.25C229.798 260.939 230.381 261.5 231.098 261.5ZM238.898 261.5C239.615 261.5 240.198 260.939 240.198 260.25C240.198 259.561 239.615 259 238.898 259C238.181 259 237.598 259.561 237.598 260.25C237.598 260.939 238.181 261.5 238.898 261.5ZM241.484 265.924L240.558 262.295C240.491 262.031 240.243 261.846 239.953 261.822C239.648 262.012 239.286 262.125 238.896 262.125C238.506 262.125 238.145 262.012 237.84 261.822C237.55 261.846 237.302 262.031 237.235 262.295L236.309 265.924C236.237 266.219 236.481 266.5 236.81 266.5H237.923V268.531C237.923 268.791 238.141 269 238.411 269H239.386C239.656 269 239.873 268.791 239.873 268.531V266.5H240.987C241.316 266.5 241.559 266.219 241.484 265.924ZM235.323 259H234.673C234.495 259 234.348 259.141 234.348 259.312V268.688C234.348 268.859 234.495 269 234.673 269H235.323C235.502 269 235.648 268.859 235.648 268.688V259.312C235.648 259.141 235.502 259 235.323 259ZM232.157 261.82C231.852 262.012 231.488 262.125 231.098 262.125C230.708 262.125 230.345 262.012 230.04 261.82C229.54 261.861 229.148 262.26 229.148 262.75V265.406C229.148 265.666 229.366 265.875 229.636 265.875H229.798V268.531C229.798 268.791 230.016 269 230.286 269H231.911C232.181 269 232.398 268.791 232.398 268.531V265.875H232.561C232.831 265.875 233.048 265.666 233.048 265.406V262.75C233.048 262.26 232.656 261.861 232.157 261.82Z" fill="black"/>
</g>
<rect x="55.5" y="215.5" width="5" height="21" fill="white" stroke="#D9D9D9"/>
<rect x="61.5" y="215.5" width="5" height="21" fill="white" stroke="#D9D9D9"/>
<path d="M56 218H66.5M56 221.5H66M56 225H66.5M56 228H66.5M56 231H66.5M56 233.5H66.5" stroke="#D9D9D9"/>
<rect x="239" y="93" width="35" height="25" fill="#D9D9D9"/>
<rect x="260" y="79" width="14" height="14" fill="#D9D9D9"/>
<path d="M245.766 102.95V96.99H248.966V97.73H246.636V102.21H246.966C247.533 102.21 248.046 102.173 248.506 102.1C248.973 102.02 249.356 101.947 249.656 101.88V102.59C249.496 102.637 249.306 102.683 249.086 102.73C248.866 102.77 248.633 102.807 248.386 102.84C248.139 102.873 247.883 102.9 247.616 102.92C247.356 102.94 247.103 102.95 246.856 102.95H245.766ZM253.086 105.33H252.226V100.34H250.976V105.1H250.136V96.3H250.976V99.6H252.226V96.2H253.086V105.33ZM259.442 96.67C259.435 96.93 259.422 97.2067 259.402 97.5C259.389 97.7933 259.369 98.09 259.342 98.39C259.315 98.6833 259.282 98.9733 259.242 99.26C259.202 99.54 259.159 99.7967 259.112 100.03H258.272C258.359 99.61 258.429 99.1767 258.482 98.73C258.535 98.2767 258.569 97.8333 258.582 97.4H254.922V96.67H259.442ZM260.682 103.19V96.2H261.542V99.32H262.862V100.08H261.542V103.19H260.682ZM257.072 98.83V100.82C257.625 100.8 258.182 100.773 258.742 100.74C259.302 100.7 259.802 100.65 260.242 100.59V101.3C259.922 101.347 259.569 101.387 259.182 101.42C258.802 101.453 258.409 101.483 258.002 101.51C257.602 101.53 257.202 101.547 256.802 101.56C256.402 101.573 256.025 101.58 255.672 101.58H254.192V100.84H256.202V98.83H257.072ZM261.692 105.15H255.742V102.58H256.612V104.4H261.692V105.15ZM271.858 100.48H270.288V105.33H269.428V96.2H270.288V99.72H271.858V100.48ZM266.748 100.13C267.035 100.57 267.368 101 267.748 101.42C268.128 101.84 268.541 102.21 268.988 102.53L268.348 103.15C267.948 102.843 267.578 102.497 267.238 102.11C266.905 101.723 266.591 101.31 266.298 100.87C265.931 101.41 265.518 101.9 265.058 102.34C264.598 102.78 264.108 103.15 263.588 103.45L262.978 102.87C263.511 102.583 263.995 102.227 264.428 101.8C264.861 101.373 265.235 100.923 265.548 100.45C265.868 99.9767 266.121 99.5 266.308 99.02C266.501 98.54 266.618 98.1 266.658 97.7C266.278 97.7133 265.905 97.7233 265.538 97.73C265.178 97.73 264.811 97.73 264.438 97.73H263.498V97H265.008C265.435 97 265.868 97 266.308 97C266.748 97 267.205 96.9933 267.678 96.98C267.658 97.52 267.568 98.0567 267.408 98.59C267.248 99.1167 267.028 99.63 266.748 100.13ZM254.026 111.56H252.456V116.33H251.596V107.2H252.456V110.8H254.026V111.56ZM245.626 114.33L245.006 113.78C245.413 113.487 245.789 113.15 246.136 112.77C246.483 112.39 246.776 111.957 247.016 111.47C247.256 110.977 247.433 110.423 247.546 109.81C247.666 109.197 247.699 108.513 247.646 107.76H248.556C248.569 108.2 248.556 108.617 248.516 109.01C248.476 109.403 248.419 109.78 248.346 110.14C248.586 110.827 248.926 111.457 249.366 112.03C249.806 112.597 250.329 113.083 250.936 113.49L250.376 114.13C249.876 113.777 249.426 113.36 249.026 112.88C248.633 112.393 248.296 111.847 248.016 111.24C247.763 111.893 247.433 112.477 247.026 112.99C246.626 113.497 246.159 113.943 245.626 114.33ZM254.252 113.17V112.44H262.752V113.17H259.032V116.28H258.152V113.17H254.252ZM255.662 111.29V107.52H261.462V111.29H255.662ZM260.602 108.27H256.522V110.56H260.602V108.27ZM266.598 107.38C266.611 107.64 266.601 107.89 266.568 108.13C266.541 108.37 266.501 108.597 266.448 108.81C266.681 109.23 266.998 109.63 267.398 110.01C267.805 110.383 268.305 110.697 268.898 110.95L268.358 111.56C267.858 111.34 267.425 111.07 267.058 110.75C266.698 110.43 266.381 110.07 266.108 109.67C265.855 110.143 265.525 110.557 265.118 110.91C264.718 111.257 264.268 111.56 263.768 111.82L263.168 111.24C263.581 111.02 263.951 110.787 264.278 110.54C264.605 110.287 264.878 110.007 265.098 109.7C265.325 109.387 265.488 109.04 265.588 108.66C265.695 108.28 265.735 107.853 265.708 107.38H266.598ZM269.908 107.2H270.768V111.82H269.908V107.2ZM270.968 116.23H265.028V113.91H269.918V113.08H265.028V112.34H270.768V114.64H265.878V115.49H270.968V116.23Z" fill="black"/>
<defs>
<clipPath id="clip0_597_1813">
<rect width="13" height="10" fill="white" transform="translate(32 226)"/>
</clipPath>
<clipPath id="clip1_597_1813">
<rect width="13" height="10" fill="white" transform="translate(252 59)"/>
</clipPath>
<clipPath id="clip2_597_1813">
<rect width="13" height="10" fill="white" transform="translate(228.5 259)"/>
</clipPath>
</defs>
</svg>
