<svg width="311" height="323" viewBox="0 0 311 323" fill="none" xmlns="http://www.w3.org/2000/svg">
<rect width="311" height="323" fill="white"/>
<path d="M256.82 225.54H255.38V228.8H254.52V222.21H255.38V224.78H256.82V225.54ZM255.58 231.15H249.88V228.32H250.75V230.4H255.58V231.15ZM248.38 224.92C248.38 224.587 248.44 224.277 248.56 223.99C248.68 223.703 248.847 223.457 249.06 223.25C249.273 223.043 249.523 222.883 249.81 222.77C250.097 222.65 250.41 222.59 250.75 222.59C251.09 222.59 251.407 222.65 251.7 222.77C251.993 222.883 252.247 223.043 252.46 223.25C252.673 223.457 252.84 223.703 252.96 223.99C253.08 224.277 253.14 224.587 253.14 224.92C253.14 225.247 253.08 225.55 252.96 225.83C252.84 226.11 252.673 226.353 252.46 226.56C252.247 226.76 251.993 226.92 251.7 227.04C251.407 227.153 251.09 227.21 250.75 227.21C250.41 227.21 250.097 227.153 249.81 227.04C249.523 226.92 249.273 226.76 249.06 226.56C248.847 226.353 248.68 226.11 248.56 225.83C248.44 225.55 248.38 225.247 248.38 224.92ZM249.3 224.92C249.3 225.14 249.333 225.347 249.4 225.54C249.473 225.727 249.573 225.887 249.7 226.02C249.833 226.153 249.99 226.26 250.17 226.34C250.35 226.413 250.55 226.45 250.77 226.45C250.99 226.45 251.19 226.413 251.37 226.34C251.55 226.26 251.703 226.153 251.83 226.02C251.963 225.887 252.067 225.727 252.14 225.54C252.213 225.347 252.25 225.14 252.25 224.92C252.25 224.687 252.213 224.473 252.14 224.28C252.067 224.087 251.963 223.92 251.83 223.78C251.703 223.64 251.55 223.533 251.37 223.46C251.19 223.38 250.99 223.34 250.77 223.34C250.55 223.34 250.35 223.38 250.17 223.46C249.99 223.533 249.833 223.64 249.7 223.78C249.573 223.92 249.473 224.087 249.4 224.28C249.333 224.473 249.3 224.687 249.3 224.92ZM257.536 228.72V222.88H258.416V227.96H258.806C259.353 227.96 259.853 227.923 260.306 227.85C260.766 227.77 261.143 227.697 261.436 227.63V228.36C261.276 228.407 261.089 228.453 260.876 228.5C260.663 228.54 260.433 228.577 260.186 228.61C259.946 228.643 259.699 228.67 259.446 228.69C259.193 228.71 258.946 228.72 258.706 228.72H257.536ZM264.876 231.33H264.016V226.33H262.696V231.1H261.856V222.3H262.696V225.59H264.016V222.2H264.876V231.33Z" fill="black"/>
<path d="M251.63 244.88C251.33 244.933 251.01 244.973 250.67 245C250.337 245.02 249.997 245.033 249.65 245.04H248.61V244.31H249.99C250.343 244.31 250.677 244.303 250.99 244.29C251.31 244.27 251.63 244.24 251.95 244.2C252.143 243.707 252.26 243.207 252.3 242.7C251.893 242.713 251.49 242.723 251.09 242.73C250.69 242.73 250.29 242.73 249.89 242.73H248.72V241.99H250.4C250.867 241.99 251.333 241.99 251.8 241.99C252.267 241.99 252.737 241.983 253.21 241.97C253.19 242.663 253.093 243.31 252.92 243.91C252.747 244.51 252.487 245.07 252.14 245.59C251.793 246.11 251.353 246.59 250.82 247.03C250.293 247.47 249.663 247.877 248.93 248.25L248.34 247.63C249.14 247.283 249.807 246.877 250.34 246.41C250.88 245.943 251.31 245.433 251.63 244.88ZM256.9 245.46H255.33V250.33H254.47V241.2H255.33V244.7H256.9V245.46ZM264.876 250.33H264.016V241.2H264.876V250.33ZM262.396 241.3H263.256V250.1H262.396V245.14H261.286V244.43H262.396V241.3ZM257.216 242.71V241.99H261.426V242.71H257.216ZM257.926 247.09L257.856 243.08H258.666L258.736 247.09H259.876L259.926 243.08H260.736L260.686 247.05C260.893 247.03 261.093 247.007 261.286 246.98C261.479 246.947 261.663 246.907 261.836 246.86V247.57C261.509 247.677 261.149 247.747 260.756 247.78C260.369 247.807 259.973 247.82 259.566 247.82H257.096V247.09H257.926Z" fill="black"/>
<path d="M256.212 269.33H255.352V260.2H256.212V269.33ZM253.492 260.3H254.352V269.1H253.492V264.16H252.502C252.482 265.167 252.302 265.93 251.962 266.45C251.622 266.97 251.159 267.23 250.572 267.23C249.985 267.23 249.522 266.957 249.182 266.41C248.842 265.857 248.672 265.053 248.672 264C248.672 262.947 248.842 262.147 249.182 261.6C249.522 261.047 249.985 260.77 250.572 260.77C251.112 260.77 251.549 260.993 251.882 261.44C252.215 261.887 252.415 262.543 252.482 263.41H253.492V260.3ZM251.662 264C251.662 263.633 251.642 263.297 251.602 262.99C251.562 262.683 251.499 262.42 251.412 262.2C251.325 261.98 251.212 261.81 251.072 261.69C250.932 261.57 250.762 261.51 250.562 261.51C250.369 261.51 250.205 261.57 250.072 261.69C249.939 261.81 249.832 261.98 249.752 262.2C249.672 262.42 249.612 262.683 249.572 262.99C249.539 263.297 249.522 263.633 249.522 264C249.522 264.367 249.539 264.703 249.572 265.01C249.612 265.317 249.672 265.58 249.752 265.8C249.832 266.02 249.939 266.19 250.072 266.31C250.205 266.43 250.369 266.49 250.562 266.49C250.762 266.49 250.932 266.43 251.072 266.31C251.212 266.19 251.325 266.02 251.412 265.8C251.499 265.58 251.562 265.317 251.602 265.01C251.642 264.703 251.662 264.367 251.662 264ZM265.878 267.28V268.01H257.378V267.28H265.878ZM262.018 261.97C262.398 262.677 262.868 263.28 263.428 263.78C263.995 264.28 264.651 264.653 265.398 264.9L264.838 265.55C264.198 265.323 263.605 264.973 263.058 264.5C262.511 264.027 262.055 263.48 261.688 262.86C261.368 263.487 260.931 264.027 260.378 264.48C259.825 264.927 259.215 265.273 258.548 265.52L257.978 264.86C258.485 264.68 258.941 264.467 259.348 264.22C259.761 263.967 260.111 263.67 260.398 263.33C260.685 262.983 260.901 262.59 261.048 262.15C261.201 261.703 261.271 261.197 261.258 260.63H262.148C262.168 261.117 262.125 261.563 262.018 261.97ZM274.094 269.23H268.154V266.88H273.044V266.03H268.154V265.29H273.894V267.61H269.004V268.49H274.094V269.23ZM270.494 261.32C270.094 261.333 269.704 261.343 269.324 261.35C268.951 261.35 268.564 261.35 268.164 261.35H267.084V260.63H268.734C269.201 260.63 269.657 260.63 270.104 260.63C270.557 260.63 271.021 260.623 271.494 260.61C271.454 261.137 271.317 261.637 271.084 262.11C270.851 262.583 270.537 263.02 270.144 263.42C269.751 263.813 269.287 264.163 268.754 264.47C268.227 264.777 267.647 265.027 267.014 265.22L266.534 264.59C267.174 264.41 267.754 264.18 268.274 263.9C268.794 263.62 269.234 263.29 269.594 262.91C269.314 262.943 269.024 262.967 268.724 262.98C268.431 262.987 268.127 262.993 267.814 263H266.954V262.33H268.154C268.507 262.33 268.844 262.323 269.164 262.31C269.484 262.29 269.804 262.26 270.124 262.22C270.204 262.08 270.274 261.937 270.334 261.79C270.401 261.637 270.454 261.48 270.494 261.32ZM271.394 263.28V262.52H273.034V260.2H273.894V264.77H273.034V263.28H271.394ZM282.96 269.33H282.1V260.2H282.96V269.33ZM280.29 260.3H281.14V269.1H280.29V264.16H279.17V263.41H280.29V260.3ZM275.68 267.15V263.55H277.78V261.68H275.66V260.94H278.64V264.28H276.54V266.41H276.81C277.417 266.41 277.97 266.373 278.47 266.3C278.97 266.227 279.38 266.157 279.7 266.09V266.8C279.527 266.847 279.32 266.89 279.08 266.93C278.847 266.97 278.597 267.007 278.33 267.04C278.063 267.073 277.79 267.1 277.51 267.12C277.23 267.14 276.957 267.15 276.69 267.15H275.68ZM290.866 260.2H291.726V269.33H290.866V260.2ZM289.136 263.99C289.136 264.523 289.076 264.997 288.956 265.41C288.836 265.817 288.669 266.157 288.456 266.43C288.249 266.703 288.003 266.91 287.716 267.05C287.429 267.19 287.123 267.26 286.796 267.26C286.469 267.26 286.163 267.19 285.876 267.05C285.596 266.91 285.349 266.703 285.136 266.43C284.923 266.157 284.753 265.817 284.626 265.41C284.506 264.997 284.446 264.523 284.446 263.99C284.446 263.457 284.506 262.987 284.626 262.58C284.753 262.173 284.923 261.833 285.136 261.56C285.349 261.287 285.596 261.08 285.876 260.94C286.163 260.8 286.469 260.73 286.796 260.73C287.123 260.73 287.429 260.8 287.716 260.94C288.003 261.08 288.249 261.287 288.456 261.56C288.669 261.833 288.836 262.173 288.956 262.58C289.076 262.987 289.136 263.457 289.136 263.99ZM288.266 263.99C288.266 263.617 288.233 263.277 288.166 262.97C288.099 262.663 288.003 262.4 287.876 262.18C287.756 261.96 287.603 261.79 287.416 261.67C287.236 261.55 287.029 261.49 286.796 261.49C286.563 261.49 286.353 261.55 286.166 261.67C285.986 261.79 285.833 261.96 285.706 262.18C285.586 262.4 285.493 262.663 285.426 262.97C285.359 263.277 285.326 263.617 285.326 263.99C285.326 264.363 285.359 264.703 285.426 265.01C285.493 265.317 285.586 265.58 285.706 265.8C285.833 266.02 285.986 266.193 286.166 266.32C286.353 266.44 286.563 266.5 286.796 266.5C287.029 266.5 287.236 266.44 287.416 266.32C287.603 266.193 287.756 266.02 287.876 265.8C288.003 265.58 288.099 265.317 288.166 265.01C288.233 264.703 288.266 264.363 288.266 263.99ZM298.172 264.14V263.39H299.782V260.2H300.642V269.33H299.782V264.14H298.172ZM295.572 267.04H293.552V260.94H297.522V261.67H294.412V263.6H297.302V264.33H294.412V266.31H295.702C296.269 266.31 296.815 266.28 297.342 266.22C297.875 266.153 298.389 266.063 298.882 265.95V266.66C298.389 266.787 297.859 266.883 297.292 266.95C296.725 267.01 296.152 267.04 295.572 267.04Z" fill="black"/>
<path d="M256.04 283.77H255.21V279.2H256.04V283.77ZM253.37 279.3H254.19V283.77H253.37V281.72H252.35C252.33 282.033 252.267 282.31 252.16 282.55C252.053 282.783 251.913 282.98 251.74 283.14C251.573 283.3 251.373 283.42 251.14 283.5C250.913 283.58 250.67 283.62 250.41 283.62C250.137 283.62 249.88 283.577 249.64 283.49C249.4 283.397 249.193 283.263 249.02 283.09C248.847 282.91 248.71 282.69 248.61 282.43C248.51 282.163 248.46 281.86 248.46 281.52C248.46 281.173 248.51 280.87 248.61 280.61C248.71 280.343 248.847 280.123 249.02 279.95C249.193 279.77 249.4 279.637 249.64 279.55C249.88 279.457 250.137 279.41 250.41 279.41C250.883 279.41 251.293 279.543 251.64 279.81C251.987 280.07 252.21 280.457 252.31 280.97H253.37V279.3ZM256.24 288.23H250.15V285.9H255.19V285.01H250.11V284.29H256.04V286.6H251V287.5H256.24V288.23ZM251.53 281.53C251.53 281.09 251.427 280.75 251.22 280.51C251.013 280.27 250.743 280.15 250.41 280.15C250.077 280.15 249.807 280.27 249.6 280.51C249.393 280.75 249.29 281.09 249.29 281.53C249.29 281.963 249.393 282.297 249.6 282.53C249.807 282.763 250.077 282.88 250.41 282.88C250.743 282.88 251.013 282.763 251.22 282.53C251.427 282.297 251.53 281.963 251.53 281.53ZM263.866 279.2H264.726V288.33H263.866V279.2ZM258.546 285.43H259.936C260.283 285.43 260.616 285.42 260.936 285.4C261.263 285.373 261.566 285.343 261.846 285.31C262.133 285.27 262.396 285.23 262.636 285.19C262.876 285.143 263.086 285.1 263.266 285.06V285.77C263.066 285.823 262.833 285.873 262.566 285.92C262.299 285.967 262.013 286.007 261.706 286.04C261.399 286.073 261.083 286.103 260.756 286.13C260.436 286.15 260.123 286.16 259.816 286.16H257.666V282.54H260.776V280.67H257.646V279.93H261.656V283.27H258.546V285.43ZM273.792 288.33H272.932V279.2H273.792V288.33ZM271.102 279.3H271.952V288.1H271.102V283.26H269.942V285.82H266.512V279.91H267.352V282.15H269.112V279.91H269.942V282.51H271.102V279.3ZM269.112 282.86H267.352V285.1H269.112V282.86ZM281.698 279.2H282.558V288.33H281.698V279.2ZM279.968 282.99C279.968 283.523 279.908 283.997 279.788 284.41C279.668 284.817 279.501 285.157 279.288 285.43C279.081 285.703 278.835 285.91 278.548 286.05C278.261 286.19 277.955 286.26 277.628 286.26C277.301 286.26 276.995 286.19 276.708 286.05C276.428 285.91 276.181 285.703 275.968 285.43C275.755 285.157 275.585 284.817 275.458 284.41C275.338 283.997 275.278 283.523 275.278 282.99C275.278 282.457 275.338 281.987 275.458 281.58C275.585 281.173 275.755 280.833 275.968 280.56C276.181 280.287 276.428 280.08 276.708 279.94C276.995 279.8 277.301 279.73 277.628 279.73C277.955 279.73 278.261 279.8 278.548 279.94C278.835 280.08 279.081 280.287 279.288 280.56C279.501 280.833 279.668 281.173 279.788 281.58C279.908 281.987 279.968 282.457 279.968 282.99ZM279.098 282.99C279.098 282.617 279.065 282.277 278.998 281.97C278.931 281.663 278.835 281.4 278.708 281.18C278.588 280.96 278.435 280.79 278.248 280.67C278.068 280.55 277.861 280.49 277.628 280.49C277.395 280.49 277.185 280.55 276.998 280.67C276.818 280.79 276.665 280.96 276.538 281.18C276.418 281.4 276.325 281.663 276.258 281.97C276.191 282.277 276.158 282.617 276.158 282.99C276.158 283.363 276.191 283.703 276.258 284.01C276.325 284.317 276.418 284.58 276.538 284.8C276.665 285.02 276.818 285.193 276.998 285.32C277.185 285.44 277.395 285.5 277.628 285.5C277.861 285.5 278.068 285.44 278.248 285.32C278.435 285.193 278.588 285.02 278.708 284.8C278.835 284.58 278.931 284.317 278.998 284.01C279.065 283.703 279.098 283.363 279.098 282.99ZM289.004 283.14V282.39H290.614V279.2H291.474V288.33H290.614V283.14H289.004ZM286.404 286.04H284.384V279.94H288.354V280.67H285.244V282.6H288.134V283.33H285.244V285.31H286.534C287.101 285.31 287.647 285.28 288.174 285.22C288.707 285.153 289.221 285.063 289.714 284.95V285.66C289.221 285.787 288.691 285.883 288.124 285.95C287.557 286.01 286.984 286.04 286.404 286.04Z" fill="black"/>
<path d="M248.36 300.45V299.74H253.86V300.45H248.36ZM249.53 299.19V298.46H252.58V299.19H249.53ZM253.37 302.46C253.37 302.867 253.22 303.217 252.92 303.51C252.627 303.797 252.187 303.973 251.6 304.04V304.99C252.067 304.97 252.523 304.947 252.97 304.92C253.423 304.887 253.833 304.843 254.2 304.79V305.5C253.88 305.547 253.527 305.587 253.14 305.62C252.76 305.653 252.367 305.683 251.96 305.71C251.56 305.73 251.16 305.747 250.76 305.76C250.36 305.773 249.983 305.78 249.63 305.78H248.11V305.04H249.62C249.793 305.04 249.97 305.04 250.15 305.04C250.337 305.033 250.53 305.027 250.73 305.02V304.04C250.123 303.98 249.67 303.807 249.37 303.52C249.07 303.227 248.92 302.873 248.92 302.46C248.92 302.233 248.967 302.023 249.06 301.83C249.153 301.637 249.293 301.47 249.48 301.33C249.667 301.183 249.897 301.07 250.17 300.99C250.45 300.91 250.777 300.87 251.15 300.87C251.517 300.87 251.837 300.91 252.11 300.99C252.39 301.07 252.623 301.183 252.81 301.33C252.997 301.47 253.137 301.637 253.23 301.83C253.323 302.023 253.37 302.233 253.37 302.46ZM252.5 302.46C252.5 302.34 252.473 302.223 252.42 302.11C252.373 301.997 252.293 301.897 252.18 301.81C252.073 301.723 251.933 301.653 251.76 301.6C251.593 301.547 251.39 301.52 251.15 301.52C250.91 301.52 250.703 301.547 250.53 301.6C250.357 301.653 250.213 301.723 250.1 301.81C249.993 301.897 249.913 301.997 249.86 302.11C249.813 302.223 249.79 302.34 249.79 302.46C249.79 302.58 249.813 302.697 249.86 302.81C249.913 302.923 249.993 303.023 250.1 303.11C250.213 303.197 250.357 303.267 250.53 303.32C250.703 303.373 250.91 303.4 251.15 303.4C251.39 303.4 251.593 303.373 251.76 303.32C251.933 303.267 252.073 303.197 252.18 303.11C252.293 303.023 252.373 302.923 252.42 302.81C252.473 302.697 252.5 302.58 252.5 302.46ZM256.9 302.83H255.45V307.33H254.62V298.2H255.45V302.09H256.9V302.83ZM261.106 300.86C261.359 301.18 261.666 301.477 262.026 301.75C262.393 302.023 262.743 302.25 263.076 302.43L262.516 303.06C262.176 302.86 261.843 302.623 261.516 302.35C261.189 302.077 260.889 301.777 260.616 301.45C260.396 301.69 260.159 301.917 259.906 302.13C259.653 302.337 259.399 302.523 259.146 302.69C258.893 302.857 258.639 303.007 258.386 303.14C258.139 303.267 257.906 303.37 257.686 303.45L257.126 302.82C257.573 302.66 258.003 302.453 258.416 302.2C258.829 301.947 259.203 301.667 259.536 301.36C259.869 301.053 260.156 300.727 260.396 300.38C260.636 300.033 260.803 299.68 260.896 299.32C260.523 299.333 260.153 299.343 259.786 299.35C259.426 299.35 259.063 299.35 258.696 299.35H257.676V298.61H259.336C259.763 298.61 260.193 298.61 260.626 298.61C261.066 298.61 261.519 298.603 261.986 298.59C261.953 299.01 261.856 299.41 261.696 299.79C261.543 300.163 261.346 300.52 261.106 300.86ZM265.736 301.18H264.296V303.76H263.436V298.2H264.296V300.42H265.736V301.18ZM264.396 305.61C264.396 305.87 264.333 306.11 264.206 306.33C264.086 306.55 263.899 306.74 263.646 306.9C263.399 307.06 263.089 307.183 262.716 307.27C262.349 307.363 261.923 307.41 261.436 307.41C260.943 307.41 260.513 307.363 260.146 307.27C259.779 307.183 259.469 307.06 259.216 306.9C258.969 306.74 258.783 306.55 258.656 306.33C258.536 306.11 258.476 305.87 258.476 305.61C258.476 305.09 258.723 304.667 259.216 304.34C259.709 304.013 260.449 303.85 261.436 303.85C262.423 303.85 263.163 304.013 263.656 304.34C264.149 304.667 264.396 305.09 264.396 305.61ZM263.496 305.63C263.496 305.483 263.456 305.347 263.376 305.22C263.296 305.093 263.169 304.983 262.996 304.89C262.829 304.797 262.616 304.723 262.356 304.67C262.103 304.617 261.796 304.59 261.436 304.59C260.729 304.59 260.206 304.69 259.866 304.89C259.533 305.09 259.366 305.337 259.366 305.63C259.366 305.923 259.533 306.17 259.866 306.37C260.206 306.57 260.729 306.67 261.436 306.67C262.149 306.67 262.669 306.57 262.996 306.37C263.329 306.17 263.496 305.923 263.496 305.63ZM269.472 298.38C269.485 298.64 269.475 298.89 269.442 299.13C269.415 299.37 269.375 299.597 269.322 299.81C269.555 300.23 269.872 300.63 270.272 301.01C270.679 301.383 271.179 301.697 271.772 301.95L271.232 302.56C270.732 302.34 270.299 302.07 269.932 301.75C269.572 301.43 269.255 301.07 268.982 300.67C268.729 301.143 268.399 301.557 267.992 301.91C267.592 302.257 267.142 302.56 266.642 302.82L266.042 302.24C266.455 302.02 266.825 301.787 267.152 301.54C267.479 301.287 267.752 301.007 267.972 300.7C268.199 300.387 268.362 300.04 268.462 299.66C268.569 299.28 268.609 298.853 268.582 298.38H269.472ZM272.782 298.2H273.642V302.82H272.782V298.2ZM273.842 307.23H267.902V304.91H272.792V304.08H267.902V303.34H273.642V305.64H268.752V306.49H273.842V307.23Z" fill="black"/>
<path d="M117 247.5H146.5V157.5V126.5H173.5V92.5H24V266.5" stroke="#D9D9D9"/>
<rect x="84" y="35" width="91" height="60" fill="#6180BE"/>
<rect x="115" y="125" width="60" height="32" fill="#D9D9D9"/>
<rect x="84" y="246" width="33" height="32" fill="#D9D9D9"/>
<rect x="23" y="257" width="61" height="49" fill="#D9D9D9"/>
<rect x="23" y="65" width="42" height="150" fill="#6180BE"/>
<rect x="44" y="76" width="40" height="139" fill="#6180BE"/>
<path d="M135.68 144.88C135.38 144.933 135.06 144.973 134.72 145C134.386 145.02 134.046 145.033 133.7 145.04H132.66V144.31H134.04C134.393 144.31 134.726 144.303 135.04 144.29C135.36 144.27 135.68 144.24 136 144.2C136.193 143.707 136.31 143.207 136.35 142.7C135.943 142.713 135.54 142.723 135.14 142.73C134.74 142.73 134.34 142.73 133.94 142.73H132.77V141.99H134.45C134.916 141.99 135.383 141.99 135.85 141.99C136.316 141.99 136.786 141.983 137.26 141.97C137.24 142.663 137.143 143.31 136.97 143.91C136.796 144.51 136.536 145.07 136.19 145.59C135.843 146.11 135.403 146.59 134.87 147.03C134.343 147.47 133.713 147.877 132.98 148.25L132.39 147.63C133.19 147.283 133.856 146.877 134.39 146.41C134.93 145.943 135.36 145.433 135.68 144.88ZM140.95 145.46H139.38V150.33H138.52V141.2H139.38V144.7H140.95V145.46ZM148.926 150.33H148.066V141.2H148.926V150.33ZM146.446 141.3H147.306V150.1H146.446V145.14H145.336V144.43H146.446V141.3ZM141.266 142.71V141.99H145.476V142.71H141.266ZM141.976 147.09L141.906 143.08H142.716L142.786 147.09H143.926L143.976 143.08H144.786L144.736 147.05C144.942 147.03 145.142 147.007 145.336 146.98C145.529 146.947 145.712 146.907 145.886 146.86V147.57C145.559 147.677 145.199 147.747 144.806 147.78C144.419 147.807 144.022 147.82 143.616 147.82H141.146V147.09H141.976ZM159.068 141.2H159.928V150.33H159.068V141.2ZM153.748 147.43H155.138C155.485 147.43 155.818 147.42 156.138 147.4C156.465 147.373 156.768 147.343 157.048 147.31C157.335 147.27 157.598 147.23 157.838 147.19C158.078 147.143 158.288 147.1 158.468 147.06V147.77C158.268 147.823 158.035 147.873 157.768 147.92C157.501 147.967 157.215 148.007 156.908 148.04C156.601 148.073 156.285 148.103 155.958 148.13C155.638 148.15 155.325 148.16 155.018 148.16H152.868V144.54H155.978V142.67H152.848V141.93H156.858V145.27H153.748V147.43ZM161.774 146.15V141.54H162.644V143.11H165.194V141.54H166.044V146.15H161.774ZM165.194 143.84H162.644V145.41H165.194V143.84ZM167.984 141.2H168.844V147.8H167.984V141.2ZM169.044 150.15H163.244V147.35H164.114V149.4H169.044V150.15Z" fill="black"/>
<path d="M44.176 279.99C44.176 280.523 44.116 280.997 43.996 281.41C43.876 281.817 43.7126 282.157 43.506 282.43C43.2993 282.703 43.0526 282.91 42.766 283.05C42.486 283.19 42.1826 283.26 41.856 283.26C41.5293 283.26 41.2226 283.19 40.936 283.05C40.656 282.91 40.4093 282.703 40.196 282.43C39.9893 282.157 39.826 281.817 39.706 281.41C39.586 280.997 39.526 280.523 39.526 279.99C39.526 279.457 39.586 278.987 39.706 278.58C39.826 278.173 39.9893 277.833 40.196 277.56C40.4093 277.287 40.656 277.08 40.936 276.94C41.2226 276.8 41.5293 276.73 41.856 276.73C42.1826 276.73 42.486 276.8 42.766 276.94C43.0526 277.08 43.2993 277.287 43.506 277.56C43.7126 277.833 43.876 278.173 43.996 278.58C44.116 278.987 44.176 279.457 44.176 279.99ZM48.026 280.36H46.456V285.33H45.596V276.2H46.456V279.6H48.026V280.36ZM43.306 279.99C43.306 279.617 43.2726 279.277 43.206 278.97C43.146 278.663 43.0526 278.4 42.926 278.18C42.806 277.96 42.656 277.79 42.476 277.67C42.296 277.55 42.0893 277.49 41.856 277.49C41.6226 277.49 41.416 277.55 41.236 277.67C41.056 277.79 40.9026 277.96 40.776 278.18C40.656 278.4 40.5626 278.663 40.496 278.97C40.436 279.277 40.406 279.617 40.406 279.99C40.406 280.363 40.436 280.703 40.496 281.01C40.5626 281.317 40.656 281.58 40.776 281.8C40.9026 282.02 41.056 282.193 41.236 282.32C41.416 282.44 41.6226 282.5 41.856 282.5C42.0893 282.5 42.296 282.44 42.476 282.32C42.656 282.193 42.806 282.02 42.926 281.8C43.0526 281.58 43.146 281.317 43.206 281.01C43.2726 280.703 43.306 280.363 43.306 279.99ZM54.992 276.2H55.852V285.33H54.992V276.2ZM51.182 283.04H48.792V276.94H52.932V277.67H49.652V279.6H52.832V280.33H49.652V282.31H51.312C51.8787 282.31 52.4253 282.28 52.952 282.22C53.4853 282.153 53.9987 282.063 54.492 281.95V282.66C53.9987 282.787 53.4687 282.883 52.902 282.95C52.3353 283.01 51.762 283.04 51.182 283.04ZM60.798 277.72C61.0247 278.167 61.3347 278.563 61.728 278.91C62.128 279.25 62.618 279.537 63.198 279.77L62.658 280.4C62.218 280.207 61.808 279.963 61.428 279.67C61.0547 279.37 60.7347 279.02 60.468 278.62C60.0347 279.407 59.288 280.057 58.228 280.57L57.658 279.97C58.5513 279.57 59.188 279.107 59.568 278.58C59.948 278.053 60.1013 277.437 60.028 276.73H60.918C60.9047 277.09 60.8647 277.42 60.798 277.72ZM65.008 285.33H64.148V276.2H65.008V285.33ZM60.888 285.13H60.008V282.16C59.848 282.167 59.6913 282.17 59.538 282.17C59.3847 282.17 59.2347 282.17 59.088 282.17H57.318V281.42H59.078C59.4113 281.42 59.778 281.417 60.178 281.41C60.578 281.397 60.9813 281.38 61.388 281.36C61.8013 281.34 62.2013 281.313 62.588 281.28C62.9813 281.247 63.338 281.21 63.658 281.17V281.89C63.2647 281.943 62.828 281.99 62.348 282.03C61.8747 282.07 61.388 282.103 60.888 282.13V285.13Z" fill="black"/>
<path d="M120.352 239.27H128.852V240.02H125.112V243.28H124.232V240.02H120.352V239.27ZM127.152 234.79C126.985 235.163 126.758 235.51 126.472 235.83C126.192 236.143 125.858 236.44 125.472 236.72C125.892 236.927 126.345 237.113 126.832 237.28C127.318 237.447 127.832 237.587 128.372 237.7L127.942 238.43C127.355 238.283 126.795 238.107 126.262 237.9C125.735 237.693 125.232 237.45 124.752 237.17C124.258 237.45 123.722 237.7 123.142 237.92C122.562 238.133 121.948 238.32 121.302 238.48L120.882 237.76C121.515 237.627 122.098 237.467 122.632 237.28C123.165 237.087 123.642 236.88 124.062 236.66C124.482 236.44 124.845 236.213 125.152 235.98C125.458 235.74 125.698 235.5 125.872 235.26C125.492 235.28 125.118 235.293 124.752 235.3C124.385 235.3 124.015 235.3 123.642 235.3H121.762V234.56H124.342C124.775 234.56 125.208 234.56 125.642 234.56C126.082 234.56 126.538 234.553 127.012 234.54C127.085 234.533 127.135 234.56 127.162 234.62C127.188 234.68 127.185 234.737 127.152 234.79ZM137.958 238.48H136.388V243.33H135.528V234.2H136.388V237.72H137.958V238.48ZM130.398 235.28V234.52H133.208V235.28H130.398ZM132.908 238.65C133.188 239.07 133.501 239.437 133.848 239.75C134.201 240.063 134.571 240.357 134.958 240.63L134.328 241.29C133.961 240.997 133.614 240.693 133.288 240.38C132.968 240.067 132.674 239.72 132.408 239.34C132.021 239.813 131.591 240.237 131.118 240.61C130.644 240.983 130.158 241.303 129.658 241.57L129.068 240.96C129.528 240.74 129.964 240.47 130.378 240.15C130.798 239.83 131.174 239.483 131.508 239.11C131.848 238.737 132.131 238.35 132.358 237.95C132.591 237.543 132.748 237.15 132.828 236.77C132.454 236.783 132.084 236.793 131.718 236.8C131.351 236.8 130.981 236.8 130.608 236.8H129.558V236.06H131.178C131.611 236.06 132.044 236.06 132.478 236.06C132.918 236.06 133.374 236.053 133.848 236.04C133.801 236.52 133.694 236.977 133.528 237.41C133.368 237.843 133.161 238.257 132.908 238.65ZM145.464 236.97C145.464 237.317 145.39 237.637 145.244 237.93C145.104 238.223 144.9 238.477 144.634 238.69C144.374 238.903 144.057 239.07 143.684 239.19C143.31 239.31 142.894 239.37 142.434 239.37C141.974 239.37 141.557 239.31 141.184 239.19C140.81 239.07 140.49 238.903 140.224 238.69C139.964 238.477 139.76 238.223 139.614 237.93C139.474 237.637 139.404 237.317 139.404 236.97C139.404 236.623 139.474 236.303 139.614 236.01C139.76 235.717 139.964 235.463 140.224 235.25C140.49 235.037 140.81 234.87 141.184 234.75C141.557 234.63 141.974 234.57 142.434 234.57C142.894 234.57 143.31 234.63 143.684 234.75C144.057 234.87 144.374 235.037 144.634 235.25C144.9 235.463 145.104 235.717 145.244 236.01C145.39 236.303 145.464 236.623 145.464 236.97ZM144.584 236.97C144.584 236.743 144.537 236.53 144.444 236.33C144.357 236.13 144.224 235.957 144.044 235.81C143.87 235.657 143.647 235.537 143.374 235.45C143.107 235.363 142.794 235.32 142.434 235.32C142.074 235.32 141.757 235.363 141.484 235.45C141.217 235.537 140.994 235.657 140.814 235.81C140.64 235.957 140.507 236.13 140.414 236.33C140.327 236.53 140.284 236.743 140.284 236.97C140.284 237.197 140.327 237.41 140.414 237.61C140.507 237.81 140.64 237.987 140.814 238.14C140.994 238.293 141.217 238.417 141.484 238.51C141.757 238.597 142.074 238.64 142.434 238.64C142.794 238.64 143.107 238.597 143.374 238.51C143.647 238.417 143.87 238.293 144.044 238.14C144.224 237.987 144.357 237.81 144.444 237.61C144.537 237.41 144.584 237.197 144.584 236.97ZM146.684 241.19V241.92H138.184V241.19H140.264V239.5H141.124V241.19H143.814V239.5H144.674V241.19H146.684ZM148.31 234.5H154.26C154.246 235.127 154.213 235.727 154.16 236.3C154.113 236.867 154.063 237.357 154.01 237.77H155.7V238.51H147V237.77H153.16C153.22 237.35 153.27 236.93 153.31 236.51C153.356 236.09 153.383 235.67 153.39 235.25H148.31V234.5ZM148.41 243.19V239.86H154.29V243.19H148.41ZM153.43 240.6H149.27V242.44H153.43V240.6ZM166.942 238.56H165.372V243.33H164.512V234.2H165.372V237.8H166.942V238.56ZM158.542 241.33L157.922 240.78C158.329 240.487 158.705 240.15 159.052 239.77C159.399 239.39 159.692 238.957 159.932 238.47C160.172 237.977 160.349 237.423 160.462 236.81C160.582 236.197 160.615 235.513 160.562 234.76H161.472C161.485 235.2 161.472 235.617 161.432 236.01C161.392 236.403 161.335 236.78 161.262 237.14C161.502 237.827 161.842 238.457 162.282 239.03C162.722 239.597 163.245 240.083 163.852 240.49L163.292 241.13C162.792 240.777 162.342 240.36 161.942 239.88C161.549 239.393 161.212 238.847 160.932 238.24C160.679 238.893 160.349 239.477 159.942 239.99C159.542 240.497 159.075 240.943 158.542 241.33ZM172.318 237.29V236.53H173.908V234.2H174.768V241H173.908V237.29H172.318ZM174.968 243.15H169.168V240.48H170.038V242.4H174.968V243.15ZM171.048 237.27C171.175 237.437 171.321 237.6 171.488 237.76C171.661 237.913 171.841 238.06 172.028 238.2C172.215 238.34 172.405 238.47 172.598 238.59C172.791 238.71 172.978 238.813 173.158 238.9L172.608 239.54C172.241 239.34 171.878 239.097 171.518 238.81C171.165 238.517 170.845 238.2 170.558 237.86C170.171 238.267 169.741 238.627 169.268 238.94C168.795 239.253 168.298 239.527 167.778 239.76L167.228 239.12C167.768 238.9 168.251 238.647 168.678 238.36C169.111 238.073 169.485 237.773 169.798 237.46C170.111 237.14 170.365 236.813 170.558 236.48C170.751 236.14 170.885 235.807 170.958 235.48C170.585 235.493 170.215 235.503 169.848 235.51C169.488 235.51 169.125 235.51 168.758 235.51H167.828V234.77H169.398C169.825 234.77 170.255 234.77 170.688 234.77C171.121 234.77 171.575 234.763 172.048 234.75C171.988 235.237 171.871 235.69 171.698 236.11C171.525 236.523 171.308 236.91 171.048 237.27ZM183.45 237.13V236.37H185.06V234.2H185.92V239.78H185.06V237.13H183.45ZM186 241.64C186 241.893 185.937 242.127 185.81 242.34C185.684 242.56 185.494 242.747 185.24 242.9C184.987 243.06 184.67 243.183 184.29 243.27C183.91 243.363 183.47 243.41 182.97 243.41C182.47 243.41 182.03 243.363 181.65 243.27C181.277 243.183 180.964 243.06 180.71 242.9C180.457 242.74 180.267 242.55 180.14 242.33C180.014 242.117 179.95 241.883 179.95 241.63C179.95 241.377 180.014 241.143 180.14 240.93C180.267 240.71 180.457 240.52 180.71 240.36C180.964 240.2 181.277 240.077 181.65 239.99C182.03 239.897 182.47 239.85 182.97 239.85C183.47 239.85 183.91 239.897 184.29 239.99C184.67 240.077 184.987 240.2 185.24 240.36C185.494 240.52 185.684 240.71 185.81 240.93C185.937 241.15 186 241.387 186 241.64ZM185.1 241.64C185.1 241.5 185.057 241.367 184.97 241.24C184.89 241.113 184.76 241 184.58 240.9C184.407 240.8 184.184 240.72 183.91 240.66C183.644 240.6 183.327 240.57 182.96 240.57C182.6 240.57 182.287 240.6 182.02 240.66C181.754 240.72 181.53 240.8 181.35 240.9C181.177 241 181.047 241.113 180.96 241.24C180.88 241.367 180.84 241.5 180.84 241.64C180.84 241.773 180.88 241.903 180.96 242.03C181.047 242.157 181.177 242.267 181.35 242.36C181.53 242.46 181.754 242.537 182.02 242.59C182.287 242.65 182.6 242.68 182.96 242.68C183.327 242.68 183.644 242.65 183.91 242.59C184.184 242.537 184.407 242.46 184.58 242.36C184.76 242.267 184.89 242.157 184.97 242.03C185.057 241.903 185.1 241.773 185.1 241.64ZM182.09 237.01C182.217 237.17 182.367 237.327 182.54 237.48C182.714 237.627 182.894 237.767 183.08 237.9C183.267 238.033 183.457 238.157 183.65 238.27C183.85 238.377 184.04 238.473 184.22 238.56L183.69 239.19C183.31 238.997 182.937 238.763 182.57 238.49C182.21 238.217 181.88 237.917 181.58 237.59C181.167 238.01 180.72 238.373 180.24 238.68C179.76 238.98 179.31 239.207 178.89 239.36L178.32 238.74C178.76 238.587 179.184 238.387 179.59 238.14C180.004 237.893 180.377 237.62 180.71 237.32C181.044 237.013 181.327 236.69 181.56 236.35C181.794 236.003 181.957 235.66 182.05 235.32C181.704 235.333 181.35 235.343 180.99 235.35C180.63 235.35 180.27 235.35 179.91 235.35H178.98V234.61H180.52C180.94 234.61 181.364 234.61 181.79 234.61C182.217 234.61 182.664 234.603 183.13 234.59C183.084 235.043 182.967 235.473 182.78 235.88C182.6 236.28 182.37 236.657 182.09 237.01ZM187.696 239.59L187.096 239.03C188.856 238.01 189.683 236.497 189.576 234.49H190.466C190.473 234.803 190.46 235.103 190.426 235.39C190.393 235.67 190.34 235.947 190.266 236.22C190.566 236.8 190.913 237.283 191.306 237.67C191.7 238.057 192.17 238.4 192.716 238.7L192.176 239.32C191.703 239.053 191.276 238.737 190.896 238.37C190.516 237.997 190.2 237.587 189.946 237.14C189.706 237.667 189.396 238.137 189.016 238.55C188.636 238.957 188.196 239.303 187.696 239.59ZM195.846 237.56H194.406V240.8H193.546V234.2H194.406V236.8H195.846V237.56ZM194.606 243.15H188.906V240.35H189.776V242.4H194.606V243.15ZM202.892 234.2H203.752V243.33H202.892V234.2ZM196.312 240.74C196.899 240.447 197.416 240.113 197.862 239.74C198.316 239.367 198.699 238.963 199.012 238.53C199.326 238.097 199.576 237.643 199.762 237.17C199.956 236.69 200.086 236.2 200.152 235.7C199.746 235.713 199.342 235.723 198.942 235.73C198.542 235.73 198.142 235.73 197.742 235.73H196.682V234.99H198.282C198.749 234.99 199.216 234.99 199.682 234.99C200.149 234.99 200.619 234.983 201.092 234.97C200.999 236.343 200.612 237.573 199.932 238.66C199.259 239.74 198.246 240.643 196.892 241.37L196.312 240.74Z" fill="black"/>
<path d="M112.121 61.23C112.048 61.3033 112.011 61.29 112.011 61.19V60.44C112.291 60.22 112.598 60.0333 112.931 59.88C113.264 59.7267 113.654 59.65 114.101 59.65C114.828 59.65 115.378 59.8167 115.751 60.15C116.131 60.4767 116.321 60.98 116.321 61.66C116.321 61.8867 116.284 62.1033 116.211 62.31C116.138 62.5167 116.034 62.7267 115.901 62.94C115.774 63.1467 115.618 63.3633 115.431 63.59C115.251 63.8167 115.051 64.0633 114.831 64.33L112.791 66.65V66.66H116.431V67.36H111.761V66.61L114.091 63.99C114.351 63.6567 114.568 63.38 114.741 63.16C114.914 62.9333 115.051 62.7367 115.151 62.57C115.258 62.3967 115.331 62.24 115.371 62.1C115.418 61.96 115.441 61.8067 115.441 61.64C115.441 61.2333 115.334 60.9167 115.121 60.69C114.914 60.4633 114.581 60.35 114.121 60.35C113.801 60.35 113.474 60.4267 113.141 60.58C112.808 60.7267 112.468 60.9433 112.121 61.23ZM122.401 62.29V61.53H123.991V59.2H124.851V66H123.991V62.29H122.401ZM125.051 68.15H119.251V65.48H120.121V67.4H125.051V68.15ZM121.131 62.27C121.258 62.4367 121.404 62.6 121.571 62.76C121.744 62.9133 121.924 63.06 122.111 63.2C122.298 63.34 122.488 63.47 122.681 63.59C122.874 63.71 123.061 63.8133 123.241 63.9L122.691 64.54C122.324 64.34 121.961 64.0967 121.601 63.81C121.248 63.5167 120.928 63.2 120.641 62.86C120.254 63.2667 119.824 63.6267 119.351 63.94C118.878 64.2533 118.381 64.5267 117.861 64.76L117.311 64.12C117.851 63.9 118.334 63.6467 118.761 63.36C119.194 63.0733 119.568 62.7733 119.881 62.46C120.194 62.14 120.448 61.8133 120.641 61.48C120.834 61.14 120.968 60.8067 121.041 60.48C120.668 60.4933 120.298 60.5033 119.931 60.51C119.571 60.51 119.208 60.51 118.841 60.51H117.911V59.77H119.481C119.908 59.77 120.338 59.77 120.771 59.77C121.204 59.77 121.658 59.7633 122.131 59.75C122.071 60.2367 121.954 60.69 121.781 61.11C121.608 61.5233 121.391 61.91 121.131 62.27ZM132.907 59.2H133.767V68.33H132.907V59.2ZM126.587 66.33L125.967 65.78C126.374 65.4867 126.75 65.15 127.097 64.77C127.444 64.39 127.737 63.9567 127.977 63.47C128.217 62.9767 128.394 62.4233 128.507 61.81C128.627 61.1967 128.66 60.5133 128.607 59.76H129.517C129.53 60.2 129.517 60.6167 129.477 61.01C129.437 61.4033 129.38 61.78 129.307 62.14C129.547 62.8267 129.887 63.4567 130.327 64.03C130.767 64.5967 131.29 65.0833 131.897 65.49L131.337 66.13C130.837 65.7767 130.387 65.36 129.987 64.88C129.594 64.3933 129.257 63.8467 128.977 63.24C128.724 63.8933 128.394 64.4767 127.987 64.99C127.587 65.4967 127.12 65.9433 126.587 66.33ZM138.513 59.38C138.526 59.64 138.516 59.89 138.483 60.13C138.456 60.37 138.416 60.5967 138.363 60.81C138.596 61.23 138.913 61.63 139.313 62.01C139.72 62.3833 140.22 62.6967 140.813 62.95L140.273 63.56C139.773 63.34 139.34 63.07 138.973 62.75C138.613 62.43 138.296 62.07 138.023 61.67C137.77 62.1433 137.44 62.5567 137.033 62.91C136.633 63.2567 136.183 63.56 135.683 63.82L135.083 63.24C135.496 63.02 135.866 62.7867 136.193 62.54C136.52 62.2867 136.793 62.0067 137.013 61.7C137.24 61.3867 137.403 61.04 137.503 60.66C137.61 60.28 137.65 59.8533 137.623 59.38H138.513ZM141.823 59.2H142.683V63.82H141.823V59.2ZM142.883 68.23H136.943V65.91H141.833V65.08H136.943V64.34H142.683V66.64H137.793V67.49H142.883V68.23Z" fill="white"/>
<path d="M169.749 21.05C169.749 21.4433 169.679 21.7933 169.539 22.1C169.405 22.4 169.212 22.6533 168.959 22.86C168.705 23.0667 168.399 23.2233 168.039 23.33C167.685 23.4367 167.289 23.49 166.849 23.49H165.909V26.36H165.029V18.79H166.889C167.289 18.79 167.662 18.8333 168.009 18.92C168.355 19.0067 168.659 19.1433 168.919 19.33C169.179 19.51 169.382 19.7433 169.529 20.03C169.675 20.3167 169.749 20.6567 169.749 21.05ZM168.829 21.07C168.829 20.7567 168.772 20.5 168.659 20.3C168.545 20.1 168.395 19.9433 168.209 19.83C168.029 19.7167 167.819 19.64 167.579 19.6C167.339 19.5533 167.089 19.53 166.829 19.53H165.899V22.77H166.679C166.979 22.77 167.259 22.7433 167.519 22.69C167.785 22.6367 168.015 22.5467 168.209 22.42C168.402 22.2867 168.552 22.11 168.659 21.89C168.772 21.67 168.829 21.3967 168.829 21.07ZM172.908 26.45C172.461 26.4433 172.031 26.3733 171.618 26.24C171.211 26.1067 170.881 25.92 170.628 25.68V24.96C170.628 24.9133 170.638 24.8867 170.658 24.88C170.685 24.8667 170.715 24.8767 170.748 24.91C171.108 25.21 171.461 25.4267 171.808 25.56C172.161 25.6867 172.535 25.75 172.928 25.75C173.148 25.75 173.351 25.7167 173.538 25.65C173.725 25.5767 173.888 25.4767 174.028 25.35C174.168 25.2167 174.278 25.0633 174.358 24.89C174.438 24.7167 174.478 24.5233 174.478 24.31C174.478 23.2767 173.858 22.76 172.618 22.76H172.348V22.05H172.468C172.708 22.0433 172.938 22.02 173.158 21.98C173.378 21.9333 173.571 21.86 173.738 21.76C173.905 21.6533 174.038 21.51 174.138 21.33C174.238 21.15 174.288 20.9167 174.288 20.63C174.288 20.1833 174.155 19.8567 173.888 19.65C173.628 19.4433 173.298 19.34 172.898 19.34C172.578 19.34 172.248 19.4033 171.908 19.53C171.568 19.6567 171.251 19.85 170.958 20.11C170.931 20.13 170.905 20.1367 170.878 20.13C170.858 20.1233 170.848 20.1 170.848 20.06V19.32C170.948 19.2333 171.068 19.15 171.208 19.07C171.348 18.99 171.505 18.92 171.678 18.86C171.851 18.7933 172.038 18.74 172.238 18.7C172.445 18.66 172.658 18.64 172.878 18.64C173.211 18.64 173.518 18.68 173.798 18.76C174.085 18.84 174.328 18.9633 174.528 19.13C174.735 19.29 174.895 19.4933 175.008 19.74C175.121 19.98 175.178 20.26 175.178 20.58C175.178 20.8133 175.145 21.03 175.078 21.23C175.011 21.4233 174.918 21.6 174.798 21.76C174.678 21.9133 174.535 22.0433 174.368 22.15C174.201 22.2567 174.018 22.33 173.818 22.37V22.39C174.298 22.4967 174.675 22.7 174.948 23C175.221 23.2933 175.358 23.72 175.358 24.28C175.358 24.56 175.305 24.8333 175.198 25.1C175.098 25.36 174.945 25.59 174.738 25.79C174.531 25.99 174.275 26.15 173.968 26.27C173.668 26.39 173.315 26.45 172.908 26.45ZM178.284 20.3V19.58H183.704V20.3H178.284ZM179.454 18.99V18.27H182.544V18.99H179.454ZM180.984 24.08C180.604 24.08 180.274 24.0367 179.994 23.95C179.714 23.8567 179.481 23.7333 179.294 23.58C179.114 23.4267 178.978 23.25 178.884 23.05C178.798 22.85 178.754 22.64 178.754 22.42C178.754 22.2 178.798 21.9933 178.884 21.8C178.978 21.6 179.114 21.4233 179.294 21.27C179.481 21.1167 179.714 20.9967 179.994 20.91C180.274 20.8167 180.604 20.77 180.984 20.77C181.364 20.77 181.694 20.8167 181.974 20.91C182.254 20.9967 182.484 21.1167 182.664 21.27C182.851 21.4233 182.988 21.6 183.074 21.8C183.168 21.9933 183.214 22.2 183.214 22.42C183.214 22.64 183.168 22.85 183.074 23.05C182.988 23.25 182.851 23.4267 182.664 23.58C182.484 23.7333 182.254 23.8567 181.974 23.95C181.694 24.0367 181.364 24.08 180.984 24.08ZM180.984 23.38C181.231 23.38 181.441 23.3533 181.614 23.3C181.788 23.2467 181.928 23.1767 182.034 23.09C182.148 22.9967 182.228 22.8933 182.274 22.78C182.328 22.66 182.354 22.54 182.354 22.42C182.354 22.3 182.328 22.1833 182.274 22.07C182.228 21.9567 182.148 21.8567 182.034 21.77C181.928 21.6767 181.788 21.6033 181.614 21.55C181.441 21.49 181.231 21.46 180.984 21.46C180.738 21.46 180.528 21.49 180.354 21.55C180.181 21.6033 180.038 21.6767 179.924 21.77C179.818 21.8567 179.738 21.9567 179.684 22.07C179.638 22.1833 179.614 22.3 179.614 22.42C179.614 22.54 179.638 22.66 179.684 22.78C179.738 22.8933 179.818 22.9967 179.924 23.09C180.038 23.1767 180.181 23.2467 180.354 23.3C180.528 23.3533 180.738 23.38 180.984 23.38ZM186.924 22.09H185.484V25.25H184.624V18.2H185.484V21.33H186.924V22.09ZM185.684 27.15H179.884V24.96H180.754V26.4H185.684V27.15ZM187.261 24.74C187.847 24.4467 188.364 24.1133 188.811 23.74C189.257 23.3667 189.634 22.9633 189.941 22.53C190.254 22.0967 190.504 21.6433 190.691 21.17C190.877 20.69 191.004 20.2 191.071 19.7C190.664 19.7133 190.261 19.7233 189.861 19.73C189.461 19.73 189.061 19.73 188.661 19.73H187.631V18.99H189.201C189.667 18.99 190.134 18.99 190.601 18.99C191.067 18.99 191.537 18.9833 192.011 18.97C191.917 20.3433 191.537 21.5733 190.871 22.66C190.204 23.74 189.194 24.6433 187.841 25.37L187.261 24.74ZM195.921 22.49H194.351V27.33H193.491V18.2H194.351V21.73H195.921V22.49ZM197.417 22.43H198.467C199.247 22.43 199.923 22.3933 200.497 22.32C201.07 22.2467 201.567 22.16 201.987 22.06V22.78C201.5 22.9 200.947 22.9933 200.327 23.06C199.713 23.1267 199.053 23.16 198.347 23.16H196.547V20.43H199.687V19.25H196.527V18.53H200.547V21.11H197.417V22.43ZM204.757 21.01H203.317V23.5H202.457V18.2H203.317V20.25H204.757V21.01ZM203.317 27.19H197.717V24.02H203.317V27.19ZM202.457 24.78H198.577V26.44H202.457V24.78ZM214.039 18.2H214.899V27.33H214.039V18.2ZM211.959 24.82H207.879V18.98H211.959V24.82ZM211.109 24.09V19.7H208.759V24.09H211.109ZM220.845 19.16C220.985 19.34 221.175 19.51 221.415 19.67C221.662 19.8233 221.932 19.9633 222.225 20.09C222.525 20.2167 222.838 20.3233 223.165 20.41C223.492 20.4967 223.808 20.56 224.115 20.6L223.675 21.28C223.015 21.1667 222.398 20.9733 221.825 20.7C221.258 20.42 220.785 20.1 220.405 19.74C220.212 19.94 219.988 20.1267 219.735 20.3C219.488 20.4733 219.225 20.63 218.945 20.77C218.665 20.91 218.378 21.03 218.085 21.13C217.792 21.23 217.502 21.3033 217.215 21.35L216.785 20.69C217.258 20.61 217.702 20.4933 218.115 20.34C218.528 20.18 218.888 19.9933 219.195 19.78C219.502 19.56 219.742 19.3167 219.915 19.05C220.088 18.7833 220.172 18.5 220.165 18.2H221.085C221.098 18.3667 221.082 18.53 221.035 18.69C220.995 18.85 220.932 19.0067 220.845 19.16ZM220.005 23.59V22.61H216.115V21.9H224.815V22.61H220.895V23.59H223.415V25.79H218.365V26.62H223.655V27.33H217.515V25.11H222.565V24.3H217.515V23.59H220.005ZM230.321 18.67C230.314 18.93 230.301 19.2067 230.281 19.5C230.268 19.7933 230.248 20.09 230.221 20.39C230.194 20.6833 230.161 20.9733 230.121 21.26C230.081 21.54 230.038 21.7967 229.991 22.03H229.151C229.238 21.61 229.308 21.1767 229.361 20.73C229.414 20.2767 229.448 19.8333 229.461 19.4H225.801V18.67H230.321ZM231.561 25.19V18.2H232.421V21.32H233.741V22.08H232.421V25.19H231.561ZM227.951 20.83V22.82C228.504 22.8 229.061 22.7733 229.621 22.74C230.181 22.7 230.681 22.65 231.121 22.59V23.3C230.801 23.3467 230.448 23.3867 230.061 23.42C229.681 23.4533 229.288 23.4833 228.881 23.51C228.481 23.53 228.081 23.5467 227.681 23.56C227.281 23.5733 226.904 23.58 226.551 23.58H225.071V22.84H227.081V20.83H227.951ZM232.571 27.15H226.621V24.58H227.491V26.4H232.571V27.15ZM236.283 23.27H244.783V24.02H241.043V27.28H240.163V24.02H236.283V23.27ZM243.083 18.79C242.917 19.1633 242.69 19.51 242.403 19.83C242.123 20.1433 241.79 20.44 241.403 20.72C241.823 20.9267 242.277 21.1133 242.763 21.28C243.25 21.4467 243.763 21.5867 244.303 21.7L243.873 22.43C243.287 22.2833 242.727 22.1067 242.193 21.9C241.667 21.6933 241.163 21.45 240.683 21.17C240.19 21.45 239.653 21.7 239.073 21.92C238.493 22.1333 237.88 22.32 237.233 22.48L236.813 21.76C237.447 21.6267 238.03 21.4667 238.563 21.28C239.097 21.0867 239.573 20.88 239.993 20.66C240.413 20.44 240.777 20.2133 241.083 19.98C241.39 19.74 241.63 19.5 241.803 19.26C241.423 19.28 241.05 19.2933 240.683 19.3C240.317 19.3 239.947 19.3 239.573 19.3H237.693V18.56H240.273C240.707 18.56 241.14 18.56 241.573 18.56C242.013 18.56 242.47 18.5533 242.943 18.54C243.017 18.5333 243.067 18.56 243.093 18.62C243.12 18.68 243.117 18.7367 243.083 18.79ZM253.889 22.48H252.319V27.33H251.459V18.2H252.319V21.72H253.889V22.48ZM246.329 19.28V18.52H249.139V19.28H246.329ZM248.839 22.65C249.119 23.07 249.433 23.4367 249.779 23.75C250.133 24.0633 250.503 24.3567 250.889 24.63L250.259 25.29C249.893 24.9967 249.546 24.6933 249.219 24.38C248.899 24.0667 248.606 23.72 248.339 23.34C247.953 23.8133 247.523 24.2367 247.049 24.61C246.576 24.9833 246.089 25.3033 245.589 25.57L244.999 24.96C245.459 24.74 245.896 24.47 246.309 24.15C246.729 23.83 247.106 23.4833 247.439 23.11C247.779 22.7367 248.063 22.35 248.289 21.95C248.523 21.5433 248.679 21.15 248.759 20.77C248.386 20.7833 248.016 20.7933 247.649 20.8C247.283 20.8 246.913 20.8 246.539 20.8H245.489V20.06H247.109C247.543 20.06 247.976 20.06 248.409 20.06C248.849 20.06 249.306 20.0533 249.779 20.04C249.733 20.52 249.626 20.9767 249.459 21.41C249.299 21.8433 249.093 22.2567 248.839 22.65ZM258.095 20.86C258.349 21.18 258.655 21.4767 259.015 21.75C259.382 22.0233 259.732 22.25 260.065 22.43L259.505 23.06C259.165 22.86 258.832 22.6233 258.505 22.35C258.179 22.0767 257.879 21.7767 257.605 21.45C257.385 21.69 257.149 21.9167 256.895 22.13C256.642 22.3367 256.389 22.5233 256.135 22.69C255.882 22.8567 255.629 23.0067 255.375 23.14C255.129 23.2667 254.895 23.37 254.675 23.45L254.115 22.82C254.562 22.66 254.992 22.4533 255.405 22.2C255.819 21.9467 256.192 21.6667 256.525 21.36C256.859 21.0533 257.145 20.7267 257.385 20.38C257.625 20.0333 257.792 19.68 257.885 19.32C257.512 19.3333 257.142 19.3433 256.775 19.35C256.415 19.35 256.052 19.35 255.685 19.35H254.665V18.61H256.325C256.752 18.61 257.182 18.61 257.615 18.61C258.055 18.61 258.509 18.6033 258.975 18.59C258.942 19.01 258.845 19.41 258.685 19.79C258.532 20.1633 258.335 20.52 258.095 20.86ZM262.725 21.18H261.285V23.76H260.425V18.2H261.285V20.42H262.725V21.18ZM261.385 25.61C261.385 25.87 261.322 26.11 261.195 26.33C261.075 26.55 260.889 26.74 260.635 26.9C260.389 27.06 260.079 27.1833 259.705 27.27C259.339 27.3633 258.912 27.41 258.425 27.41C257.932 27.41 257.502 27.3633 257.135 27.27C256.769 27.1833 256.459 27.06 256.205 26.9C255.959 26.74 255.772 26.55 255.645 26.33C255.525 26.11 255.465 25.87 255.465 25.61C255.465 25.09 255.712 24.6667 256.205 24.34C256.699 24.0133 257.439 23.85 258.425 23.85C259.412 23.85 260.152 24.0133 260.645 24.34C261.139 24.6667 261.385 25.09 261.385 25.61ZM260.485 25.63C260.485 25.4833 260.445 25.3467 260.365 25.22C260.285 25.0933 260.159 24.9833 259.985 24.89C259.819 24.7967 259.605 24.7233 259.345 24.67C259.092 24.6167 258.785 24.59 258.425 24.59C257.719 24.59 257.195 24.69 256.855 24.89C256.522 25.09 256.355 25.3367 256.355 25.63C256.355 25.9233 256.522 26.17 256.855 26.37C257.195 26.57 257.719 26.67 258.425 26.67C259.139 26.67 259.659 26.57 259.985 26.37C260.319 26.17 260.485 25.9233 260.485 25.63Z" fill="black"/>
<path d="M97.222 124.3V123.58H102.642V124.3H97.222ZM98.392 122.99V122.27H101.482V122.99H98.392ZM99.922 128.08C99.542 128.08 99.212 128.037 98.932 127.95C98.652 127.857 98.4187 127.733 98.232 127.58C98.052 127.427 97.9153 127.25 97.822 127.05C97.7353 126.85 97.692 126.64 97.692 126.42C97.692 126.2 97.7353 125.993 97.822 125.8C97.9153 125.6 98.052 125.423 98.232 125.27C98.4187 125.117 98.652 124.997 98.932 124.91C99.212 124.817 99.542 124.77 99.922 124.77C100.302 124.77 100.632 124.817 100.912 124.91C101.192 124.997 101.422 125.117 101.602 125.27C101.789 125.423 101.925 125.6 102.012 125.8C102.105 125.993 102.152 126.2 102.152 126.42C102.152 126.64 102.105 126.85 102.012 127.05C101.925 127.25 101.789 127.427 101.602 127.58C101.422 127.733 101.192 127.857 100.912 127.95C100.632 128.037 100.302 128.08 99.922 128.08ZM99.922 127.38C100.169 127.38 100.379 127.353 100.552 127.3C100.725 127.247 100.865 127.177 100.972 127.09C101.085 126.997 101.165 126.893 101.212 126.78C101.265 126.66 101.292 126.54 101.292 126.42C101.292 126.3 101.265 126.183 101.212 126.07C101.165 125.957 101.085 125.857 100.972 125.77C100.865 125.677 100.725 125.603 100.552 125.55C100.379 125.49 100.169 125.46 99.922 125.46C99.6753 125.46 99.4653 125.49 99.292 125.55C99.1187 125.603 98.9753 125.677 98.862 125.77C98.7553 125.857 98.6753 125.957 98.622 126.07C98.5753 126.183 98.552 126.3 98.552 126.42C98.552 126.54 98.5753 126.66 98.622 126.78C98.6753 126.893 98.7553 126.997 98.862 127.09C98.9753 127.177 99.1187 127.247 99.292 127.3C99.4653 127.353 99.6753 127.38 99.922 127.38ZM105.862 126.09H104.422V129.25H103.562V122.2H104.422V125.33H105.862V126.09ZM104.622 131.15H98.822V128.96H99.692V130.4H104.622V131.15ZM97.282 139.74C97.8687 139.447 98.3853 139.113 98.832 138.74C99.2787 138.367 99.6553 137.963 99.962 137.53C100.275 137.097 100.525 136.643 100.712 136.17C100.899 135.69 101.025 135.2 101.092 134.7C100.685 134.713 100.282 134.723 99.882 134.73C99.482 134.73 99.082 134.73 98.682 134.73H97.652V133.99H99.222C99.6887 133.99 100.155 133.99 100.622 133.99C101.089 133.99 101.559 133.983 102.032 133.97C101.939 135.343 101.559 136.573 100.892 137.66C100.225 138.74 99.2153 139.643 97.862 140.37L97.282 139.74ZM105.942 137.49H104.372V142.33H103.512V133.2H104.372V136.73H105.942V137.49ZM98.522 148.43H99.572C100.352 148.43 101.029 148.393 101.602 148.32C102.175 148.247 102.672 148.16 103.092 148.06V148.78C102.605 148.9 102.052 148.993 101.432 149.06C100.819 149.127 100.159 149.16 99.452 149.16H97.652V146.43H100.792V145.25H97.632V144.53H101.652V147.11H98.522V148.43ZM105.862 147.01H104.422V149.5H103.562V144.2H104.422V146.25H105.862V147.01ZM104.422 153.19H98.822V150.02H104.422V153.19ZM103.562 150.78H99.682V152.44H103.562V150.78ZM103.992 155.2H104.852V164.33H103.992V155.2ZM97.812 161.84V155.89H98.692V158.15H101.222V155.89H102.072V161.84H97.812ZM101.232 158.88H98.682V161.11H101.232V158.88ZM101.882 167.16C102.022 167.34 102.212 167.51 102.452 167.67C102.699 167.823 102.969 167.963 103.262 168.09C103.562 168.217 103.875 168.323 104.202 168.41C104.529 168.497 104.845 168.56 105.152 168.6L104.712 169.28C104.052 169.167 103.435 168.973 102.862 168.7C102.295 168.42 101.822 168.1 101.442 167.74C101.249 167.94 101.025 168.127 100.772 168.3C100.525 168.473 100.262 168.63 99.982 168.77C99.702 168.91 99.4153 169.03 99.122 169.13C98.8287 169.23 98.5387 169.303 98.252 169.35L97.822 168.69C98.2953 168.61 98.7387 168.493 99.152 168.34C99.5653 168.18 99.9253 167.993 100.232 167.78C100.539 167.56 100.779 167.317 100.952 167.05C101.125 166.783 101.209 166.5 101.202 166.2H102.122C102.135 166.367 102.119 166.53 102.072 166.69C102.032 166.85 101.969 167.007 101.882 167.16ZM101.042 171.59V170.61H97.152V169.9H105.852V170.61H101.932V171.59H104.452V173.79H99.402V174.62H104.692V175.33H98.552V173.11H103.602V172.3H98.552V171.59H101.042ZM102.442 177.67C102.435 177.93 102.422 178.207 102.402 178.5C102.389 178.793 102.369 179.09 102.342 179.39C102.315 179.683 102.282 179.973 102.242 180.26C102.202 180.54 102.159 180.797 102.112 181.03H101.272C101.359 180.61 101.429 180.177 101.482 179.73C101.535 179.277 101.569 178.833 101.582 178.4H97.922V177.67H102.442ZM103.682 184.19V177.2H104.542V180.32H105.862V181.08H104.542V184.19H103.682ZM100.072 179.83V181.82C100.625 181.8 101.182 181.773 101.742 181.74C102.302 181.7 102.802 181.65 103.242 181.59V182.3C102.922 182.347 102.569 182.387 102.182 182.42C101.802 182.453 101.409 182.483 101.002 182.51C100.602 182.53 100.202 182.547 99.802 182.56C99.402 182.573 99.0253 182.58 98.672 182.58H97.192V181.84H99.202V179.83H100.072ZM104.692 186.15H98.742V183.58H99.612V185.4H104.692V186.15ZM98.652 204.68V201.92H103.502V200.6H98.642V199.85H104.362V202.63H99.512V203.95H104.662V204.68H101.952V206.31H105.752V207.04H97.252V206.31H101.052V204.68H98.652ZM103.992 210.2H104.852V219.33H103.992V210.2ZM97.812 216.84V210.89H98.692V213.15H101.222V210.89H102.072V216.84H97.812ZM101.232 213.88H98.682V216.11H101.232V213.88Z" fill="black"/>
<path d="M39.4309 143.46V142.84C39.7043 142.72 39.9609 142.573 40.2009 142.4C40.4476 142.22 40.6743 142.013 40.8809 141.78H41.7809V149.36H40.9209V142.72H40.9109C40.6843 142.9 40.4543 143.057 40.2209 143.19C39.9943 143.317 39.7643 143.423 39.5309 143.51C39.4643 143.537 39.4309 143.52 39.4309 143.46ZM49.401 144.29V143.53H50.991V141.2H51.851V148H50.991V144.29H49.401ZM52.051 150.15H46.251V147.48H47.121V149.4H52.051V150.15ZM48.131 144.27C48.2577 144.437 48.4043 144.6 48.571 144.76C48.7443 144.913 48.9243 145.06 49.111 145.2C49.2977 145.34 49.4877 145.47 49.681 145.59C49.8743 145.71 50.061 145.813 50.241 145.9L49.691 146.54C49.3243 146.34 48.961 146.097 48.601 145.81C48.2477 145.517 47.9277 145.2 47.641 144.86C47.2543 145.267 46.8243 145.627 46.351 145.94C45.8777 146.253 45.381 146.527 44.861 146.76L44.311 146.12C44.851 145.9 45.3343 145.647 45.761 145.36C46.1943 145.073 46.5677 144.773 46.881 144.46C47.1943 144.14 47.4477 143.813 47.641 143.48C47.8343 143.14 47.9677 142.807 48.041 142.48C47.6677 142.493 47.2977 142.503 46.931 142.51C46.571 142.51 46.2077 142.51 45.841 142.51H44.911V141.77H46.481C46.9077 141.77 47.3377 141.77 47.771 141.77C48.2043 141.77 48.6577 141.763 49.131 141.75C49.071 142.237 48.9543 142.69 48.781 143.11C48.6077 143.523 48.391 143.91 48.131 144.27ZM59.907 141.2H60.767V150.33H59.907V141.2ZM53.587 148.33L52.967 147.78C53.3737 147.487 53.7504 147.15 54.097 146.77C54.4437 146.39 54.737 145.957 54.977 145.47C55.217 144.977 55.3937 144.423 55.507 143.81C55.627 143.197 55.6604 142.513 55.607 141.76H56.517C56.5304 142.2 56.517 142.617 56.477 143.01C56.437 143.403 56.3804 143.78 56.307 144.14C56.547 144.827 56.887 145.457 57.327 146.03C57.767 146.597 58.2904 147.083 58.897 147.49L58.337 148.13C57.837 147.777 57.387 147.36 56.987 146.88C56.5937 146.393 56.257 145.847 55.977 145.24C55.7237 145.893 55.3937 146.477 54.987 146.99C54.587 147.497 54.1204 147.943 53.587 148.33ZM65.513 141.38C65.5264 141.64 65.5164 141.89 65.483 142.13C65.4564 142.37 65.4164 142.597 65.363 142.81C65.5964 143.23 65.913 143.63 66.313 144.01C66.7197 144.383 67.2197 144.697 67.813 144.95L67.273 145.56C66.773 145.34 66.3397 145.07 65.973 144.75C65.613 144.43 65.2964 144.07 65.023 143.67C64.7697 144.143 64.4397 144.557 64.033 144.91C63.633 145.257 63.183 145.56 62.683 145.82L62.083 145.24C62.4964 145.02 62.8664 144.787 63.193 144.54C63.5197 144.287 63.793 144.007 64.013 143.7C64.2397 143.387 64.403 143.04 64.503 142.66C64.6097 142.28 64.6497 141.853 64.623 141.38H65.513ZM68.823 141.2H69.683V145.82H68.823V141.2ZM69.883 150.23H63.943V147.91H68.833V147.08H63.943V146.34H69.683V148.64H64.793V149.49H69.883V150.23Z" fill="white"/>
<rect x="24" y="215" width="31" height="31" fill="#D9D9D9"/>
<g clip-path="url(#clip0_597_1750)">
<path d="M153 27H147V19H142.16L150 11.16L157.84 19H153V27Z" fill="black"/>
</g>
<path d="M122.917 134.5H124.292L126.375 130.75H127.083C127.257 130.75 127.405 130.689 127.526 130.568C127.648 130.447 127.709 130.299 127.708 130.125C127.708 129.951 127.647 129.804 127.526 129.683C127.405 129.561 127.258 129.501 127.083 129.5H125.708L123.625 133.25H122.917C122.743 133.25 122.596 133.311 122.474 133.433C122.353 133.554 122.292 133.702 122.292 133.875C122.291 134.048 122.352 134.196 122.474 134.318C122.596 134.44 122.744 134.501 122.917 134.5ZM122.083 135.75C121.854 135.75 121.658 135.668 121.495 135.505C121.332 135.342 121.25 135.146 121.25 134.917V129.083C121.25 128.854 121.332 128.658 121.495 128.495C121.658 128.332 121.854 128.25 122.083 128.25H127.917C128.146 128.25 128.342 128.332 128.505 128.495C128.669 128.658 128.75 128.854 128.75 129.083V134.917C128.75 135.146 128.668 135.342 128.505 135.505C128.342 135.669 128.146 135.75 127.917 135.75H122.083Z" fill="black"/>
<g clip-path="url(#clip1_597_1750)">
<path d="M34.5999 228.5C35.3169 228.5 35.8999 227.939 35.8999 227.25C35.8999 226.561 35.3169 226 34.5999 226C33.8829 226 33.2999 226.561 33.2999 227.25C33.2999 227.939 33.8829 228.5 34.5999 228.5ZM42.3999 228.5C43.1169 228.5 43.6999 227.939 43.6999 227.25C43.6999 226.561 43.1169 226 42.3999 226C41.6829 226 41.0999 226.561 41.0999 227.25C41.0999 227.939 41.6829 228.5 42.3999 228.5ZM44.9857 232.924L44.0594 229.295C43.9924 229.031 43.7446 228.846 43.4541 228.822C43.1494 229.012 42.7879 229.125 42.3979 229.125C42.0079 229.125 41.6463 229.012 41.3416 228.822C41.0512 228.846 40.8033 229.031 40.7363 229.295L39.8101 232.924C39.739 233.219 39.9827 233.5 40.3118 233.5H41.4249V235.531C41.4249 235.791 41.6422 236 41.9124 236H42.8874C43.1576 236 43.3749 235.791 43.3749 235.531V233.5H44.488C44.8171 233.5 45.0608 233.219 44.9857 232.924ZM38.8249 226H38.1749C37.9962 226 37.8499 226.141 37.8499 226.312V235.688C37.8499 235.859 37.9962 236 38.1749 236H38.8249C39.0037 236 39.1499 235.859 39.1499 235.688V226.312C39.1499 226.141 39.0037 226 38.8249 226ZM35.6582 228.82C35.3535 229.012 34.9899 229.125 34.5999 229.125C34.2099 229.125 33.8463 229.012 33.5416 228.82C33.0419 228.861 32.6499 229.26 32.6499 229.75V232.406C32.6499 232.666 32.8672 232.875 33.1374 232.875H33.2999V235.531C33.2999 235.791 33.5172 236 33.7874 236H35.4124C35.6826 236 35.8999 235.791 35.8999 235.531V232.875H36.0624C36.3326 232.875 36.5499 232.666 36.5499 232.406V229.75C36.5499 229.26 36.1579 228.861 35.6582 228.82Z" fill="black"/>
</g>
<g clip-path="url(#clip2_597_1750)">
<path d="M87.0002 236.833C89.3014 236.833 91.1668 238.699 91.1668 241C91.1668 243.301 89.3014 245.167 87.0002 245.167C84.6989 245.167 82.8335 243.301 82.8335 241C82.8335 238.699 84.6989 236.833 87.0002 236.833ZM87.0002 242.667C86.8897 242.667 86.7837 242.711 86.7055 242.789C86.6274 242.867 86.5835 242.973 86.5835 243.083C86.5835 243.194 86.6274 243.3 86.7055 243.378C86.7837 243.456 86.8897 243.5 87.0002 243.5C87.1107 243.5 87.2167 243.456 87.2948 243.378C87.3729 243.3 87.4168 243.194 87.4168 243.083C87.4168 242.973 87.3729 242.867 87.2948 242.789C87.2167 242.711 87.1107 242.667 87.0002 242.667ZM87.0002 238.708C86.5996 238.708 86.2154 238.868 85.9321 239.151C85.6489 239.434 85.4897 239.818 85.4897 240.219C85.4897 240.329 85.5336 240.435 85.6118 240.513C85.6899 240.592 85.7959 240.635 85.9064 240.635C86.0169 240.635 86.1229 240.592 86.201 240.513C86.2792 240.435 86.3231 240.329 86.3231 240.219C86.3232 240.096 86.3568 239.975 86.4202 239.87C86.4837 239.765 86.5746 239.679 86.6832 239.621C86.7918 239.564 86.914 239.537 87.0367 239.543C87.1594 239.55 87.278 239.59 87.3798 239.659C87.4816 239.728 87.5626 239.823 87.6144 239.935C87.6661 240.046 87.6865 240.17 87.6734 240.292C87.6603 240.414 87.6142 240.53 87.54 240.628C87.4658 240.726 87.3663 240.802 87.2522 240.848C86.9706 240.96 86.5835 241.249 86.5835 241.729V241.833C86.5835 241.944 86.6274 242.05 86.7055 242.128C86.7837 242.206 86.8897 242.25 87.0002 242.25C87.1107 242.25 87.2167 242.206 87.2948 242.128C87.3729 242.05 87.4168 241.944 87.4168 241.833C87.4168 241.732 87.4377 241.681 87.5256 241.638L87.5618 241.621C87.8872 241.49 88.1568 241.25 88.3246 240.942C88.4924 240.634 88.5479 240.277 88.4815 239.933C88.4151 239.589 88.2309 239.278 87.9607 239.055C87.6904 238.831 87.3508 238.709 87.0002 238.708Z" fill="black"/>
</g>
<path d="M75.7002 216.8H73.0002C72.5228 216.8 72.065 216.99 71.7274 217.327C71.3898 217.665 71.2002 218.123 71.2002 218.6V222.8C71.2002 223.277 71.3898 223.735 71.7274 224.073C72.065 224.41 72.5228 224.6 73.0002 224.6H75.7002V216.8ZM73.3878 219.288C73.4157 219.26 73.4488 219.238 73.4852 219.222C73.5217 219.207 73.5607 219.2 73.6002 219.2C73.6397 219.2 73.6787 219.207 73.7152 219.222C73.7516 219.238 73.7847 219.26 73.8126 219.288L74.7126 220.188C74.7405 220.216 74.7626 220.249 74.7777 220.285C74.7928 220.322 74.8006 220.361 74.8006 220.4C74.8006 220.439 74.7928 220.479 74.7777 220.515C74.7626 220.551 74.7405 220.585 74.7126 220.612C74.6847 220.64 74.6516 220.662 74.6151 220.678C74.5787 220.693 74.5396 220.7 74.5002 220.7C74.4607 220.7 74.4217 220.693 74.3852 220.678C74.3488 220.662 74.3157 220.64 74.2878 220.612L73.9002 220.224V221.9C73.9002 221.98 73.8686 222.056 73.8123 222.112C73.7561 222.168 73.6798 222.2 73.6002 222.2C73.5206 222.2 73.4443 222.168 73.3881 222.112C73.3318 222.056 73.3002 221.98 73.3002 221.9V220.224L72.9126 220.612C72.8847 220.64 72.8516 220.662 72.8151 220.678C72.7787 220.693 72.7396 220.7 72.7002 220.7C72.6607 220.7 72.6217 220.693 72.5852 220.678C72.5488 220.662 72.5157 220.64 72.4878 220.612C72.4599 220.585 72.4378 220.551 72.4227 220.515C72.4076 220.479 72.3998 220.439 72.3998 220.4C72.3998 220.361 72.4076 220.322 72.4227 220.285C72.4378 220.249 72.4599 220.216 72.4878 220.188L73.3878 219.288ZM76.3002 224.6H79.0002C79.4776 224.6 79.9354 224.41 80.273 224.073C80.6106 223.735 80.8002 223.277 80.8002 222.8V218.6C80.8002 218.123 80.6106 217.665 80.273 217.327C79.9354 216.99 79.4776 216.8 79.0002 216.8H76.3002V224.6ZM78.6126 222.112C78.5847 222.14 78.5516 222.163 78.5152 222.178C78.4787 222.193 78.4397 222.201 78.4002 222.201C78.3607 222.201 78.3217 222.193 78.2852 222.178C78.2488 222.163 78.2157 222.14 78.1878 222.112L77.2878 221.212C77.2315 221.156 77.1998 221.08 77.1998 221C77.1998 220.92 77.2315 220.844 77.2878 220.788C77.3441 220.731 77.4205 220.7 77.5002 220.7C77.5799 220.7 77.6563 220.731 77.7126 220.788L78.1002 221.176V219.5C78.1002 219.42 78.1318 219.344 78.1881 219.288C78.2443 219.232 78.3206 219.2 78.4002 219.2C78.4798 219.2 78.5561 219.232 78.6123 219.288C78.6686 219.344 78.7002 219.42 78.7002 219.5V221.176L79.0878 220.788C79.1441 220.731 79.2205 220.7 79.3002 220.7C79.3799 220.7 79.4563 220.731 79.5126 220.788C79.5689 220.844 79.6006 220.92 79.6006 221C79.6006 221.08 79.5689 221.156 79.5126 221.212L78.6126 222.112Z" fill="black"/>
<g clip-path="url(#clip3_597_1750)">
<path d="M112 236.833C114.301 236.833 116.167 238.699 116.167 241C116.167 242.105 115.728 243.165 114.946 243.946C114.165 244.728 113.105 245.167 112 245.167C110.895 245.167 109.835 244.728 109.054 243.946C108.272 243.165 107.833 242.105 107.833 241L107.835 240.883C107.897 238.636 109.738 236.833 112 236.833ZM112.556 238.917H111.167C111.056 238.917 110.95 238.961 110.872 239.039C110.794 239.117 110.75 239.223 110.75 239.333V242.667C110.75 242.777 110.794 242.883 110.872 242.961C110.95 243.039 111.056 243.083 111.167 243.083L111.216 243.08C111.317 243.069 111.41 243.02 111.478 242.944C111.546 242.867 111.583 242.769 111.583 242.667V241.417H112.556C113.188 241.417 113.667 240.842 113.667 240.167C113.667 239.492 113.188 238.917 112.556 238.917ZM112.556 239.75C112.691 239.75 112.833 239.921 112.833 240.167C112.833 240.412 112.691 240.583 112.556 240.583H111.583V239.75H112.556Z" fill="black"/>
</g>
<path d="M127.75 143H122.5C122.434 143 122.37 143.026 122.323 143.073C122.276 143.12 122.25 143.184 122.25 143.25V146.25C122.25 146.648 122.409 147.029 122.69 147.31C122.971 147.591 123.352 147.75 123.75 147.75H125.5C125.898 147.75 126.279 147.591 126.56 147.31C126.841 147.029 127 146.648 127 146.25V145H127.281C127.538 145 127.784 144.898 127.966 144.716C128.148 144.534 128.25 144.288 128.25 144.031V143.5C128.25 143.367 128.197 143.24 128.104 143.146C128.01 143.053 127.883 143 127.75 143ZM127.75 144.031C127.75 144.156 127.701 144.275 127.613 144.363C127.525 144.451 127.406 144.5 127.281 144.5H127V143.5H127.75V144.031ZM127.25 148.25H122C121.934 148.25 121.87 148.276 121.823 148.323C121.776 148.37 121.75 148.434 121.75 148.5C121.75 148.566 121.776 148.63 121.823 148.677C121.87 148.724 121.934 148.75 122 148.75H127.25C127.316 148.75 127.38 148.724 127.427 148.677C127.474 148.63 127.5 148.566 127.5 148.5C127.5 148.434 127.474 148.37 127.427 148.323C127.38 148.276 127.316 148.25 127.25 148.25Z" fill="black"/>
<g clip-path="url(#clip4_597_1750)">
<path d="M235 222.167C238.222 222.167 240.833 224.778 240.833 228C240.833 231.222 238.222 233.833 235 233.833C231.778 233.833 229.167 231.222 229.167 228C229.167 224.778 231.778 222.167 235 222.167ZM235 230.333C234.845 230.333 234.697 230.395 234.587 230.504C234.478 230.614 234.417 230.762 234.417 230.917C234.417 231.071 234.478 231.22 234.587 231.329C234.697 231.439 234.845 231.5 235 231.5C235.155 231.5 235.303 231.439 235.412 231.329C235.522 231.22 235.583 231.071 235.583 230.917C235.583 230.762 235.522 230.614 235.412 230.504C235.303 230.395 235.155 230.333 235 230.333ZM235 224.792C234.439 224.792 233.901 225.014 233.505 225.411C233.108 225.808 232.885 226.345 232.885 226.906C232.885 227.061 232.947 227.209 233.056 227.319C233.166 227.428 233.314 227.49 233.469 227.49C233.623 227.49 233.772 227.428 233.881 227.319C233.99 227.209 234.052 227.061 234.052 226.906C234.052 226.734 234.099 226.565 234.188 226.418C234.277 226.271 234.404 226.15 234.556 226.07C234.708 225.989 234.879 225.951 235.051 225.961C235.223 225.97 235.389 226.026 235.531 226.122C235.674 226.219 235.787 226.352 235.86 226.508C235.932 226.664 235.961 226.837 235.942 227.008C235.924 227.179 235.859 227.342 235.756 227.479C235.652 227.617 235.512 227.723 235.353 227.787C234.958 227.945 234.417 228.348 234.417 229.021V229.167C234.417 229.321 234.478 229.47 234.587 229.579C234.697 229.689 234.845 229.75 235 229.75C235.155 229.75 235.303 229.689 235.412 229.579C235.522 229.47 235.583 229.321 235.583 229.167C235.583 229.024 235.612 228.953 235.735 228.892L235.786 228.869C236.242 228.686 236.619 228.35 236.854 227.919C237.089 227.488 237.167 226.988 237.074 226.506C236.981 226.024 236.723 225.589 236.345 225.277C235.966 224.964 235.491 224.792 235 224.792Z" fill="black"/>
</g>
<path d="M239.125 242.5H231.25C231.151 242.5 231.055 242.54 230.985 242.61C230.915 242.68 230.875 242.776 230.875 242.875V247.375C230.876 247.972 231.113 248.543 231.535 248.965C231.957 249.387 232.528 249.624 233.125 249.625H235.75C236.347 249.624 236.918 249.387 237.34 248.965C237.762 248.543 237.999 247.972 238 247.375V245.5H238.422C238.807 245.5 239.176 245.346 239.449 245.074C239.721 244.801 239.875 244.432 239.875 244.047V243.25C239.875 243.051 239.796 242.86 239.655 242.72C239.515 242.579 239.324 242.5 239.125 242.5ZM239.125 244.047C239.125 244.233 239.051 244.412 238.919 244.544C238.787 244.676 238.608 244.75 238.422 244.75H238V243.25H239.125V244.047ZM238.375 250.375H230.5C230.401 250.375 230.305 250.415 230.235 250.485C230.165 250.555 230.125 250.651 230.125 250.75C230.125 250.849 230.165 250.945 230.235 251.015C230.305 251.085 230.401 251.125 230.5 251.125H238.375C238.474 251.125 238.57 251.085 238.64 251.015C238.71 250.945 238.75 250.849 238.75 250.75C238.75 250.651 238.71 250.555 238.64 250.485C238.57 250.415 238.474 250.375 238.375 250.375Z" fill="black"/>
<path d="M232.5 268H234.15L236.65 263.5H237.5C237.708 263.5 237.885 263.427 238.031 263.281C238.177 263.136 238.25 262.959 238.25 262.75C238.25 262.541 238.177 262.364 238.031 262.219C237.886 262.074 237.709 262.001 237.5 262H235.85L233.35 266.5H232.5C232.292 266.5 232.115 266.573 231.969 266.719C231.823 266.865 231.75 267.042 231.75 267.25C231.75 267.458 231.823 267.635 231.969 267.781C232.115 267.928 232.292 268.001 232.5 268ZM231.5 269.5C231.225 269.5 230.99 269.402 230.794 269.207C230.598 269.011 230.5 268.775 230.5 268.5V261.5C230.5 261.225 230.598 260.99 230.794 260.794C230.99 260.598 231.225 260.5 231.5 260.5H238.5C238.775 260.5 239.011 260.598 239.207 260.794C239.403 260.99 239.5 261.225 239.5 261.5V268.5C239.5 268.775 239.402 269.011 239.207 269.207C239.011 269.403 238.775 269.5 238.5 269.5H231.5Z" fill="black"/>
<path d="M234.65 279.1H231.5C230.943 279.1 230.409 279.321 230.015 279.715C229.621 280.109 229.4 280.643 229.4 281.2V286.1C229.4 286.657 229.621 287.191 230.015 287.585C230.409 287.979 230.943 288.2 231.5 288.2H234.65V279.1ZM231.952 282.002C231.985 281.97 232.023 281.944 232.066 281.926C232.108 281.908 232.154 281.899 232.2 281.899C232.246 281.899 232.292 281.908 232.334 281.926C232.377 281.944 232.415 281.97 232.448 282.002L233.498 283.052C233.53 283.085 233.556 283.123 233.574 283.166C233.591 283.208 233.6 283.254 233.6 283.3C233.6 283.346 233.591 283.392 233.574 283.434C233.556 283.477 233.53 283.515 233.498 283.548C233.465 283.58 233.427 283.606 233.384 283.624C233.341 283.641 233.296 283.65 233.25 283.65C233.204 283.65 233.158 283.641 233.116 283.624C233.073 283.606 233.035 283.58 233.002 283.548L232.55 283.095V285.05C232.55 285.143 232.513 285.232 232.447 285.297C232.382 285.363 232.293 285.4 232.2 285.4C232.107 285.4 232.018 285.363 231.952 285.297C231.887 285.232 231.85 285.143 231.85 285.05V283.095L231.398 283.548C231.365 283.58 231.327 283.606 231.284 283.624C231.241 283.641 231.196 283.65 231.15 283.65C231.104 283.65 231.058 283.641 231.016 283.624C230.973 283.606 230.935 283.58 230.902 283.548C230.87 283.515 230.844 283.477 230.826 283.434C230.809 283.392 230.799 283.346 230.799 283.3C230.799 283.254 230.809 283.208 230.826 283.166C230.844 283.123 230.87 283.085 230.902 283.052L231.952 282.002ZM235.35 288.2H238.5C239.057 288.2 239.591 287.979 239.985 287.585C240.379 287.191 240.6 286.657 240.6 286.1V281.2C240.6 280.643 240.379 280.109 239.985 279.715C239.591 279.321 239.057 279.1 238.5 279.1H235.35V288.2ZM238.048 285.298C238.015 285.33 237.977 285.356 237.934 285.374C237.892 285.392 237.846 285.401 237.8 285.401C237.754 285.401 237.708 285.392 237.666 285.374C237.623 285.356 237.585 285.33 237.552 285.298L236.502 284.248C236.436 284.182 236.399 284.093 236.399 284C236.399 283.907 236.436 283.818 236.502 283.752C236.568 283.686 236.657 283.65 236.75 283.65C236.843 283.65 236.932 283.686 236.998 283.752L237.45 284.205V282.25C237.45 282.157 237.487 282.068 237.552 282.002C237.618 281.937 237.707 281.9 237.8 281.9C237.893 281.9 237.982 281.937 238.047 282.002C238.113 282.068 238.15 282.157 238.15 282.25V284.205L238.602 283.752C238.668 283.686 238.757 283.65 238.85 283.65C238.943 283.65 239.032 283.686 239.098 283.752C239.163 283.818 239.2 283.907 239.2 284C239.2 284.093 239.163 284.182 239.098 284.248L238.048 285.298Z" fill="black"/>
<g clip-path="url(#clip5_597_1750)">
<path d="M231.1 299.5C231.817 299.5 232.4 298.939 232.4 298.25C232.4 297.561 231.817 297 231.1 297C230.383 297 229.8 297.561 229.8 298.25C229.8 298.939 230.383 299.5 231.1 299.5ZM238.9 299.5C239.617 299.5 240.2 298.939 240.2 298.25C240.2 297.561 239.617 297 238.9 297C238.183 297 237.6 297.561 237.6 298.25C237.6 298.939 238.183 299.5 238.9 299.5ZM241.486 303.924L240.559 300.295C240.492 300.031 240.245 299.846 239.954 299.822C239.649 300.012 239.288 300.125 238.898 300.125C238.508 300.125 238.146 300.012 237.842 299.822C237.551 299.846 237.303 300.031 237.236 300.295L236.31 303.924C236.239 304.219 236.483 304.5 236.812 304.5H237.925V306.531C237.925 306.791 238.142 307 238.412 307H239.387C239.658 307 239.875 306.791 239.875 306.531V304.5H240.988C241.317 304.5 241.561 304.219 241.486 303.924ZM235.325 297H234.675C234.496 297 234.35 297.141 234.35 297.312V306.688C234.35 306.859 234.496 307 234.675 307H235.325C235.504 307 235.65 306.859 235.65 306.688V297.312C235.65 297.141 235.504 297 235.325 297ZM232.158 299.82C231.853 300.012 231.49 300.125 231.1 300.125C230.71 300.125 230.346 300.012 230.042 299.82C229.542 299.861 229.15 300.26 229.15 300.75V303.406C229.15 303.666 229.367 303.875 229.637 303.875H229.8V306.531C229.8 306.791 230.017 307 230.287 307H231.912C232.183 307 232.4 306.791 232.4 306.531V303.875H232.562C232.833 303.875 233.05 303.666 233.05 303.406V300.75C233.05 300.26 232.658 299.861 232.158 299.82Z" fill="black"/>
</g>
<rect x="55.5" y="215.5" width="5" height="21" fill="white" stroke="#D9D9D9"/>
<rect x="61.5" y="215.5" width="5" height="21" fill="white" stroke="#D9D9D9"/>
<path d="M70.904 239.54H69.464V242.8H68.604V236.21H69.464V238.78H70.904V239.54ZM69.664 245.15H63.964V242.32H64.834V244.4H69.664V245.15ZM62.464 238.92C62.464 238.587 62.524 238.277 62.644 237.99C62.764 237.703 62.9307 237.457 63.144 237.25C63.3573 237.043 63.6073 236.883 63.894 236.77C64.1807 236.65 64.494 236.59 64.834 236.59C65.174 236.59 65.4907 236.65 65.784 236.77C66.0773 236.883 66.3307 237.043 66.544 237.25C66.7573 237.457 66.924 237.703 67.044 237.99C67.164 238.277 67.224 238.587 67.224 238.92C67.224 239.247 67.164 239.55 67.044 239.83C66.924 240.11 66.7573 240.353 66.544 240.56C66.3307 240.76 66.0773 240.92 65.784 241.04C65.4907 241.153 65.174 241.21 64.834 241.21C64.494 241.21 64.1807 241.153 63.894 241.04C63.6073 240.92 63.3573 240.76 63.144 240.56C62.9307 240.353 62.764 240.11 62.644 239.83C62.524 239.55 62.464 239.247 62.464 238.92ZM63.384 238.92C63.384 239.14 63.4173 239.347 63.484 239.54C63.5573 239.727 63.6573 239.887 63.784 240.02C63.9173 240.153 64.074 240.26 64.254 240.34C64.434 240.413 64.634 240.45 64.854 240.45C65.074 240.45 65.274 240.413 65.454 240.34C65.634 240.26 65.7873 240.153 65.914 240.02C66.0473 239.887 66.1507 239.727 66.224 239.54C66.2973 239.347 66.334 239.14 66.334 238.92C66.334 238.687 66.2973 238.473 66.224 238.28C66.1507 238.087 66.0473 237.92 65.914 237.78C65.7873 237.64 65.634 237.533 65.454 237.46C65.274 237.38 65.074 237.34 64.854 237.34C64.634 237.34 64.434 237.38 64.254 237.46C64.074 237.533 63.9173 237.64 63.784 237.78C63.6573 237.92 63.5573 238.087 63.484 238.28C63.4173 238.473 63.384 238.687 63.384 238.92ZM71.62 242.72V236.88H72.5V241.96H72.89C73.4367 241.96 73.9367 241.923 74.39 241.85C74.85 241.77 75.2267 241.697 75.52 241.63V242.36C75.36 242.407 75.1733 242.453 74.96 242.5C74.7467 242.54 74.5167 242.577 74.27 242.61C74.03 242.643 73.7833 242.67 73.53 242.69C73.2767 242.71 73.03 242.72 72.79 242.72H71.62ZM78.96 245.33H78.1V240.33H76.78V245.1H75.94V236.3H76.78V239.59H78.1V236.2H78.96V245.33Z" fill="black"/>
<path d="M56 218H66.5M56 221.5H66M56 225H66.5M56 228H66.5M56 231H66.5M56 233.5H66.5" stroke="#D9D9D9"/>
<defs>
<clipPath id="clip0_597_1750">
<rect width="24" height="24" fill="white" transform="translate(138 7)"/>
</clipPath>
<clipPath id="clip1_597_1750">
<rect width="13" height="10" fill="white" transform="translate(32 226)"/>
</clipPath>
<clipPath id="clip2_597_1750">
<rect width="10" height="10" fill="white" transform="translate(82 236)"/>
</clipPath>
<clipPath id="clip3_597_1750">
<rect width="10" height="10" fill="white" transform="translate(107 236)"/>
</clipPath>
<clipPath id="clip4_597_1750">
<rect width="14" height="14" fill="white" transform="translate(228 221)"/>
</clipPath>
<clipPath id="clip5_597_1750">
<rect width="13" height="10" fill="white" transform="translate(228.5 297)"/>
</clipPath>
</defs>
</svg>
