<svg width="311" height="323" viewBox="0 0 311 323" fill="none" xmlns="http://www.w3.org/2000/svg">
<rect width="311" height="323" fill="white"/>
<path d="M256.212 231.33H255.352V222.2H256.212V231.33ZM253.492 222.3H254.352V231.1H253.492V226.16H252.502C252.482 227.167 252.302 227.93 251.962 228.45C251.622 228.97 251.159 229.23 250.572 229.23C249.985 229.23 249.522 228.957 249.182 228.41C248.842 227.857 248.672 227.053 248.672 226C248.672 224.947 248.842 224.147 249.182 223.6C249.522 223.047 249.985 222.77 250.572 222.77C251.112 222.77 251.549 222.993 251.882 223.44C252.215 223.887 252.415 224.543 252.482 225.41H253.492V222.3ZM251.662 226C251.662 225.633 251.642 225.297 251.602 224.99C251.562 224.683 251.499 224.42 251.412 224.2C251.325 223.98 251.212 223.81 251.072 223.69C250.932 223.57 250.762 223.51 250.562 223.51C250.369 223.51 250.205 223.57 250.072 223.69C249.939 223.81 249.832 223.98 249.752 224.2C249.672 224.42 249.612 224.683 249.572 224.99C249.539 225.297 249.522 225.633 249.522 226C249.522 226.367 249.539 226.703 249.572 227.01C249.612 227.317 249.672 227.58 249.752 227.8C249.832 228.02 249.939 228.19 250.072 228.31C250.205 228.43 250.369 228.49 250.562 228.49C250.762 228.49 250.932 228.43 251.072 228.31C251.212 228.19 251.325 228.02 251.412 227.8C251.499 227.58 251.562 227.317 251.602 227.01C251.642 226.703 251.662 226.367 251.662 226ZM265.878 229.28V230.01H257.378V229.28H265.878ZM262.018 223.97C262.398 224.677 262.868 225.28 263.428 225.78C263.995 226.28 264.651 226.653 265.398 226.9L264.838 227.55C264.198 227.323 263.605 226.973 263.058 226.5C262.511 226.027 262.055 225.48 261.688 224.86C261.368 225.487 260.931 226.027 260.378 226.48C259.825 226.927 259.215 227.273 258.548 227.52L257.978 226.86C258.485 226.68 258.941 226.467 259.348 226.22C259.761 225.967 260.111 225.67 260.398 225.33C260.685 224.983 260.901 224.59 261.048 224.15C261.201 223.703 261.271 223.197 261.258 222.63H262.148C262.168 223.117 262.125 223.563 262.018 223.97ZM274.094 231.23H268.154V228.88H273.044V228.03H268.154V227.29H273.894V229.61H269.004V230.49H274.094V231.23ZM270.494 223.32C270.094 223.333 269.704 223.343 269.324 223.35C268.951 223.35 268.564 223.35 268.164 223.35H267.084V222.63H268.734C269.201 222.63 269.657 222.63 270.104 222.63C270.557 222.63 271.021 222.623 271.494 222.61C271.454 223.137 271.317 223.637 271.084 224.11C270.851 224.583 270.537 225.02 270.144 225.42C269.751 225.813 269.287 226.163 268.754 226.47C268.227 226.777 267.647 227.027 267.014 227.22L266.534 226.59C267.174 226.41 267.754 226.18 268.274 225.9C268.794 225.62 269.234 225.29 269.594 224.91C269.314 224.943 269.024 224.967 268.724 224.98C268.431 224.987 268.127 224.993 267.814 225H266.954V224.33H268.154C268.507 224.33 268.844 224.323 269.164 224.31C269.484 224.29 269.804 224.26 270.124 224.22C270.204 224.08 270.274 223.937 270.334 223.79C270.401 223.637 270.454 223.48 270.494 223.32ZM271.394 225.28V224.52H273.034V222.2H273.894V226.77H273.034V225.28H271.394ZM282.96 231.33H282.1V222.2H282.96V231.33ZM280.29 222.3H281.14V231.1H280.29V226.16H279.17V225.41H280.29V222.3ZM275.68 229.15V225.55H277.78V223.68H275.66V222.94H278.64V226.28H276.54V228.41H276.81C277.417 228.41 277.97 228.373 278.47 228.3C278.97 228.227 279.38 228.157 279.7 228.09V228.8C279.527 228.847 279.32 228.89 279.08 228.93C278.847 228.97 278.597 229.007 278.33 229.04C278.063 229.073 277.79 229.1 277.51 229.12C277.23 229.14 276.957 229.15 276.69 229.15H275.68ZM290.866 222.2H291.726V231.33H290.866V222.2ZM289.136 225.99C289.136 226.523 289.076 226.997 288.956 227.41C288.836 227.817 288.669 228.157 288.456 228.43C288.249 228.703 288.003 228.91 287.716 229.05C287.429 229.19 287.123 229.26 286.796 229.26C286.469 229.26 286.163 229.19 285.876 229.05C285.596 228.91 285.349 228.703 285.136 228.43C284.923 228.157 284.753 227.817 284.626 227.41C284.506 226.997 284.446 226.523 284.446 225.99C284.446 225.457 284.506 224.987 284.626 224.58C284.753 224.173 284.923 223.833 285.136 223.56C285.349 223.287 285.596 223.08 285.876 222.94C286.163 222.8 286.469 222.73 286.796 222.73C287.123 222.73 287.429 222.8 287.716 222.94C288.003 223.08 288.249 223.287 288.456 223.56C288.669 223.833 288.836 224.173 288.956 224.58C289.076 224.987 289.136 225.457 289.136 225.99ZM288.266 225.99C288.266 225.617 288.233 225.277 288.166 224.97C288.099 224.663 288.003 224.4 287.876 224.18C287.756 223.96 287.603 223.79 287.416 223.67C287.236 223.55 287.029 223.49 286.796 223.49C286.563 223.49 286.353 223.55 286.166 223.67C285.986 223.79 285.833 223.96 285.706 224.18C285.586 224.4 285.493 224.663 285.426 224.97C285.359 225.277 285.326 225.617 285.326 225.99C285.326 226.363 285.359 226.703 285.426 227.01C285.493 227.317 285.586 227.58 285.706 227.8C285.833 228.02 285.986 228.193 286.166 228.32C286.353 228.44 286.563 228.5 286.796 228.5C287.029 228.5 287.236 228.44 287.416 228.32C287.603 228.193 287.756 228.02 287.876 227.8C288.003 227.58 288.099 227.317 288.166 227.01C288.233 226.703 288.266 226.363 288.266 225.99ZM298.172 226.14V225.39H299.782V222.2H300.642V231.33H299.782V226.14H298.172ZM295.572 229.04H293.552V222.94H297.522V223.67H294.412V225.6H297.302V226.33H294.412V228.31H295.702C296.269 228.31 296.815 228.28 297.342 228.22C297.875 228.153 298.389 228.063 298.882 227.95V228.66C298.389 228.787 297.859 228.883 297.292 228.95C296.725 229.01 296.152 229.04 295.572 229.04Z" fill="black"/>
<path d="M256.04 245.77H255.21V241.2H256.04V245.77ZM253.37 241.3H254.19V245.77H253.37V243.72H252.35C252.33 244.033 252.267 244.31 252.16 244.55C252.053 244.783 251.913 244.98 251.74 245.14C251.573 245.3 251.373 245.42 251.14 245.5C250.913 245.58 250.67 245.62 250.41 245.62C250.137 245.62 249.88 245.577 249.64 245.49C249.4 245.397 249.193 245.263 249.02 245.09C248.847 244.91 248.71 244.69 248.61 244.43C248.51 244.163 248.46 243.86 248.46 243.52C248.46 243.173 248.51 242.87 248.61 242.61C248.71 242.343 248.847 242.123 249.02 241.95C249.193 241.77 249.4 241.637 249.64 241.55C249.88 241.457 250.137 241.41 250.41 241.41C250.883 241.41 251.293 241.543 251.64 241.81C251.987 242.07 252.21 242.457 252.31 242.97H253.37V241.3ZM256.24 250.23H250.15V247.9H255.19V247.01H250.11V246.29H256.04V248.6H251V249.5H256.24V250.23ZM251.53 243.53C251.53 243.09 251.427 242.75 251.22 242.51C251.013 242.27 250.743 242.15 250.41 242.15C250.077 242.15 249.807 242.27 249.6 242.51C249.393 242.75 249.29 243.09 249.29 243.53C249.29 243.963 249.393 244.297 249.6 244.53C249.807 244.763 250.077 244.88 250.41 244.88C250.743 244.88 251.013 244.763 251.22 244.53C251.427 244.297 251.53 243.963 251.53 243.53ZM263.866 241.2H264.726V250.33H263.866V241.2ZM258.546 247.43H259.936C260.283 247.43 260.616 247.42 260.936 247.4C261.263 247.373 261.566 247.343 261.846 247.31C262.133 247.27 262.396 247.23 262.636 247.19C262.876 247.143 263.086 247.1 263.266 247.06V247.77C263.066 247.823 262.833 247.873 262.566 247.92C262.299 247.967 262.013 248.007 261.706 248.04C261.399 248.073 261.083 248.103 260.756 248.13C260.436 248.15 260.123 248.16 259.816 248.16H257.666V244.54H260.776V242.67H257.646V241.93H261.656V245.27H258.546V247.43ZM273.792 250.33H272.932V241.2H273.792V250.33ZM271.102 241.3H271.952V250.1H271.102V245.26H269.942V247.82H266.512V241.91H267.352V244.15H269.112V241.91H269.942V244.51H271.102V241.3ZM269.112 244.86H267.352V247.1H269.112V244.86ZM281.698 241.2H282.558V250.33H281.698V241.2ZM279.968 244.99C279.968 245.523 279.908 245.997 279.788 246.41C279.668 246.817 279.501 247.157 279.288 247.43C279.081 247.703 278.835 247.91 278.548 248.05C278.261 248.19 277.955 248.26 277.628 248.26C277.301 248.26 276.995 248.19 276.708 248.05C276.428 247.91 276.181 247.703 275.968 247.43C275.755 247.157 275.585 246.817 275.458 246.41C275.338 245.997 275.278 245.523 275.278 244.99C275.278 244.457 275.338 243.987 275.458 243.58C275.585 243.173 275.755 242.833 275.968 242.56C276.181 242.287 276.428 242.08 276.708 241.94C276.995 241.8 277.301 241.73 277.628 241.73C277.955 241.73 278.261 241.8 278.548 241.94C278.835 242.08 279.081 242.287 279.288 242.56C279.501 242.833 279.668 243.173 279.788 243.58C279.908 243.987 279.968 244.457 279.968 244.99ZM279.098 244.99C279.098 244.617 279.065 244.277 278.998 243.97C278.931 243.663 278.835 243.4 278.708 243.18C278.588 242.96 278.435 242.79 278.248 242.67C278.068 242.55 277.861 242.49 277.628 242.49C277.395 242.49 277.185 242.55 276.998 242.67C276.818 242.79 276.665 242.96 276.538 243.18C276.418 243.4 276.325 243.663 276.258 243.97C276.191 244.277 276.158 244.617 276.158 244.99C276.158 245.363 276.191 245.703 276.258 246.01C276.325 246.317 276.418 246.58 276.538 246.8C276.665 247.02 276.818 247.193 276.998 247.32C277.185 247.44 277.395 247.5 277.628 247.5C277.861 247.5 278.068 247.44 278.248 247.32C278.435 247.193 278.588 247.02 278.708 246.8C278.835 246.58 278.931 246.317 278.998 246.01C279.065 245.703 279.098 245.363 279.098 244.99ZM289.004 245.14V244.39H290.614V241.2H291.474V250.33H290.614V245.14H289.004ZM286.404 248.04H284.384V241.94H288.354V242.67H285.244V244.6H288.134V245.33H285.244V247.31H286.534C287.101 247.31 287.647 247.28 288.174 247.22C288.707 247.153 289.221 247.063 289.714 246.95V247.66C289.221 247.787 288.691 247.883 288.124 247.95C287.557 248.01 286.984 248.04 286.404 248.04Z" fill="black"/>
<path d="M248.36 262.45V261.74H253.86V262.45H248.36ZM249.53 261.19V260.46H252.58V261.19H249.53ZM253.37 264.46C253.37 264.867 253.22 265.217 252.92 265.51C252.627 265.797 252.187 265.973 251.6 266.04V266.99C252.067 266.97 252.523 266.947 252.97 266.92C253.423 266.887 253.833 266.843 254.2 266.79V267.5C253.88 267.547 253.527 267.587 253.14 267.62C252.76 267.653 252.367 267.683 251.96 267.71C251.56 267.73 251.16 267.747 250.76 267.76C250.36 267.773 249.983 267.78 249.63 267.78H248.11V267.04H249.62C249.793 267.04 249.97 267.04 250.15 267.04C250.337 267.033 250.53 267.027 250.73 267.02V266.04C250.123 265.98 249.67 265.807 249.37 265.52C249.07 265.227 248.92 264.873 248.92 264.46C248.92 264.233 248.967 264.023 249.06 263.83C249.153 263.637 249.293 263.47 249.48 263.33C249.667 263.183 249.897 263.07 250.17 262.99C250.45 262.91 250.777 262.87 251.15 262.87C251.517 262.87 251.837 262.91 252.11 262.99C252.39 263.07 252.623 263.183 252.81 263.33C252.997 263.47 253.137 263.637 253.23 263.83C253.323 264.023 253.37 264.233 253.37 264.46ZM252.5 264.46C252.5 264.34 252.473 264.223 252.42 264.11C252.373 263.997 252.293 263.897 252.18 263.81C252.073 263.723 251.933 263.653 251.76 263.6C251.593 263.547 251.39 263.52 251.15 263.52C250.91 263.52 250.703 263.547 250.53 263.6C250.357 263.653 250.213 263.723 250.1 263.81C249.993 263.897 249.913 263.997 249.86 264.11C249.813 264.223 249.79 264.34 249.79 264.46C249.79 264.58 249.813 264.697 249.86 264.81C249.913 264.923 249.993 265.023 250.1 265.11C250.213 265.197 250.357 265.267 250.53 265.32C250.703 265.373 250.91 265.4 251.15 265.4C251.39 265.4 251.593 265.373 251.76 265.32C251.933 265.267 252.073 265.197 252.18 265.11C252.293 265.023 252.373 264.923 252.42 264.81C252.473 264.697 252.5 264.58 252.5 264.46ZM256.9 264.83H255.45V269.33H254.62V260.2H255.45V264.09H256.9V264.83ZM261.106 262.86C261.359 263.18 261.666 263.477 262.026 263.75C262.393 264.023 262.743 264.25 263.076 264.43L262.516 265.06C262.176 264.86 261.843 264.623 261.516 264.35C261.189 264.077 260.889 263.777 260.616 263.45C260.396 263.69 260.159 263.917 259.906 264.13C259.653 264.337 259.399 264.523 259.146 264.69C258.893 264.857 258.639 265.007 258.386 265.14C258.139 265.267 257.906 265.37 257.686 265.45L257.126 264.82C257.573 264.66 258.003 264.453 258.416 264.2C258.829 263.947 259.203 263.667 259.536 263.36C259.869 263.053 260.156 262.727 260.396 262.38C260.636 262.033 260.803 261.68 260.896 261.32C260.523 261.333 260.153 261.343 259.786 261.35C259.426 261.35 259.063 261.35 258.696 261.35H257.676V260.61H259.336C259.763 260.61 260.193 260.61 260.626 260.61C261.066 260.61 261.519 260.603 261.986 260.59C261.953 261.01 261.856 261.41 261.696 261.79C261.543 262.163 261.346 262.52 261.106 262.86ZM265.736 263.18H264.296V265.76H263.436V260.2H264.296V262.42H265.736V263.18ZM264.396 267.61C264.396 267.87 264.333 268.11 264.206 268.33C264.086 268.55 263.899 268.74 263.646 268.9C263.399 269.06 263.089 269.183 262.716 269.27C262.349 269.363 261.923 269.41 261.436 269.41C260.943 269.41 260.513 269.363 260.146 269.27C259.779 269.183 259.469 269.06 259.216 268.9C258.969 268.74 258.783 268.55 258.656 268.33C258.536 268.11 258.476 267.87 258.476 267.61C258.476 267.09 258.723 266.667 259.216 266.34C259.709 266.013 260.449 265.85 261.436 265.85C262.423 265.85 263.163 266.013 263.656 266.34C264.149 266.667 264.396 267.09 264.396 267.61ZM263.496 267.63C263.496 267.483 263.456 267.347 263.376 267.22C263.296 267.093 263.169 266.983 262.996 266.89C262.829 266.797 262.616 266.723 262.356 266.67C262.103 266.617 261.796 266.59 261.436 266.59C260.729 266.59 260.206 266.69 259.866 266.89C259.533 267.09 259.366 267.337 259.366 267.63C259.366 267.923 259.533 268.17 259.866 268.37C260.206 268.57 260.729 268.67 261.436 268.67C262.149 268.67 262.669 268.57 262.996 268.37C263.329 268.17 263.496 267.923 263.496 267.63ZM269.472 260.38C269.485 260.64 269.475 260.89 269.442 261.13C269.415 261.37 269.375 261.597 269.322 261.81C269.555 262.23 269.872 262.63 270.272 263.01C270.679 263.383 271.179 263.697 271.772 263.95L271.232 264.56C270.732 264.34 270.299 264.07 269.932 263.75C269.572 263.43 269.255 263.07 268.982 262.67C268.729 263.143 268.399 263.557 267.992 263.91C267.592 264.257 267.142 264.56 266.642 264.82L266.042 264.24C266.455 264.02 266.825 263.787 267.152 263.54C267.479 263.287 267.752 263.007 267.972 262.7C268.199 262.387 268.362 262.04 268.462 261.66C268.569 261.28 268.609 260.853 268.582 260.38H269.472ZM272.782 260.2H273.642V264.82H272.782V260.2ZM273.842 269.23H267.902V266.91H272.792V266.08H267.902V265.34H273.642V267.64H268.752V268.49H273.842V269.23Z" fill="black"/>
<path d="M117 247.5H146.5V157.5H238.5V92.5H260V78.5H204.5H173.5M173.5 92.5H24V266.5" stroke="#D9D9D9"/>
<rect x="84" y="35" width="191" height="60" fill="#6180BE"/>
<rect x="23" y="247" width="93" height="49" fill="#D9D9D9"/>
<rect x="23" y="65" width="42" height="150" fill="#6180BE"/>
<rect x="44" y="76" width="40" height="139" fill="#6180BE"/>
<path d="M37.16 276.2H38.02V285.33H37.16V276.2ZM30.84 283.33L30.22 282.78C30.6266 282.487 31.0033 282.15 31.35 281.77C31.6966 281.39 31.99 280.957 32.23 280.47C32.47 279.977 32.6466 279.423 32.76 278.81C32.88 278.197 32.9133 277.513 32.86 276.76H33.77C33.7833 277.2 33.77 277.617 33.73 278.01C33.69 278.403 33.6333 278.78 33.56 279.14C33.8 279.827 34.14 280.457 34.58 281.03C35.02 281.597 35.5433 282.083 36.15 282.49L35.59 283.13C35.09 282.777 34.64 282.36 34.24 281.88C33.8466 281.393 33.51 280.847 33.23 280.24C32.9766 280.893 32.6466 281.477 32.24 281.99C31.84 282.497 31.3733 282.943 30.84 283.33ZM43.206 277.45C42.806 277.463 42.406 277.473 42.006 277.48C41.6126 277.48 41.216 277.48 40.816 277.48H39.976V276.74H41.426C41.8926 276.74 42.3593 276.74 42.826 276.74C43.2926 276.74 43.7626 276.733 44.236 276.72C44.196 277.313 44.076 277.877 43.876 278.41C43.6826 278.937 43.406 279.423 43.046 279.87C42.6926 280.317 42.256 280.717 41.736 281.07C41.2226 281.417 40.6326 281.71 39.966 281.95L39.446 281.3C40.526 280.96 41.3926 280.463 42.046 279.81C42.6993 279.157 43.086 278.37 43.206 277.45ZM47.946 279.9H46.506V282.84H45.646V276.2H46.506V279.14H47.946V279.9ZM46.706 285.15H41.006V282.38H41.876V284.4H46.706V285.15ZM56.002 285.33H55.142V276.2H56.002V285.33ZM53.302 281.66H52.092C51.9453 282.18 51.7253 282.573 51.432 282.84C51.1387 283.1 50.782 283.23 50.362 283.23C49.7753 283.23 49.312 282.957 48.972 282.41C48.632 281.857 48.462 281.053 48.462 280C48.462 278.947 48.632 278.147 48.972 277.6C49.312 277.047 49.7753 276.77 50.362 276.77C51.1887 276.77 51.7553 277.263 52.062 278.25H53.302V276.3H54.162V285.1H53.302V281.66ZM52.242 280.93H53.312V278.98H52.222C52.2487 279.133 52.2653 279.297 52.272 279.47C52.2853 279.637 52.292 279.813 52.292 280C52.292 280.167 52.2853 280.33 52.272 280.49C52.2653 280.643 52.2553 280.79 52.242 280.93ZM51.452 280C51.452 279.633 51.432 279.297 51.392 278.99C51.352 278.683 51.2887 278.42 51.202 278.2C51.1153 277.98 51.002 277.81 50.862 277.69C50.722 277.57 50.552 277.51 50.352 277.51C50.1587 277.51 49.9953 277.57 49.862 277.69C49.7287 277.81 49.622 277.98 49.542 278.2C49.462 278.42 49.402 278.683 49.362 278.99C49.3287 279.297 49.312 279.633 49.312 280C49.312 280.367 49.3287 280.703 49.362 281.01C49.402 281.317 49.462 281.58 49.542 281.8C49.622 282.02 49.7287 282.19 49.862 282.31C49.9953 282.43 50.1587 282.49 50.352 282.49C50.552 282.49 50.722 282.43 50.862 282.31C51.002 282.19 51.1153 282.02 51.202 281.8C51.2887 281.58 51.352 281.317 51.392 281.01C51.432 280.703 51.452 280.367 51.452 280ZM61.798 277.16C61.938 277.34 62.128 277.51 62.368 277.67C62.6147 277.823 62.8847 277.963 63.178 278.09C63.478 278.217 63.7913 278.323 64.118 278.41C64.4447 278.497 64.7613 278.56 65.068 278.6L64.628 279.28C63.968 279.167 63.3513 278.973 62.778 278.7C62.2113 278.42 61.738 278.1 61.358 277.74C61.1647 277.94 60.9413 278.127 60.688 278.3C60.4413 278.473 60.178 278.63 59.898 278.77C59.618 278.91 59.3313 279.03 59.038 279.13C58.7447 279.23 58.4547 279.303 58.168 279.35L57.738 278.69C58.2113 278.61 58.6547 278.493 59.068 278.34C59.4813 278.18 59.8413 277.993 60.148 277.78C60.4547 277.56 60.6947 277.317 60.868 277.05C61.0413 276.783 61.1247 276.5 61.118 276.2H62.038C62.0513 276.367 62.0347 276.53 61.988 276.69C61.948 276.85 61.8847 277.007 61.798 277.16ZM60.958 281.59V280.61H57.068V279.9H65.768V280.61H61.848V281.59H64.368V283.79H59.318V284.62H64.608V285.33H58.468V283.11H63.518V282.3H58.468V281.59H60.958ZM73.314 280.39H67.474V276.41H68.334V277.72H72.454V276.41H73.314V280.39ZM72.474 279.67V278.43H68.314V279.67H72.474ZM66.084 282.23V281.49H74.584V282.23H70.864V285.28H69.984V282.23H66.084Z" fill="black"/>
<path d="M175.191 60.71C175.004 60.5967 174.801 60.5067 174.581 60.44C174.361 60.3733 174.124 60.34 173.871 60.34C173.518 60.34 173.201 60.4267 172.921 60.6C172.641 60.7667 172.401 60.9967 172.201 61.29C172.008 61.5767 171.854 61.91 171.741 62.29C171.634 62.67 171.574 63.0733 171.561 63.5H171.581C171.648 63.3533 171.738 63.2133 171.851 63.08C171.964 62.94 172.098 62.82 172.251 62.72C172.411 62.6133 172.584 62.53 172.771 62.47C172.964 62.41 173.171 62.38 173.391 62.38C173.751 62.38 174.068 62.4433 174.341 62.57C174.621 62.69 174.854 62.86 175.041 63.08C175.234 63.3 175.381 63.56 175.481 63.86C175.581 64.16 175.631 64.4867 175.631 64.84C175.631 65.2333 175.571 65.59 175.451 65.91C175.338 66.23 175.171 66.5033 174.951 66.73C174.738 66.9567 174.481 67.13 174.181 67.25C173.888 67.3767 173.561 67.44 173.201 67.44C172.688 67.44 172.271 67.33 171.951 67.11C171.631 66.8967 171.381 66.62 171.201 66.28C171.021 65.94 170.898 65.5633 170.831 65.15C170.771 64.73 170.741 64.3167 170.741 63.91C170.741 63.3967 170.798 62.8867 170.911 62.38C171.031 61.8667 171.214 61.41 171.461 61.01C171.714 60.6033 172.038 60.2733 172.431 60.02C172.824 59.7667 173.298 59.64 173.851 59.64C174.131 59.64 174.388 59.6667 174.621 59.72C174.854 59.7667 175.074 59.8367 175.281 59.93V60.67C175.281 60.7433 175.251 60.7567 175.191 60.71ZM171.641 64.92C171.641 65.1667 171.674 65.4 171.741 65.62C171.814 65.84 171.918 66.0333 172.051 66.2C172.191 66.3667 172.358 66.5 172.551 66.6C172.744 66.7 172.961 66.75 173.201 66.75C173.468 66.75 173.698 66.6967 173.891 66.59C174.091 66.4767 174.254 66.3333 174.381 66.16C174.508 65.9867 174.601 65.79 174.661 65.57C174.721 65.3433 174.751 65.1167 174.751 64.89C174.751 64.6433 174.721 64.41 174.661 64.19C174.601 63.97 174.511 63.78 174.391 63.62C174.271 63.4533 174.118 63.3233 173.931 63.23C173.744 63.13 173.524 63.08 173.271 63.08C173.004 63.08 172.771 63.13 172.571 63.23C172.378 63.3233 172.214 63.4567 172.081 63.63C171.948 63.7967 171.844 63.9933 171.771 64.22C171.704 64.44 171.661 64.6733 171.641 64.92ZM181.401 62.29V61.53H182.991V59.2H183.851V66H182.991V62.29H181.401ZM184.051 68.15H178.251V65.48H179.121V67.4H184.051V68.15ZM180.131 62.27C180.258 62.4367 180.404 62.6 180.571 62.76C180.744 62.9133 180.924 63.06 181.111 63.2C181.298 63.34 181.488 63.47 181.681 63.59C181.874 63.71 182.061 63.8133 182.241 63.9L181.691 64.54C181.324 64.34 180.961 64.0967 180.601 63.81C180.248 63.5167 179.928 63.2 179.641 62.86C179.254 63.2667 178.824 63.6267 178.351 63.94C177.878 64.2533 177.381 64.5267 176.861 64.76L176.311 64.12C176.851 63.9 177.334 63.6467 177.761 63.36C178.194 63.0733 178.568 62.7733 178.881 62.46C179.194 62.14 179.448 61.8133 179.641 61.48C179.834 61.14 179.968 60.8067 180.041 60.48C179.668 60.4933 179.298 60.5033 178.931 60.51C178.571 60.51 178.208 60.51 177.841 60.51H176.911V59.77H178.481C178.908 59.77 179.338 59.77 179.771 59.77C180.204 59.77 180.658 59.7633 181.131 59.75C181.071 60.2367 180.954 60.69 180.781 61.11C180.608 61.5233 180.391 61.91 180.131 62.27ZM191.907 59.2H192.767V68.33H191.907V59.2ZM185.587 66.33L184.967 65.78C185.374 65.4867 185.75 65.15 186.097 64.77C186.444 64.39 186.737 63.9567 186.977 63.47C187.217 62.9767 187.394 62.4233 187.507 61.81C187.627 61.1967 187.66 60.5133 187.607 59.76H188.517C188.53 60.2 188.517 60.6167 188.477 61.01C188.437 61.4033 188.38 61.78 188.307 62.14C188.547 62.8267 188.887 63.4567 189.327 64.03C189.767 64.5967 190.29 65.0833 190.897 65.49L190.337 66.13C189.837 65.7767 189.387 65.36 188.987 64.88C188.594 64.3933 188.257 63.8467 187.977 63.24C187.724 63.8933 187.394 64.4767 186.987 64.99C186.587 65.4967 186.12 65.9433 185.587 66.33ZM197.513 59.38C197.526 59.64 197.516 59.89 197.483 60.13C197.456 60.37 197.416 60.5967 197.363 60.81C197.596 61.23 197.913 61.63 198.313 62.01C198.72 62.3833 199.22 62.6967 199.813 62.95L199.273 63.56C198.773 63.34 198.34 63.07 197.973 62.75C197.613 62.43 197.296 62.07 197.023 61.67C196.77 62.1433 196.44 62.5567 196.033 62.91C195.633 63.2567 195.183 63.56 194.683 63.82L194.083 63.24C194.496 63.02 194.866 62.7867 195.193 62.54C195.52 62.2867 195.793 62.0067 196.013 61.7C196.24 61.3867 196.403 61.04 196.503 60.66C196.61 60.28 196.65 59.8533 196.623 59.38H197.513ZM200.823 59.2H201.683V63.82H200.823V59.2ZM201.883 68.23H195.943V65.91H200.833V65.08H195.943V64.34H201.683V66.64H196.793V67.49H201.883V68.23Z" fill="white"/>
<path d="M38.8909 148.13C39.2109 148.343 39.5376 148.503 39.8709 148.61C40.2043 148.71 40.5609 148.76 40.9409 148.76C41.2009 148.753 41.4409 148.707 41.6609 148.62C41.8809 148.527 42.0709 148.403 42.2309 148.25C42.3909 148.097 42.5143 147.917 42.6009 147.71C42.6943 147.497 42.7409 147.263 42.7409 147.01C42.7409 146.717 42.6843 146.47 42.5709 146.27C42.4643 146.063 42.3109 145.897 42.1109 145.77C41.9176 145.643 41.6876 145.553 41.4209 145.5C41.1609 145.44 40.8776 145.41 40.5709 145.41C40.3376 145.41 40.0876 145.427 39.8209 145.46C39.5543 145.493 39.3009 145.537 39.0609 145.59L39.2709 141.82H43.1909V142.51H39.9909L39.8409 144.83H39.8609C40.0543 144.81 40.2376 144.793 40.4109 144.78C40.5843 144.767 40.7576 144.76 40.9309 144.76C41.3243 144.76 41.6843 144.81 42.0109 144.91C42.3376 145.003 42.6176 145.143 42.8509 145.33C43.0909 145.51 43.2743 145.737 43.4009 146.01C43.5343 146.277 43.6009 146.58 43.6009 146.92C43.6009 147.273 43.5376 147.607 43.4109 147.92C43.2909 148.227 43.1143 148.493 42.8809 148.72C42.6476 148.947 42.3643 149.123 42.0309 149.25C41.6976 149.383 41.3243 149.45 40.9109 149.45C40.4643 149.443 40.0676 149.393 39.7209 149.3C39.3743 149.213 39.0609 149.07 38.7809 148.87V148.18C38.7809 148.14 38.7909 148.117 38.8109 148.11C38.8376 148.097 38.8643 148.103 38.8909 148.13ZM49.401 144.29V143.53H50.991V141.2H51.851V148H50.991V144.29H49.401ZM52.051 150.15H46.251V147.48H47.121V149.4H52.051V150.15ZM48.131 144.27C48.2577 144.437 48.4043 144.6 48.571 144.76C48.7443 144.913 48.9243 145.06 49.111 145.2C49.2977 145.34 49.4877 145.47 49.681 145.59C49.8743 145.71 50.061 145.813 50.241 145.9L49.691 146.54C49.3243 146.34 48.961 146.097 48.601 145.81C48.2477 145.517 47.9277 145.2 47.641 144.86C47.2543 145.267 46.8243 145.627 46.351 145.94C45.8777 146.253 45.381 146.527 44.861 146.76L44.311 146.12C44.851 145.9 45.3343 145.647 45.761 145.36C46.1943 145.073 46.5677 144.773 46.881 144.46C47.1943 144.14 47.4477 143.813 47.641 143.48C47.8343 143.14 47.9677 142.807 48.041 142.48C47.6677 142.493 47.2977 142.503 46.931 142.51C46.571 142.51 46.2077 142.51 45.841 142.51H44.911V141.77H46.481C46.9077 141.77 47.3377 141.77 47.771 141.77C48.2043 141.77 48.6577 141.763 49.131 141.75C49.071 142.237 48.9543 142.69 48.781 143.11C48.6077 143.523 48.391 143.91 48.131 144.27ZM59.907 141.2H60.767V150.33H59.907V141.2ZM53.587 148.33L52.967 147.78C53.3737 147.487 53.7504 147.15 54.097 146.77C54.4437 146.39 54.737 145.957 54.977 145.47C55.217 144.977 55.3937 144.423 55.507 143.81C55.627 143.197 55.6604 142.513 55.607 141.76H56.517C56.5304 142.2 56.517 142.617 56.477 143.01C56.437 143.403 56.3804 143.78 56.307 144.14C56.547 144.827 56.887 145.457 57.327 146.03C57.767 146.597 58.2904 147.083 58.897 147.49L58.337 148.13C57.837 147.777 57.387 147.36 56.987 146.88C56.5937 146.393 56.257 145.847 55.977 145.24C55.7237 145.893 55.3937 146.477 54.987 146.99C54.587 147.497 54.1204 147.943 53.587 148.33ZM65.513 141.38C65.5264 141.64 65.5164 141.89 65.483 142.13C65.4564 142.37 65.4164 142.597 65.363 142.81C65.5964 143.23 65.913 143.63 66.313 144.01C66.7197 144.383 67.2197 144.697 67.813 144.95L67.273 145.56C66.773 145.34 66.3397 145.07 65.973 144.75C65.613 144.43 65.2964 144.07 65.023 143.67C64.7697 144.143 64.4397 144.557 64.033 144.91C63.633 145.257 63.183 145.56 62.683 145.82L62.083 145.24C62.4964 145.02 62.8664 144.787 63.193 144.54C63.5197 144.287 63.793 144.007 64.013 143.7C64.2397 143.387 64.403 143.04 64.503 142.66C64.6097 142.28 64.6497 141.853 64.623 141.38H65.513ZM68.823 141.2H69.683V145.82H68.823V141.2ZM69.883 150.23H63.943V147.91H68.833V147.08H63.943V146.34H69.683V148.64H64.793V149.49H69.883V150.23Z" fill="white"/>
<rect x="24" y="215" width="31" height="31" fill="#D9D9D9"/>
<rect x="117" y="124" width="70" height="17" fill="#D9D9D9"/>
<path d="M148.917 134.5H150.292L152.375 130.75H153.083C153.257 130.75 153.405 130.689 153.526 130.568C153.648 130.447 153.709 130.299 153.708 130.125C153.708 129.951 153.647 129.804 153.526 129.683C153.405 129.561 153.258 129.501 153.083 129.5H151.708L149.625 133.25H148.917C148.743 133.25 148.596 133.311 148.474 133.433C148.353 133.554 148.292 133.702 148.292 133.875C148.291 134.048 148.352 134.196 148.474 134.318C148.596 134.44 148.744 134.501 148.917 134.5ZM148.083 135.75C147.854 135.75 147.658 135.668 147.495 135.505C147.332 135.342 147.25 135.146 147.25 134.917V129.083C147.25 128.854 147.332 128.658 147.495 128.495C147.658 128.332 147.854 128.25 148.083 128.25H153.917C154.146 128.25 154.342 128.332 154.505 128.495C154.669 128.658 154.75 128.854 154.75 129.083V134.917C154.75 135.146 154.668 135.342 154.505 135.505C154.342 135.669 154.146 135.75 153.917 135.75H148.083Z" fill="black"/>
<g clip-path="url(#clip0_597_1935)">
<path d="M34.6004 228.5C35.3174 228.5 35.9004 227.939 35.9004 227.25C35.9004 226.561 35.3174 226 34.6004 226C33.8834 226 33.3004 226.561 33.3004 227.25C33.3004 227.939 33.8834 228.5 34.6004 228.5ZM42.4004 228.5C43.1174 228.5 43.7004 227.939 43.7004 227.25C43.7004 226.561 43.1174 226 42.4004 226C41.6834 226 41.1004 226.561 41.1004 227.25C41.1004 227.939 41.6834 228.5 42.4004 228.5ZM44.9862 232.924L44.0599 229.295C43.9929 229.031 43.7451 228.846 43.4546 228.822C43.1499 229.012 42.7884 229.125 42.3984 229.125C42.0084 229.125 41.6468 229.012 41.3421 228.822C41.0516 228.846 40.8038 229.031 40.7368 229.295L39.8105 232.924C39.7395 233.219 39.9832 233.5 40.3123 233.5H41.4254V235.531C41.4254 235.791 41.6427 236 41.9129 236H42.8879C43.158 236 43.3754 235.791 43.3754 235.531V233.5H44.4885C44.8176 233.5 45.0613 233.219 44.9862 232.924ZM38.8254 226H38.1754C37.9966 226 37.8504 226.141 37.8504 226.312V235.688C37.8504 235.859 37.9966 236 38.1754 236H38.8254C39.0041 236 39.1504 235.859 39.1504 235.688V226.312C39.1504 226.141 39.0041 226 38.8254 226ZM35.6587 228.82C35.354 229.012 34.9904 229.125 34.6004 229.125C34.2104 229.125 33.8468 229.012 33.5421 228.82C33.0424 228.861 32.6504 229.26 32.6504 229.75V232.406C32.6504 232.666 32.8677 232.875 33.1379 232.875H33.3004V235.531C33.3004 235.791 33.5177 236 33.7879 236H35.4129C35.683 236 35.9004 235.791 35.9004 235.531V232.875H36.0629C36.333 232.875 36.5504 232.666 36.5504 232.406V229.75C36.5504 229.26 36.1584 228.861 35.6587 228.82Z" fill="black"/>
</g>
<path d="M75.7002 216.8H73.0002C72.5228 216.8 72.065 216.99 71.7274 217.327C71.3898 217.665 71.2002 218.123 71.2002 218.6V222.8C71.2002 223.277 71.3898 223.735 71.7274 224.073C72.065 224.41 72.5228 224.6 73.0002 224.6H75.7002V216.8ZM73.3878 219.288C73.4157 219.26 73.4488 219.238 73.4852 219.222C73.5217 219.207 73.5607 219.2 73.6002 219.2C73.6397 219.2 73.6787 219.207 73.7152 219.222C73.7516 219.238 73.7847 219.26 73.8126 219.288L74.7126 220.188C74.7405 220.216 74.7626 220.249 74.7777 220.285C74.7928 220.322 74.8006 220.361 74.8006 220.4C74.8006 220.439 74.7928 220.479 74.7777 220.515C74.7626 220.551 74.7405 220.585 74.7126 220.612C74.6847 220.64 74.6516 220.662 74.6151 220.678C74.5787 220.693 74.5396 220.7 74.5002 220.7C74.4607 220.7 74.4217 220.693 74.3852 220.678C74.3488 220.662 74.3157 220.64 74.2878 220.612L73.9002 220.224V221.9C73.9002 221.98 73.8686 222.056 73.8123 222.112C73.7561 222.168 73.6798 222.2 73.6002 222.2C73.5206 222.2 73.4443 222.168 73.3881 222.112C73.3318 222.056 73.3002 221.98 73.3002 221.9V220.224L72.9126 220.612C72.8847 220.64 72.8516 220.662 72.8151 220.678C72.7787 220.693 72.7396 220.7 72.7002 220.7C72.6607 220.7 72.6217 220.693 72.5852 220.678C72.5488 220.662 72.5157 220.64 72.4878 220.612C72.4599 220.585 72.4378 220.551 72.4227 220.515C72.4076 220.479 72.3998 220.439 72.3998 220.4C72.3998 220.361 72.4076 220.322 72.4227 220.285C72.4378 220.249 72.4599 220.216 72.4878 220.188L73.3878 219.288ZM76.3002 224.6H79.0002C79.4776 224.6 79.9354 224.41 80.273 224.073C80.6106 223.735 80.8002 223.277 80.8002 222.8V218.6C80.8002 218.123 80.6106 217.665 80.273 217.327C79.9354 216.99 79.4776 216.8 79.0002 216.8H76.3002V224.6ZM78.6126 222.112C78.5847 222.14 78.5516 222.163 78.5152 222.178C78.4787 222.193 78.4397 222.201 78.4002 222.201C78.3607 222.201 78.3217 222.193 78.2852 222.178C78.2488 222.163 78.2157 222.14 78.1878 222.112L77.2878 221.212C77.2315 221.156 77.1998 221.08 77.1998 221C77.1998 220.92 77.2315 220.844 77.2878 220.788C77.3441 220.731 77.4205 220.7 77.5002 220.7C77.5799 220.7 77.6563 220.731 77.7126 220.788L78.1002 221.176V219.5C78.1002 219.42 78.1318 219.344 78.1881 219.288C78.2443 219.232 78.3206 219.2 78.4002 219.2C78.4798 219.2 78.5561 219.232 78.6123 219.288C78.6686 219.344 78.7002 219.42 78.7002 219.5V221.176L79.0878 220.788C79.1441 220.731 79.2205 220.7 79.3002 220.7C79.3799 220.7 79.4563 220.731 79.5126 220.788C79.5689 220.844 79.6006 220.92 79.6006 221C79.6006 221.08 79.5689 221.156 79.5126 221.212L78.6126 222.112Z" fill="black"/>
<path d="M232.5 230H234.15L236.65 225.5H237.5C237.708 225.5 237.885 225.427 238.031 225.281C238.177 225.136 238.25 224.959 238.25 224.75C238.25 224.541 238.177 224.364 238.031 224.219C237.886 224.074 237.709 224.001 237.5 224H235.85L233.35 228.5H232.5C232.292 228.5 232.115 228.573 231.969 228.719C231.823 228.865 231.75 229.042 231.75 229.25C231.75 229.458 231.823 229.635 231.969 229.781C232.115 229.928 232.292 230.001 232.5 230ZM231.5 231.5C231.225 231.5 230.99 231.402 230.794 231.207C230.598 231.011 230.5 230.775 230.5 230.5V223.5C230.5 223.225 230.598 222.99 230.794 222.794C230.99 222.598 231.225 222.5 231.5 222.5H238.5C238.775 222.5 239.011 222.598 239.207 222.794C239.403 222.99 239.5 223.225 239.5 223.5V230.5C239.5 230.775 239.402 231.011 239.207 231.207C239.011 231.403 238.775 231.5 238.5 231.5H231.5Z" fill="black"/>
<path d="M234.65 241.1H231.5C230.943 241.1 230.409 241.321 230.015 241.715C229.622 242.109 229.4 242.643 229.4 243.2V248.1C229.4 248.657 229.622 249.191 230.015 249.585C230.409 249.979 230.943 250.2 231.5 250.2H234.65V241.1ZM231.953 244.002C231.985 243.97 232.024 243.944 232.066 243.926C232.109 243.908 232.154 243.899 232.2 243.899C232.246 243.899 232.292 243.908 232.335 243.926C232.377 243.944 232.416 243.97 232.448 244.002L233.498 245.052C233.531 245.085 233.557 245.123 233.574 245.166C233.592 245.208 233.601 245.254 233.601 245.3C233.601 245.346 233.592 245.392 233.574 245.434C233.557 245.477 233.531 245.515 233.498 245.548C233.466 245.58 233.427 245.606 233.384 245.624C233.342 245.641 233.296 245.65 233.25 245.65C233.204 245.65 233.159 245.641 233.116 245.624C233.074 245.606 233.035 245.58 233.003 245.548L232.55 245.095V247.05C232.55 247.143 232.514 247.232 232.448 247.297C232.382 247.363 232.293 247.4 232.2 247.4C232.108 247.4 232.019 247.363 231.953 247.297C231.887 247.232 231.85 247.143 231.85 247.05V245.095L231.398 245.548C231.366 245.58 231.327 245.606 231.284 245.624C231.242 245.641 231.196 245.65 231.15 245.65C231.104 245.65 231.059 245.641 231.016 245.624C230.974 245.606 230.935 245.58 230.903 245.548C230.87 245.515 230.844 245.477 230.827 245.434C230.809 245.392 230.8 245.346 230.8 245.3C230.8 245.254 230.809 245.208 230.827 245.166C230.844 245.123 230.87 245.085 230.903 245.052L231.953 244.002ZM235.35 250.2H238.5C239.057 250.2 239.591 249.979 239.985 249.585C240.379 249.191 240.6 248.657 240.6 248.1V243.2C240.6 242.643 240.379 242.109 239.985 241.715C239.591 241.321 239.057 241.1 238.5 241.1H235.35V250.2ZM238.048 247.298C238.016 247.33 237.977 247.356 237.935 247.374C237.892 247.392 237.846 247.401 237.8 247.401C237.754 247.401 237.709 247.392 237.666 247.374C237.624 247.356 237.585 247.33 237.553 247.298L236.503 246.248C236.437 246.182 236.4 246.093 236.4 246C236.4 245.907 236.437 245.818 236.503 245.752C236.568 245.686 236.657 245.65 236.75 245.65C236.843 245.65 236.932 245.686 236.998 245.752L237.45 246.205V244.25C237.45 244.157 237.487 244.068 237.553 244.002C237.619 243.937 237.708 243.9 237.8 243.9C237.893 243.9 237.982 243.937 238.048 244.002C238.114 244.068 238.15 244.157 238.15 244.25V246.205L238.603 245.752C238.668 245.686 238.757 245.65 238.85 245.65C238.943 245.65 239.032 245.686 239.098 245.752C239.164 245.818 239.201 245.907 239.201 246C239.201 246.093 239.164 246.182 239.098 246.248L238.048 247.298Z" fill="black"/>
<g clip-path="url(#clip1_597_1935)">
<path d="M231.1 261.5C231.817 261.5 232.4 260.939 232.4 260.25C232.4 259.561 231.817 259 231.1 259C230.383 259 229.8 259.561 229.8 260.25C229.8 260.939 230.383 261.5 231.1 261.5ZM238.9 261.5C239.617 261.5 240.2 260.939 240.2 260.25C240.2 259.561 239.617 259 238.9 259C238.183 259 237.6 259.561 237.6 260.25C237.6 260.939 238.183 261.5 238.9 261.5ZM241.486 265.924L240.56 262.295C240.493 262.031 240.245 261.846 239.955 261.822C239.65 262.012 239.288 262.125 238.898 262.125C238.508 262.125 238.147 262.012 237.842 261.822C237.552 261.846 237.304 262.031 237.237 262.295L236.311 265.924C236.239 266.219 236.483 266.5 236.812 266.5H237.925V268.531C237.925 268.791 238.143 269 238.413 269H239.388C239.658 269 239.875 268.791 239.875 268.531V266.5H240.989C241.318 266.5 241.561 266.219 241.486 265.924ZM235.325 259H234.675C234.497 259 234.35 259.141 234.35 259.312V268.688C234.35 268.859 234.497 269 234.675 269H235.325C235.504 269 235.65 268.859 235.65 268.688V259.312C235.65 259.141 235.504 259 235.325 259ZM232.159 261.82C231.854 262.012 231.49 262.125 231.1 262.125C230.71 262.125 230.347 262.012 230.042 261.82C229.542 261.861 229.15 262.26 229.15 262.75V265.406C229.15 265.666 229.368 265.875 229.638 265.875H229.8V268.531C229.8 268.791 230.018 269 230.288 269H231.913C232.183 269 232.4 268.791 232.4 268.531V265.875H232.563C232.833 265.875 233.05 265.666 233.05 265.406V262.75C233.05 262.26 232.658 261.861 232.159 261.82Z" fill="black"/>
</g>
<rect x="55.5" y="215.5" width="5" height="21" fill="white" stroke="#D9D9D9"/>
<rect x="61.5" y="215.5" width="5" height="21" fill="white" stroke="#D9D9D9"/>
<path d="M56 218H66.5M56 221.5H66M56 225H66.5M56 228H66.5M56 231H66.5M56 233.5H66.5" stroke="#D9D9D9"/>
<rect x="239" y="95" width="36" height="23" fill="#D9D9D9"/>
<path d="M245.766 102.95V96.99H248.966V97.73H246.636V102.21H246.966C247.533 102.21 248.046 102.173 248.506 102.1C248.973 102.02 249.356 101.947 249.656 101.88V102.59C249.496 102.637 249.306 102.683 249.086 102.73C248.866 102.77 248.633 102.807 248.386 102.84C248.139 102.873 247.883 102.9 247.616 102.92C247.356 102.94 247.103 102.95 246.856 102.95H245.766ZM253.086 105.33H252.226V100.34H250.976V105.1H250.136V96.3H250.976V99.6H252.226V96.2H253.086V105.33ZM259.442 96.67C259.435 96.93 259.422 97.2067 259.402 97.5C259.389 97.7933 259.369 98.09 259.342 98.39C259.315 98.6833 259.282 98.9733 259.242 99.26C259.202 99.54 259.159 99.7967 259.112 100.03H258.272C258.359 99.61 258.429 99.1767 258.482 98.73C258.535 98.2767 258.569 97.8333 258.582 97.4H254.922V96.67H259.442ZM260.682 103.19V96.2H261.542V99.32H262.862V100.08H261.542V103.19H260.682ZM257.072 98.83V100.82C257.625 100.8 258.182 100.773 258.742 100.74C259.302 100.7 259.802 100.65 260.242 100.59V101.3C259.922 101.347 259.569 101.387 259.182 101.42C258.802 101.453 258.409 101.483 258.002 101.51C257.602 101.53 257.202 101.547 256.802 101.56C256.402 101.573 256.025 101.58 255.672 101.58H254.192V100.84H256.202V98.83H257.072ZM261.692 105.15H255.742V102.58H256.612V104.4H261.692V105.15ZM271.858 100.48H270.288V105.33H269.428V96.2H270.288V99.72H271.858V100.48ZM266.748 100.13C267.035 100.57 267.368 101 267.748 101.42C268.128 101.84 268.541 102.21 268.988 102.53L268.348 103.15C267.948 102.843 267.578 102.497 267.238 102.11C266.905 101.723 266.591 101.31 266.298 100.87C265.931 101.41 265.518 101.9 265.058 102.34C264.598 102.78 264.108 103.15 263.588 103.45L262.978 102.87C263.511 102.583 263.995 102.227 264.428 101.8C264.861 101.373 265.235 100.923 265.548 100.45C265.868 99.9767 266.121 99.5 266.308 99.02C266.501 98.54 266.618 98.1 266.658 97.7C266.278 97.7133 265.905 97.7233 265.538 97.73C265.178 97.73 264.811 97.73 264.438 97.73H263.498V97H265.008C265.435 97 265.868 97 266.308 97C266.748 97 267.205 96.9933 267.678 96.98C267.658 97.52 267.568 98.0567 267.408 98.59C267.248 99.1167 267.028 99.63 266.748 100.13ZM254.026 111.56H252.456V116.33H251.596V107.2H252.456V110.8H254.026V111.56ZM245.626 114.33L245.006 113.78C245.413 113.487 245.789 113.15 246.136 112.77C246.483 112.39 246.776 111.957 247.016 111.47C247.256 110.977 247.433 110.423 247.546 109.81C247.666 109.197 247.699 108.513 247.646 107.76H248.556C248.569 108.2 248.556 108.617 248.516 109.01C248.476 109.403 248.419 109.78 248.346 110.14C248.586 110.827 248.926 111.457 249.366 112.03C249.806 112.597 250.329 113.083 250.936 113.49L250.376 114.13C249.876 113.777 249.426 113.36 249.026 112.88C248.633 112.393 248.296 111.847 248.016 111.24C247.763 111.893 247.433 112.477 247.026 112.99C246.626 113.497 246.159 113.943 245.626 114.33ZM254.252 113.17V112.44H262.752V113.17H259.032V116.28H258.152V113.17H254.252ZM255.662 111.29V107.52H261.462V111.29H255.662ZM260.602 108.27H256.522V110.56H260.602V108.27ZM266.598 107.38C266.611 107.64 266.601 107.89 266.568 108.13C266.541 108.37 266.501 108.597 266.448 108.81C266.681 109.23 266.998 109.63 267.398 110.01C267.805 110.383 268.305 110.697 268.898 110.95L268.358 111.56C267.858 111.34 267.425 111.07 267.058 110.75C266.698 110.43 266.381 110.07 266.108 109.67C265.855 110.143 265.525 110.557 265.118 110.91C264.718 111.257 264.268 111.56 263.768 111.82L263.168 111.24C263.581 111.02 263.951 110.787 264.278 110.54C264.605 110.287 264.878 110.007 265.098 109.7C265.325 109.387 265.488 109.04 265.588 108.66C265.695 108.28 265.735 107.853 265.708 107.38H266.598ZM269.908 107.2H270.768V111.82H269.908V107.2ZM270.968 116.23H265.028V113.91H269.918V113.08H265.028V112.34H270.768V114.64H265.878V115.49H270.968V116.23Z" fill="black"/>
<defs>
<clipPath id="clip0_597_1935">
<rect width="13" height="10" fill="white" transform="translate(32 226)"/>
</clipPath>
<clipPath id="clip1_597_1935">
<rect width="13" height="10" fill="white" transform="translate(228.5 259)"/>
</clipPath>
</defs>
</svg>
