<svg width="51" height="40" viewBox="0 0 51 40" fill="none" xmlns="http://www.w3.org/2000/svg">
<path d="M6.5 16.5C6 11.8333 7.062 1 15.5 1C25 1 25.6668 10.6667 25.5002 16C25.5002 11 26.5 0.999999 35 1C43.9998 1 44.5002 12 44.5002 16M10.5 25H21.5M29 25H41M3.5 19C4.5 17.1667 7 15 9.5 19V31H3.5V19Z" stroke="black" stroke-width="2" stroke-linecap="round" stroke-linejoin="round"/>
<path d="M42 31V18.5C42.8333 17 45.5 15.5 47.5 18.5V31" stroke="black" stroke-width="2" stroke-linecap="round" stroke-linejoin="round"/>
<path d="M1 31H49.5" stroke="black" stroke-width="2" stroke-linecap="round"/>
<path d="M12.5 31V39" stroke="black" stroke-width="2" stroke-linecap="round"/>
<path d="M20.5 31V39" stroke="black" stroke-width="2" stroke-linecap="round"/>
<path d="M30.5 31V39" stroke="black" stroke-width="2" stroke-linecap="round"/>
<path d="M38.5 31V39" stroke="black" stroke-width="2" stroke-linecap="round"/>
<path d="M6.5 39H44.5" stroke="black" stroke-width="2" stroke-linecap="round"/>
<path d="M22.5 30.9877H28" stroke="#E40030" stroke-width="2" stroke-linecap="round" stroke-linejoin="round"/>
<path d="M22.5 30.9877V18.9877C23.3333 17.4877 26 16 28 18.9877V24.9877V30.9877" stroke="#E40030" stroke-width="2" stroke-linecap="round" stroke-linejoin="round"/>
</svg>
