<svg width="57" height="56" viewBox="0 0 57 56" fill="none" xmlns="http://www.w3.org/2000/svg">
<path d="M5.5 15H2V12L28 2L54 11V15H51M5.5 15C5 17.1667 4.6 21.6 7 22H8.5M5.5 15H51M48.5 22C49.8333 21.5192 52.2 19.4462 51 15M48.5 22V40.5M48.5 22H42M8.5 22V40.5M8.5 22H14.5M8.5 40.5H14.5M8.5 40.5C7.33333 41.3333 5.1 43.9 5.5 47.5M48.5 40.5H42M48.5 40.5C52.1 43.3 51.6667 46.3333 51 47.5M42 22V40.5M42 22H31.5M42 40.5H31.5M31.5 22V40.5M31.5 22H25.5M31.5 40.5H25.5M25.5 22V40.5M25.5 22H14.5M25.5 40.5H14.5M14.5 22V40.5M5.5 47.5H51M5.5 47.5C4.33333 47.8333 2 49.7 2 54.5H55C55.3333 52.8333 55 49.1 51 47.5" stroke="black" stroke-width="3" stroke-linecap="round" stroke-linejoin="round"/>
<path d="M25.5 40.5V22H31.5V40.5H25.5Z" stroke="#E40030" stroke-width="3" stroke-linejoin="round"/>
</svg>
