<svg width="56" height="52" viewBox="0 0 56 52" fill="none" xmlns="http://www.w3.org/2000/svg">
<path d="M46.284 7.1123H9.71261C5.92552 7.1123 2.85547 10.1163 2.85547 13.822V42.5672C2.85547 46.2729 5.92552 49.2769 9.71261 49.2769H46.284C50.0711 49.2769 53.1412 46.2729 53.1412 42.5672V13.822C53.1412 10.1163 50.0711 7.1123 46.284 7.1123Z" stroke="black" stroke-width="2"/>
<path d="M17.6602 2.23633V10.1559" stroke="black" stroke-width="2" stroke-linecap="round"/>
<path d="M28 2.23633V10.1559" stroke="black" stroke-width="2" stroke-linecap="round"/>
<path d="M53.181 16.7559H2.82031" stroke="black" stroke-width="2" stroke-linecap="round"/>
<path d="M38.3438 2.23633V10.1559" stroke="black" stroke-width="2" stroke-linecap="round"/>
<path d="M26.9644 23.3569C27.3728 22.4904 28.6314 22.4904 29.0399 23.3569L30.652 26.7768C30.8185 27.13 31.1605 27.3731 31.5552 27.4189L35.3774 27.8624C36.3458 27.9747 36.7348 29.146 36.0188 29.7939L33.193 32.3509C32.9012 32.615 32.7705 33.0084 32.848 33.3899L33.5981 37.0838C33.7881 38.0198 32.7699 38.7437 31.9189 38.2776L28.5604 36.438C28.2135 36.2481 27.7908 36.2481 27.4439 36.438L24.0853 38.2776C23.2344 38.7437 22.2161 38.0198 22.4062 37.0838L23.1563 33.3899C23.2338 33.0084 23.1031 32.615 22.8113 32.3509L19.9855 29.7939C19.2695 29.146 19.6584 27.9747 20.6269 27.8624L24.449 27.4189C24.8437 27.3731 25.1858 27.13 25.3522 26.7768L26.9644 23.3569Z" fill="#E40030"/>
</svg>
