<svg width="71" height="33" viewBox="0 0 71 33" fill="none" xmlns="http://www.w3.org/2000/svg">
<path d="M17.92 7.78133C16.88 6.76799 15.7333 5.98133 14.48 5.42133C13.2533 4.83466 11.9067 4.54133 10.44 4.54133C7.16 4.54133 5.52 5.72799 5.52 8.10133C5.52 9.27466 5.88 10.208 6.6 10.9013C7.34667 11.568 8.36 12.168 9.64 12.7013L12.4 13.9013C14.8267 14.968 16.6933 16.2213 18 17.6613C19.3333 19.1013 20 20.8613 20 22.9413C20 24.488 19.7333 25.8347 19.2 26.9813C18.6667 28.128 17.9067 29.0747 16.92 29.8213C15.96 30.568 14.8 31.1147 13.44 31.4613C12.1067 31.8347 10.6267 32.0213 9 32.0213C7.24 32.0213 5.61333 31.7947 4.12 31.3413C2.62667 30.888 1.29333 30.1413 0.12 29.1013V23.9013C0.12 23.7413 0.186667 23.6347 0.32 23.5813C0.453333 23.5013 0.573333 23.5147 0.68 23.6213C1.24 24.2613 1.81333 24.8347 2.4 25.3413C2.98667 25.848 3.61333 26.2747 4.28 26.6213C4.94667 26.968 5.66667 27.2347 6.44 27.4213C7.24 27.608 8.10667 27.7013 9.04 27.7013C11.0133 27.7013 12.4267 27.3413 13.28 26.6213C14.16 25.8747 14.6 24.7413 14.6 23.2213C14.6 22.048 14.2 21.0747 13.4 20.3013C12.6 19.5013 11.44 18.768 9.92 18.1013L7.16 16.9013C6.17333 16.4747 5.25333 15.9947 4.4 15.4613C3.57333 14.928 2.85333 14.328 2.24 13.6613C1.65333 12.968 1.18667 12.1813 0.84 11.3013C0.493333 10.4213 0.32 9.39466 0.32 8.22133C0.32 6.91466 0.56 5.76799 1.04 4.78133C1.52 3.79466 2.2 2.98133 3.08 2.34133C3.96 1.67466 5.01333 1.16799 6.24 0.821328C7.46667 0.474661 8.81333 0.301327 10.28 0.301327C10.92 0.301327 11.6 0.341327 12.32 0.421326C13.04 0.501326 13.76 0.63466 14.48 0.821328C15.2 1.00799 15.8933 1.27466 16.56 1.62133C17.2533 1.94133 17.8933 2.35466 18.48 2.86133V7.50133C18.48 7.66133 18.4133 7.78133 18.28 7.86133C18.1467 7.91466 18.0267 7.88799 17.92 7.78133ZM70.1325 23.2613C70.2392 23.128 70.3592 23.1013 70.4925 23.1813C70.6258 23.2613 70.6925 23.3813 70.6925 23.5413V28.6213C69.3058 29.8213 67.7725 30.688 66.0925 31.2213C64.4392 31.7547 62.6525 32.0213 60.7325 32.0213C58.5458 32.0213 56.5858 31.648 54.8525 30.9013C53.1458 30.1813 51.6925 29.1413 50.4925 27.7813C49.2925 26.3947 48.3725 24.728 47.7325 22.7813C47.1192 20.8347 46.8125 18.648 46.8125 16.2213C46.8125 13.7413 47.1725 11.528 47.8925 9.58133C48.6392 7.60799 49.6525 5.94133 50.9325 4.58133C52.2125 3.22133 53.7325 2.18133 55.4925 1.46133C57.2525 0.741326 59.1592 0.381326 61.2125 0.381326C63.1858 0.381326 64.9058 0.59466 66.3725 1.02133C67.8392 1.42133 69.1992 2.18133 70.4525 3.30133V8.34133C70.4525 8.50133 70.3858 8.62133 70.2525 8.70133C70.1192 8.78133 69.9992 8.75466 69.8925 8.62133C68.6125 7.18133 67.2925 6.15466 65.9325 5.54133C64.5725 4.90133 63.0925 4.58133 61.4925 4.58133C60.1325 4.58133 58.8792 4.83466 57.7325 5.34133C56.5858 5.82133 55.5858 6.54133 54.7325 7.50133C53.9058 8.46133 53.2525 9.66133 52.7725 11.1013C52.2925 12.5147 52.0525 14.168 52.0525 16.0613C52.0525 20.008 52.8392 22.9413 54.4125 24.8613C55.9858 26.7813 58.2925 27.7413 61.3325 27.7413C63.0125 27.7413 64.5858 27.3547 66.0525 26.5813C67.5192 25.7813 68.8792 24.6747 70.1325 23.2613Z" fill="black"/>
<path d="M37.1919 0.741326L47.5119 31.6613H42.4719L39.7519 23.1813H29.2319L26.4719 31.6613H21.4319L31.7119 0.741326H37.1919ZM34.4719 5.26133L33.6719 8.22133L30.2319 19.1813H38.7119L35.2719 8.22133L34.4719 5.26133Z" fill="#E40030"/>
</svg>
