<svg width="40" height="22" viewBox="0 0 40 22" fill="none" xmlns="http://www.w3.org/2000/svg">
<rect width="40" height="21.6" rx="10.8" fill="#2F4FA2"/>
<path d="M10.767 14V8.54545H11.5767V9.39773H11.6477C11.7614 9.10653 11.9448 8.88045 12.1982 8.71946C12.4515 8.55611 12.7557 8.47443 13.1108 8.47443C13.4706 8.47443 13.7701 8.55611 14.0092 8.71946C14.2507 8.88045 14.4389 9.10653 14.5739 9.39773H14.6307C14.7704 9.116 14.9799 8.89228 15.2592 8.72656C15.5386 8.55848 15.8736 8.47443 16.2642 8.47443C16.7519 8.47443 17.1508 8.62713 17.4609 8.93253C17.7711 9.23556 17.9261 9.70786 17.9261 10.3494V14H17.0881V10.3494C17.0881 9.94697 16.978 9.65933 16.7578 9.48651C16.5376 9.31368 16.2784 9.22727 15.9801 9.22727C15.5966 9.22727 15.2995 9.34328 15.0888 9.57528C14.8781 9.80492 14.7727 10.0961 14.7727 10.4489V14H13.9205V10.2642C13.9205 9.95407 13.8198 9.70431 13.6186 9.51491C13.4174 9.32315 13.1581 9.22727 12.8409 9.22727C12.6231 9.22727 12.4195 9.28527 12.2301 9.40128C12.0431 9.51728 11.8916 9.67827 11.7756 9.88423C11.6619 10.0878 11.6051 10.3234 11.6051 10.5909V14H10.767ZM21.0636 14.1278C20.7179 14.1278 20.4042 14.0627 20.1225 13.9325C19.8408 13.8 19.6171 13.6094 19.4513 13.3608C19.2856 13.1098 19.2028 12.8068 19.2028 12.4517C19.2028 12.1392 19.2643 11.8859 19.3874 11.6918C19.5105 11.4953 19.6751 11.3414 19.881 11.2301C20.087 11.1188 20.3143 11.036 20.5629 10.9815C20.8138 10.9247 21.0659 10.8797 21.3192 10.8466C21.6507 10.804 21.9194 10.772 22.1254 10.7507C22.3337 10.727 22.4852 10.688 22.5799 10.6335C22.677 10.5791 22.7255 10.4844 22.7255 10.3494V10.321C22.7255 9.97064 22.6296 9.69839 22.4379 9.50426C22.2485 9.31013 21.9608 9.21307 21.5749 9.21307C21.1748 9.21307 20.8612 9.30066 20.6339 9.47585C20.4066 9.65104 20.2468 9.83807 20.1545 10.0369L19.359 9.75284C19.5011 9.4214 19.6905 9.16335 19.9272 8.97869C20.1663 8.79167 20.4267 8.66146 20.7085 8.58807C20.9925 8.51231 21.2719 8.47443 21.5465 8.47443C21.7217 8.47443 21.9229 8.49574 22.1502 8.53835C22.3799 8.5786 22.6012 8.66264 22.8143 8.79048C23.0297 8.91832 23.2085 9.11127 23.3505 9.36932C23.4925 9.62737 23.5636 9.97301 23.5636 10.4062V14H22.7255V13.2614H22.6829C22.6261 13.3797 22.5314 13.5064 22.3988 13.6413C22.2662 13.7763 22.0898 13.8911 21.8697 13.9858C21.6495 14.0805 21.3808 14.1278 21.0636 14.1278ZM21.1914 13.375C21.5228 13.375 21.8022 13.3099 22.0295 13.1797C22.2591 13.0495 22.4319 12.8814 22.5479 12.6754C22.6663 12.4695 22.7255 12.2528 22.7255 12.0256V11.2585C22.69 11.3011 22.6119 11.3402 22.4911 11.3757C22.3728 11.4089 22.2354 11.4384 22.0792 11.4645C21.9253 11.4882 21.775 11.5095 21.6282 11.5284C21.4838 11.545 21.3666 11.5592 21.2766 11.571C21.0588 11.5994 20.8552 11.6456 20.6658 11.7095C20.4788 11.7711 20.3273 11.8646 20.2113 11.9901C20.0977 12.1132 20.0408 12.2812 20.0408 12.4943C20.0408 12.7855 20.1486 13.0057 20.364 13.1548C20.5818 13.3016 20.8576 13.375 21.1914 13.375ZM25.0932 14V8.54545H25.9313V14H25.0932ZM25.5194 7.63636C25.356 7.63636 25.2151 7.58073 25.0968 7.46946C24.9808 7.35819 24.9228 7.22443 24.9228 7.06818C24.9228 6.91193 24.9808 6.77817 25.0968 6.6669C25.2151 6.55563 25.356 6.5 25.5194 6.5C25.6827 6.5 25.8224 6.55563 25.9384 6.6669C26.0568 6.77817 26.1159 6.91193 26.1159 7.06818C26.1159 7.22443 26.0568 7.35819 25.9384 7.46946C25.8224 7.58073 25.6827 7.63636 25.5194 7.63636ZM28.3043 6.72727V14H27.4663V6.72727H28.3043Z" fill="white"/>
</svg>
