<svg width="34" height="34" viewBox="0 0 34 34" fill="none" xmlns="http://www.w3.org/2000/svg">
<rect width="34" height="34" fill="#D9D9D9"/>
<path d="M11.3808 23.9657V23.3265L13.7813 20.6986C14.0631 20.3909 14.2951 20.1233 14.4774 19.8961C14.6596 19.6664 14.7946 19.451 14.8822 19.2498C14.9721 19.0462 15.0171 18.8331 15.0171 18.6106C15.0171 18.3549 14.9556 18.1335 14.8325 17.9465C14.7117 17.7595 14.546 17.6151 14.3353 17.5133C14.1246 17.4115 13.8879 17.3606 13.6251 17.3606C13.3457 17.3606 13.1019 17.4186 12.8935 17.5346C12.6876 17.6482 12.5278 17.808 12.4141 18.014C12.3029 18.2199 12.2472 18.4614 12.2472 18.7384H11.4092C11.4092 18.3123 11.5074 17.9382 11.7039 17.6162C11.9004 17.2943 12.1679 17.0433 12.5065 16.8634C12.8474 16.6835 13.2297 16.5935 13.6535 16.5935C14.0796 16.5935 14.4572 16.6835 14.7863 16.8634C15.1154 17.0433 15.3734 17.286 15.5605 17.5914C15.7475 17.8968 15.841 18.2365 15.841 18.6106C15.841 18.8781 15.7925 19.1397 15.6954 19.3954C15.6007 19.6487 15.435 19.9316 15.1982 20.2441C14.9639 20.5542 14.6383 20.933 14.2217 21.3804L12.5881 23.1276V23.1844H15.9688V23.9657H11.3808ZM19.7082 24.0651C19.2915 24.0651 18.9163 23.9822 18.5825 23.8165C18.2487 23.6508 17.9811 23.4235 17.7799 23.1347C17.5787 22.8459 17.4686 22.5168 17.4497 22.1475H18.3019C18.3351 22.4766 18.4842 22.7488 18.7494 22.9642C19.0169 23.1773 19.3365 23.2838 19.7082 23.2838C20.0065 23.2838 20.2716 23.214 20.5036 23.0743C20.738 22.9347 20.9215 22.7429 21.0541 22.499C21.189 22.2528 21.2565 21.9747 21.2565 21.6645C21.2565 21.3473 21.1866 21.0644 21.047 20.8158C20.9096 20.5649 20.7203 20.3672 20.4788 20.2228C20.2373 20.0784 19.9615 20.005 19.6514 20.0026C19.4288 20.0002 19.2004 20.0346 18.966 20.1056C18.7316 20.1742 18.5387 20.263 18.3872 20.3719L17.5633 20.2725L18.0036 16.6929H21.782V17.4742H18.7423L18.4866 19.6191H18.5292C18.6783 19.5007 18.8654 19.4025 19.0903 19.3243C19.3152 19.2462 19.5496 19.2071 19.7934 19.2071C20.2385 19.2071 20.635 19.3137 20.983 19.5267C21.3334 19.7374 21.608 20.0263 21.8069 20.3932C22.0081 20.7602 22.1087 21.1792 22.1087 21.6503C22.1087 22.1143 22.0046 22.5286 21.7962 22.8932C21.5903 23.2554 21.3062 23.5419 20.944 23.7526C20.5818 23.9609 20.1698 24.0651 19.7082 24.0651Z" fill="#2F4FA2"/>
<line y1="7" x2="34" y2="7" stroke="#2F4FA2" stroke-width="3"/>
</svg>
