<svg id="로고" xmlns="http://www.w3.org/2000/svg" width="123.219" height="123.21" viewBox="0 0 123.219 123.21">
  <defs>
    <style>
      .cls-1 {
        fill: #232c63;
      }

      .cls-1, .cls-2, .cls-3 {
        fill-rule: evenodd;
      }

      .cls-2 {
        fill: #fff;
      }

      .cls-3 {
        fill: #fae100;
      }
    </style>
  </defs>
  <path class="cls-1" d="M836.307,3480.37H959.516v123.21H836.307V3480.37Z" transform="translate(-836.312 -3480.38)"/>
  <path id="Shape_1_copy" data-name="Shape 1 copy" class="cls-2" d="M917.565,3507.66l16.21-8.45h2.114v2.12l-4.939,12.68s17.291,12.48,7.735,31.71c0,0-5.546,9.47-14.8,12.67,0,0-9.688,6.71-30.3,2.81,0,0-18.636-4.77-23.242-22.56,0,0-3.886-17.69,11.287-25.36a44.39,44.39,0,0,1,19.732-7.04A67.077,67.077,0,0,1,917.565,3507.66Z" transform="translate(-836.312 -3480.38)"/>
  <path class="cls-3" d="M877.056,3577.69l-16.206,8.45h-2.113v-2.11l4.932-12.68s-17.3-12.48-7.751-31.71c0,0,5.542-9.48,14.8-12.68,0,0,9.685-6.71,30.3-2.82,0,0,18.638,4.75,23.252,22.55,0,0,3.895,17.68-11.273,25.36a44.45,44.45,0,0,1-19.729,7.05A67.358,67.358,0,0,1,877.056,3577.69Z" transform="translate(-836.312 -3480.38)"/>
</svg>
