<svg width="191" height="105" viewBox="0 0 191 105" fill="none" xmlns="http://www.w3.org/2000/svg">
<mask id="mask0_597_722" style="mask-type:alpha" maskUnits="userSpaceOnUse" x="0" y="0" width="191" height="105">
<rect width="191" height="105" fill="#D9D9D9"/>
</mask>
<g mask="url(#mask0_597_722)">
<path d="M107.153 71.3051L93.1395 78.3241L82.0465 67.2061L76.9155 71.1601C76.9155 71.1601 84.8415 83.7991 89.6605 87.6941C90.3495 88.2511 91.2535 88.4481 92.1075 88.2121C97.5045 86.7211 113.191 80.4911 113.191 80.4911L107.153 71.3051Z" fill="#EFAD9C"/>
<path d="M67.9117 71.327C68.1187 71.767 68.6487 71.853 69.0567 71.682C70.3687 71.132 71.6527 70.52 72.9057 69.85C73.7297 71.307 74.8977 72.592 76.2947 73.509C77.6897 74.425 79.5267 74.894 81.1007 74.24C81.2317 74.239 81.3597 74.208 81.4707 74.14C82.8257 73.301 83.7157 71.906 84.0928 70.371C84.4377 68.965 84.3948 67.546 84.3148 66.114C84.2987 65.817 84.2857 65.519 84.2927 65.221C84.2957 65.074 84.3037 64.926 84.3177 64.78C84.3237 64.72 84.3307 64.66 84.3387 64.599C84.3407 64.584 84.3457 64.557 84.3507 64.534C84.3867 64.382 84.4337 64.237 84.4787 64.087C84.4837 64.071 84.4867 64.059 84.4897 64.049C84.4937 64.042 84.4977 64.036 84.5027 64.027C84.5367 63.965 84.5697 63.903 84.6067 63.843C84.6387 63.793 84.6767 63.746 84.7077 63.696C84.7257 63.673 84.7327 63.663 84.7287 63.667C84.7577 63.631 84.7878 63.595 84.8167 63.559C84.9327 63.414 85.0287 63.261 85.0847 63.08C85.2367 62.584 85.0357 62.035 84.5957 61.761C84.2537 61.548 83.8077 61.516 83.4227 61.613C82.7067 61.792 82.1017 62.371 81.7017 62.967C81.1507 63.787 80.9657 64.735 80.9207 65.698C80.7297 65.534 80.5377 65.37 80.3457 65.207C77.5157 62.801 74.6108 60.463 71.4398 58.517C71.0768 58.294 70.6067 58.379 70.3417 58.704C70.0907 59.01 70.0647 59.529 70.3737 59.818L73.5247 62.766C73.8657 63.085 74.2067 63.403 74.5437 63.726C72.4347 63.261 70.3267 62.795 68.2177 62.33C67.7997 62.238 67.4637 62.25 67.2797 62.654C67.1037 63.039 67.4207 63.456 67.7777 63.686C69.2917 64.665 71.0907 65.296 72.7977 65.843C71.2227 66.1 69.2447 66.541 67.6587 66.72C67.2377 66.767 66.9697 67.236 67.0027 67.621C67.0417 68.074 67.5357 68.179 67.9567 68.246C69.1637 68.437 70.8537 68.048 72.0707 68.065C71.0317 68.599 69.3437 69.732 68.2657 70.184C67.8287 70.365 67.7307 70.941 67.9117 71.327Z" fill="#EFAD9C"/>
<path d="M135.112 71.698L149.125 78.717L160.218 67.599L165.349 71.553C165.349 71.553 157.423 84.192 152.604 88.087C151.915 88.644 151.011 88.841 150.157 88.605C144.76 87.114 129.074 80.884 129.074 80.884L135.112 71.698Z" fill="#EFAD9C"/>
<path d="M173.999 70.574C172.921 70.122 171.233 68.989 170.194 68.456C171.411 68.44 173.101 68.828 174.308 68.637C174.73 68.57 175.224 68.465 175.262 68.012C175.295 67.628 175.027 67.159 174.606 67.111C173.02 66.932 171.042 66.492 169.467 66.234C171.174 65.687 172.973 65.056 174.487 64.077C174.844 63.846 175.161 63.43 174.985 63.045C174.801 62.642 174.465 62.629 174.047 62.721C171.938 63.186 169.83 63.652 167.721 64.117C168.058 63.794 168.399 63.476 168.74 63.157L171.891 60.209C172.199 59.92 172.174 59.402 171.923 59.095C171.657 58.771 171.187 58.686 170.825 58.908C167.653 60.853 164.749 63.192 161.919 65.598C161.727 65.761 161.535 65.925 161.344 66.089C161.299 65.127 161.114 64.179 160.563 63.358C160.163 62.763 159.558 62.183 158.842 62.004C158.457 61.908 158.011 61.939 157.669 62.152C157.229 62.426 157.028 62.975 157.18 63.471C157.236 63.653 157.331 63.805 157.448 63.95C157.477 63.986 157.507 64.022 157.536 64.058C157.533 64.055 157.54 64.064 157.557 64.087C157.588 64.137 157.627 64.184 157.658 64.234C157.696 64.294 157.728 64.356 157.762 64.418C157.767 64.427 157.771 64.434 157.775 64.44C157.778 64.45 157.781 64.462 157.786 64.478C157.831 64.628 157.878 64.773 157.914 64.925C157.919 64.948 157.924 64.975 157.926 64.99C157.934 65.05 157.941 65.11 157.947 65.17C157.961 65.317 157.969 65.464 157.972 65.611C157.979 65.909 157.967 66.207 157.95 66.504C157.87 67.937 157.827 69.355 158.172 70.761C158.549 72.296 159.439 73.691 160.794 74.53C160.905 74.599 161.033 74.63 161.164 74.63C162.738 75.284 164.575 74.814 165.97 73.899C167.368 72.982 168.535 71.697 169.359 70.24C170.612 70.911 171.896 71.523 173.208 72.072C173.616 72.243 174.146 72.157 174.353 71.717C174.535 71.334 174.437 70.758 173.999 70.574Z" fill="#EFAD9C"/>
<path d="M139.534 117.808C125.45 121.55 113.302 120.509 103.495 117.762C103.815 113.381 107.034 71.351 107.034 71.351C121.411 65.942 135.183 71.726 135.183 71.726C135.343 72.333 139.288 113.5 139.534 117.808Z" fill="#DD4545"/>
<path d="M141.222 33.731C143.549 40.988 142.157 49.528 137.481 55.484C132.805 61.44 125.125 64.635 117.885 63.637C112.846 62.942 108.11 56.998 105.56 52.4C103.009 47.802 101.956 42.295 102.612 36.987C102.928 34.427 103.665 31.849 105.209 29.828C106.753 27.808 109.462 26.161 111.894 26.477C112.677 24.865 113.983 23.226 115.509 22.288C116.042 21.961 116.642 21.679 117.266 21.727C117.889 21.775 118.515 22.262 118.517 22.887C120.149 21.586 122.148 20.656 124.172 20.148C124.701 20.015 125.272 19.914 125.782 20.108C126.292 20.302 126.685 20.898 126.473 21.4C128.385 20.281 130.776 19.983 132.969 20.297C133.726 20.405 134.516 20.628 135.03 21.194C135.545 21.76 135.645 22.754 135.061 23.248C136.028 23.412 137.053 23.681 137.961 24.053C138.869 24.425 139.716 25.023 140.206 25.874C140.695 26.725 140.769 27.849 140.232 28.671C141.15 29.023 141.73 29.804 141.977 30.755C142.223 31.708 141.853 32.977 141.222 33.731Z" fill="#5B3D31"/>
<path d="M110.671 32.8861C115.385 21.9531 135.686 23.6581 138.004 31.7891C142.772 48.5141 140.994 55.7261 136.635 60.1851C131.591 65.3451 126.654 64.6911 126.284 69.1901C125.221 79.1391 116.447 77.6951 116.359 69.1771C115.319 56.2121 109.9 53.6541 109.9 53.6541C109.9 53.6541 108.727 37.3941 110.671 32.8861Z" fill="#EFAD9C"/>
<path d="M122.838 48.2241C122.903 48.9311 123.53 49.4511 124.237 49.3861C124.944 49.3211 125.464 48.6941 125.399 47.9871C125.334 47.2801 124.707 46.7601 124 46.8251C123.293 46.8911 122.773 47.5171 122.838 48.2241Z" fill="#1B1B28"/>
<path d="M124.086 47.7561C124.11 48.0151 124.339 48.2051 124.598 48.1821C124.857 48.1581 125.048 47.9291 125.024 47.6701C125 47.4111 124.771 47.2211 124.512 47.2441C124.253 47.2671 124.062 47.4971 124.086 47.7561Z" fill="white"/>
<path d="M134.657 47.4162C134.722 48.1232 135.349 48.6432 136.056 48.5782C136.763 48.5132 137.283 47.8862 137.218 47.1792C137.153 46.4722 136.526 45.9522 135.819 46.0172C135.111 46.0832 134.591 46.7092 134.657 47.4162Z" fill="#1B1B28"/>
<path d="M135.905 46.9482C135.929 47.2072 136.158 47.3972 136.417 47.3742C136.676 47.3502 136.866 47.1212 136.842 46.8622C136.818 46.6032 136.589 46.4132 136.33 46.4362C136.071 46.4592 135.881 46.6892 135.905 46.9482Z" fill="white"/>
<path d="M133.033 42.5841C134.538 41.3161 136.633 41.1871 138.271 42.3571C138.577 42.5761 138.673 43.0651 138.487 43.4051C138.297 43.7521 137.883 43.8451 137.576 43.6251C136.904 43.1451 136.089 42.9751 135.32 43.1041C134.932 43.1691 134.554 43.3101 134.211 43.5221C133.907 43.7101 133.623 44.0141 133.246 43.8411C133.156 43.8001 133.076 43.7341 133.01 43.6531C132.785 43.3761 132.747 42.8241 133.033 42.5841Z" fill="#5B3D31"/>
<path d="M125.965 43.3182C124.017 42.3692 121.627 42.6552 120.011 44.1272C119.708 44.4032 119.697 44.9022 119.974 45.1982C120.257 45.5012 120.741 45.5112 121.045 45.2352C121.708 44.6312 122.596 44.3142 123.487 44.2922C123.938 44.2802 124.391 44.3432 124.82 44.4782C125.2 44.5982 125.584 44.8362 125.972 44.5952C126.065 44.5372 126.142 44.4572 126.201 44.3642C126.401 44.0472 126.335 43.4982 125.965 43.3182Z" fill="#5B3D31"/>
<path d="M132.425 51.0841C132.497 51.0771 132.56 51.0232 132.575 50.9482C132.791 49.8272 132.385 49.4902 132.007 49.4052C131.624 49.3212 131.186 49.4582 130.707 49.8182C130.633 49.8742 130.618 49.9791 130.674 50.0541C130.731 50.1271 130.837 50.1412 130.91 50.0872C131.305 49.7902 131.65 49.6701 131.933 49.7341C132.272 49.8091 132.377 50.1971 132.244 50.8851C132.227 50.9751 132.286 51.0642 132.377 51.0822C132.393 51.0852 132.41 51.0861 132.425 51.0841Z" fill="#C17E52"/>
<path d="M120.128 51.6202C120.143 52.1192 120.965 52.5002 121.965 52.4702C122.965 52.4402 123.763 52.0122 123.749 51.5122C123.735 51.0122 122.912 50.6322 121.912 50.6622C120.912 50.6922 120.114 51.1202 120.128 51.6202Z" fill="#E58F8F"/>
<path d="M136.639 51.2662C136.676 51.7642 137.514 52.1082 138.512 52.0352C139.509 51.9612 140.288 51.4982 140.252 51.0002C140.215 50.5022 139.377 50.1582 138.379 50.2312C137.381 50.3042 136.602 50.7682 136.639 51.2662Z" fill="#E58F8F"/>
<path d="M130.712 54.5332C131.133 54.5022 131.564 54.3772 131.97 54.1242C132.16 54.0062 132.218 53.7572 132.099 53.5672C131.981 53.3782 131.732 53.3202 131.542 53.4382C130.561 54.0492 129.382 53.5822 129.024 53.1602C128.88 52.9912 128.624 52.9692 128.454 53.1142C128.284 53.2592 128.263 53.5142 128.408 53.6842C128.83 54.1792 129.742 54.6042 130.712 54.5332Z" fill="#C17E52"/>
<path d="M114.38 36.153C114.948 40.266 112.92 46.2541 110.34 49.5081L107.326 47.6211C107.326 47.6211 107.254 41.0741 107.009 35.8481C106.764 30.6221 109.626 27.177 116.756 25.166C123.886 23.155 133.044 22.9211 135.778 27.0641C139.664 32.9531 140.146 37.4481 140.146 37.4481C140.482 37.6021 140.419 38.226 140.248 38.553C140.077 38.88 139.702 39.0631 139.334 39.0931C138.966 39.1241 138.6 39.026 138.248 38.916C136.809 38.464 135.455 37.7801 134.108 37.0991C134.443 37.3161 134.398 37.9951 134.178 38.3281C133.958 38.6611 133.54 38.8221 133.141 38.8271C132.742 38.8331 132.354 38.7061 131.978 38.5691C130.681 38.0971 129.434 37.493 128.231 36.816C128.634 36.947 128.706 37.543 128.54 37.933C128.373 38.323 127.955 38.5601 127.535 38.6171C127.115 38.6741 126.69 38.579 126.281 38.467C124.631 38.015 123.073 37.275 121.575 36.45C121.94 36.491 122.118 37.0241 122.041 37.3831C121.964 37.7421 121.645 38.0121 121.296 38.1251C120.946 38.2371 120.569 38.2171 120.204 38.1731C118.223 37.9341 116.175 37.026 114.38 36.153Z" fill="#5B3D31"/>
<path d="M105.553 54.4331C107.454 56.3161 110.207 56.6201 111.701 55.1111C113.196 53.6021 112.866 50.8531 110.966 48.9691C109.065 47.0861 106.312 46.7821 104.818 48.2911C103.324 49.8001 103.653 52.5501 105.553 54.4331Z" fill="#EFAD9C"/>
<path d="M106.028 49.1871C106.72 48.7351 107.693 48.6631 108.628 48.9971C109.094 49.1631 109.441 49.3861 109.692 49.6771C110.023 50.0631 110.152 50.5741 110.029 51.0111C109.92 51.4031 109.641 51.6761 109.394 51.9181C109.216 52.0931 109.047 52.2581 108.96 52.4441C108.827 52.7301 108.902 53.1081 109.135 53.3211C109.368 53.5341 109.75 53.5741 110.023 53.4161C110.184 53.3231 110.389 53.3781 110.482 53.5381C110.575 53.6981 110.521 53.9041 110.36 53.9971C110.184 54.0991 109.989 54.1581 109.789 54.1761C109.392 54.2131 108.979 54.0881 108.681 53.8151C108.233 53.4051 108.094 52.7091 108.35 52.1591C108.488 51.8621 108.719 51.6361 108.923 51.4361C109.127 51.2361 109.32 51.0471 109.381 50.8271C109.443 50.6071 109.364 50.3271 109.18 50.1131C109.106 50.0271 109.009 49.9521 108.903 49.8801C108.57 49.9081 108.164 50.0491 107.975 50.2971C107.762 50.5781 107.685 50.9641 107.774 51.3041C107.821 51.4841 107.713 51.6671 107.534 51.7141C107.516 51.7191 107.498 51.7221 107.479 51.7241C107.318 51.7391 107.166 51.6361 107.124 51.4741C106.981 50.9321 107.099 50.3401 107.439 49.8921C107.566 49.7251 107.732 49.6051 107.908 49.5041C107.341 49.4061 106.797 49.4861 106.394 49.7491C105.896 50.0741 105.567 50.8251 105.89 51.3811C105.983 51.5421 105.928 51.7471 105.768 51.8401C105.607 51.9331 105.402 51.8781 105.309 51.7181C104.84 50.9081 105.169 49.7491 106.028 49.1871Z" fill="#C17E52"/>
<path d="M66.374 21.5776C73.7309 23.4186 79.435 29.6626 80.395 36.9276C81.525 45.4766 76.599 54.2026 77.174 62.8316C77.388 66.0466 78.354 69.3216 77.283 72.4476C76.321 75.2556 73.841 77.4406 71.1539 78.9486C64.327 82.7796 56.045 82.9396 48.528 81.6336C45.677 81.1376 42.838 80.4356 40.353 79.0856C37.868 77.7356 35.746 75.6776 34.832 73.0676C33.822 70.1856 34.357 66.9456 35.19 63.9126C36.023 60.8796 37.15 57.8656 37.314 54.7686C37.467 51.8696 36.766 49.0446 36.035 46.2756C35.304 43.5066 34.532 40.7106 34.541 37.8166C34.549 34.9216 35.432 31.8616 37.586 29.7076C39.053 28.2396 41.12 27.3536 43.183 27.3156C44.401 27.2936 45.935 27.5806 45.935 27.5806C45.935 27.5806 46.823 26.4646 47.663 25.8076C50.992 23.2056 55.097 21.5686 59.272 21.1236C61.666 20.8676 64.087 21.0046 66.374 21.5776Z" fill="#5B3D31"/>
<path d="M75.6126 144.747C70.7186 147.001 64.7136 146.54 60.2036 143.591C57.6586 145.5 54.4686 146.532 51.2886 146.476C48.1076 146.42 44.9706 145.187 42.4956 143.19C40.0506 144.273 37.3876 145.039 34.7246 144.789C32.0626 144.539 29.2596 143.343 28.0366 140.965C31.1256 131.12 32.4466 120.958 34.0116 110.758C39.2196 76.8076 40.6436 74.3076 41.1526 72.7306C41.1526 72.7306 59.0456 68.0406 69.7676 75.1206C69.7676 75.1206 68.7336 86.3486 70.1576 113.247C70.7176 123.818 73.3146 134.413 75.6126 144.747Z" fill="#5E80BC"/>
<path d="M71.6138 77.3196L84.2708 86.2977L96.7998 77.0867L101.226 81.7287C101.226 81.7287 91.5668 92.9047 86.2648 95.9917C85.5068 96.4327 84.5918 96.4896 83.7918 96.1306C78.7338 93.8596 64.3208 85.4016 64.3208 85.4016L71.6138 77.3196Z" fill="#EFAD9C"/>
<path d="M111.296 78.7826C110.227 78.3376 108.554 77.2196 107.524 76.6926C108.729 76.6736 110.403 77.0556 111.598 76.8636C112.016 76.7966 112.504 76.6916 112.542 76.2426C112.574 75.8626 112.308 75.3986 111.891 75.3526C110.321 75.1786 108.36 74.7466 106.801 74.4956C108.49 73.9506 110.27 73.3226 111.767 72.3496C112.12 72.1206 112.433 71.7076 112.258 71.3266C112.075 70.9276 111.742 70.9156 111.328 71.0076C109.241 71.4726 107.154 71.9376 105.068 72.4026C105.401 72.0826 105.738 71.7666 106.075 71.4496L109.189 68.5246C109.494 68.2386 109.468 67.7246 109.218 67.4216C108.954 67.1006 108.489 67.0176 108.13 67.2386C104.994 69.1716 102.123 71.4926 99.3249 73.8806C99.1349 74.0426 98.9459 74.2046 98.7559 74.3676C98.7099 73.4146 98.5249 72.4766 97.9769 71.6656C97.5789 71.0766 96.9789 70.5046 96.2699 70.3286C95.8889 70.2336 95.4469 70.2656 95.1089 70.4776C94.6739 70.7496 94.4759 71.2936 94.6269 71.7846C94.6819 71.9646 94.7769 72.1146 94.8929 72.2586C94.9219 72.2936 94.9519 72.3296 94.9809 72.3656C94.9779 72.3626 94.9849 72.3716 95.0019 72.3946C95.0329 72.4446 95.0709 72.4906 95.1019 72.5396C95.1399 72.5986 95.1719 72.6606 95.2059 72.7216C95.2109 72.7306 95.2149 72.7366 95.2189 72.7436C95.2219 72.7536 95.2249 72.7656 95.2299 72.7806C95.2749 72.9286 95.3219 73.0726 95.3579 73.2226C95.3629 73.2456 95.3679 73.2726 95.3699 73.2866C95.3779 73.3466 95.3858 73.4056 95.3908 73.4656C95.4058 73.6106 95.4129 73.7566 95.4169 73.9026C95.4239 74.1976 95.4129 74.4926 95.3969 74.7866C95.3209 76.2056 95.2809 77.6096 95.6259 79.0016C96.0019 80.5206 96.8859 81.9006 98.2299 82.7286C98.3399 82.7966 98.4669 82.8266 98.5969 82.8266C100.156 83.4706 101.975 83.0016 103.354 82.0926C104.736 81.1816 105.889 79.9076 106.702 78.4626C107.944 79.1236 109.217 79.7276 110.517 80.2686C110.921 80.4366 111.446 80.3506 111.65 79.9146C111.829 79.5336 111.73 78.9636 111.296 78.7826Z" fill="#EFAD9C"/>
<path d="M69.768 75.1206L79.457 82.3706L73.397 91.9816L62.855 85.9206L66.372 76.3606L69.768 75.1206Z" fill="#5E80BC"/>
<path d="M42.0198 84.9566L31.0288 95.9106L37.9848 109.819L32.6608 113.395C32.6608 113.395 23.2818 101.983 21.1378 96.2346C20.8308 95.4126 20.9298 94.5016 21.4198 93.7746C24.5148 89.1746 35.5328 76.7096 35.5328 76.7096L42.0198 84.9566Z" fill="#EFAD9C"/>
<path d="M26.4409 84.8676L34.6199 93.5446L43.8509 85.0286L41.1519 72.7306C41.1519 72.7306 33.8309 75.5106 26.4409 84.8676Z" fill="#5E80BC"/>
<path d="M47.0009 34.4487C52.2559 23.8967 72.2339 26.6857 74.0829 34.8497C77.8879 51.6447 75.7369 58.6777 71.1859 62.8487C65.9189 67.6757 61.0739 66.7617 60.4629 71.1887C59.3419 78.8457 50.4209 77.4427 50.6509 70.6367C50.3269 57.7627 45.1089 54.9387 45.1089 54.9387C45.1089 54.9387 44.8339 38.7997 47.0009 34.4487Z" fill="#EFAD9C"/>
<path d="M58.1957 50.2738C58.2217 50.9768 58.8127 51.5248 59.5157 51.4988C60.2187 51.4728 60.7667 50.8818 60.7407 50.1788C60.7147 49.4758 60.1237 48.9278 59.4207 48.9538C58.7177 48.9808 58.1697 49.5718 58.1957 50.2738Z" fill="#1B1B28"/>
<path d="M59.4549 49.8787C59.4649 50.1357 59.6809 50.3367 59.9379 50.3267C60.1949 50.3167 60.3959 50.1007 60.3869 49.8437C60.3779 49.5867 60.1609 49.3857 59.9039 49.3957C59.6469 49.4047 59.4459 49.6217 59.4549 49.8787Z" fill="white"/>
<path d="M69.9237 50.1177C69.9497 50.8207 70.5407 51.3687 71.2437 51.3427C71.9467 51.3167 72.4947 50.7257 72.4687 50.0227C72.4427 49.3197 71.8517 48.7718 71.1487 48.7978C70.4457 48.8248 69.8977 49.4147 69.9237 50.1177Z" fill="#1B1B28"/>
<path d="M71.184 49.7228C71.194 49.9798 71.4099 50.1808 71.6669 50.1718C71.9239 50.1618 72.1249 49.9458 72.1159 49.6888C72.1069 49.4318 71.8899 49.2308 71.6329 49.2398C71.3749 49.2488 71.174 49.4648 71.184 49.7228Z" fill="white"/>
<path d="M68.5818 45.2517C70.1388 44.0797 72.2168 44.0657 73.7718 45.3127C74.0628 45.5457 74.1307 46.0347 73.9277 46.3597C73.7207 46.6927 73.3078 46.7617 73.0148 46.5277C72.3768 46.0157 71.5798 45.8037 70.8128 45.8897C70.4248 45.9327 70.0448 46.0507 69.6938 46.2427C69.3828 46.4117 69.0857 46.6967 68.7227 46.5057C68.6357 46.4607 68.5608 46.3907 68.4998 46.3067C68.2928 46.0217 68.2858 45.4737 68.5818 45.2517Z" fill="#5B3D31"/>
<path d="M61.5539 45.5938C59.6799 44.5498 57.3019 44.7027 55.6229 46.0697C55.3089 46.3257 55.2709 46.8187 55.5279 47.1267C55.7909 47.4417 56.2699 47.4787 56.5849 47.2217C57.2739 46.6607 58.1679 46.3958 59.0499 46.4218C59.4959 46.4348 59.9409 46.5207 60.3579 46.6787C60.7269 46.8177 61.0929 47.0748 61.4899 46.8568C61.5849 46.8048 61.6659 46.7297 61.7289 46.6407C61.9449 46.3377 61.9099 45.7918 61.5539 45.5938Z" fill="#5B3D31"/>
<path d="M67.5182 53.6227C67.5902 53.6197 67.6552 53.5707 67.6732 53.4967C67.9472 52.3997 67.5651 52.0447 67.1951 51.9407C66.8211 51.8367 66.3812 51.9487 65.8882 52.2777C65.8122 52.3287 65.7922 52.4318 65.8432 52.5088C65.8952 52.5838 65.9992 52.6037 66.0742 52.5537C66.4812 52.2807 66.8281 52.1817 67.1051 52.2607C67.4361 52.3537 67.5191 52.7427 67.3501 53.4157C67.3281 53.5047 67.3821 53.5947 67.4711 53.6177C67.4871 53.6217 67.5032 53.6237 67.5182 53.6227Z" fill="#7C3F24"/>
<path d="M75.561 53.3007C75.582 53.7947 74.798 54.2307 73.808 54.2737C72.818 54.3167 71.999 53.9507 71.978 53.4567C71.957 52.9627 72.741 52.5267 73.731 52.4837C74.721 52.4407 75.539 52.8067 75.561 53.3007Z" fill="#E58F8F"/>
<path d="M59.231 54.1447C59.231 54.6397 58.428 55.0397 57.437 55.0387C56.447 55.0377 55.644 54.6367 55.644 54.1417C55.644 53.6467 56.447 53.2467 57.438 53.2477C58.429 53.2487 59.231 53.6497 59.231 54.1447Z" fill="#E58F8F"/>
<path d="M63.4211 55.0297C63.7421 54.4507 64.7291 54.9677 65.8651 54.9807C67.0011 54.9937 67.9991 54.4987 68.3071 55.0837C68.6971 55.8247 67.6961 57.6447 65.8351 57.6237C63.9741 57.6037 63.0141 55.7617 63.4211 55.0297Z" fill="#8E4136"/>
<path d="M63.5659 56.2486C63.9219 56.2076 64.3019 56.1826 64.7029 56.1876C66.0249 56.2026 67.1539 56.4866 67.6779 56.8816C67.2389 57.3076 66.6199 57.6326 65.8359 57.6236C64.7169 57.6116 63.9329 56.9406 63.5659 56.2486Z" fill="#C16B5B"/>
<path d="M65.8583 55.6187C64.8443 55.6077 63.9853 55.3577 63.6763 54.8067C64.1273 54.6317 64.9473 54.9707 65.8653 54.9807C66.7833 54.9907 67.6103 54.6697 68.0573 54.8557C67.7363 55.3997 66.8723 55.6297 65.8583 55.6187Z" fill="white"/>
<path d="M75.5681 39.8436C75.5681 39.8436 75.6601 36.0906 72.1381 30.0576C69.6601 25.8126 60.5941 25.5456 53.4361 27.1466C46.2781 28.7476 43.2611 31.9986 43.2191 37.1776C43.1771 42.3576 42.8921 48.8336 42.8921 48.8336L45.7691 50.8626C48.0631 48.2746 49.6611 44.4996 49.9111 40.9266C54.8121 42.0076 60.6211 39.5536 63.5141 35.4526C64.7201 37.3536 66.4321 38.8386 68.5381 39.6336C70.6451 40.4296 73.4071 40.4736 75.5681 39.8436Z" fill="#5B3D31"/>
<path d="M40.77 55.4726C42.547 57.4376 45.2519 57.8876 46.8119 56.4766C48.3719 55.0666 48.1959 52.3296 46.4189 50.3646C44.6419 48.3996 41.9369 47.9496 40.3769 49.3606C38.8169 50.7706 38.993 53.5066 40.77 55.4726Z" fill="#EFAD9C"/>
<path d="M41.524 50.3116C42.233 49.9026 43.198 49.8836 44.104 50.2656C44.556 50.4546 44.887 50.6936 45.119 50.9956C45.425 51.3956 45.525 51.9076 45.379 52.3326C45.25 52.7136 44.959 52.9696 44.702 53.1946C44.516 53.3576 44.341 53.5116 44.244 53.6916C44.097 53.9676 44.151 54.3446 44.37 54.5686C44.588 54.7916 44.964 54.8526 45.243 54.7106C45.408 54.6276 45.607 54.6936 45.69 54.8566C45.773 55.0196 45.708 55.2206 45.544 55.3046C45.365 55.3956 45.168 55.4436 44.97 55.4506C44.575 55.4656 44.174 55.3196 43.894 55.0336C43.473 54.6036 43.374 53.9076 43.657 53.3776C43.81 53.0916 44.05 52.8806 44.262 52.6946C44.475 52.5076 44.675 52.3316 44.748 52.1176C44.821 51.9036 44.759 51.6226 44.589 51.4006C44.521 51.3116 44.429 51.2316 44.328 51.1556C43.997 51.1646 43.588 51.2826 43.388 51.5176C43.162 51.7836 43.065 52.1606 43.135 52.5026C43.172 52.6826 43.055 52.8576 42.875 52.8946C42.857 52.8986 42.839 52.9006 42.821 52.9016C42.661 52.9076 42.516 52.7976 42.484 52.6356C42.373 52.0916 42.521 51.5136 42.881 51.0886C43.015 50.9306 43.186 50.8206 43.366 50.7306C42.81 50.6026 42.269 50.6526 41.856 50.8906C41.346 51.1846 40.98 51.9086 41.269 52.4766C41.352 52.6406 41.287 52.8406 41.123 52.9246C40.959 53.0076 40.76 52.9426 40.676 52.7786C40.257 51.9486 40.645 50.8206 41.524 50.3116Z" fill="#C16B5B"/>
</g>
</svg>
