<svg width="191" height="105" viewBox="0 0 191 105" fill="none" xmlns="http://www.w3.org/2000/svg">
<mask id="mask0_597_862" style="mask-type:alpha" maskUnits="userSpaceOnUse" x="0" y="0" width="191" height="105">
<rect width="191" height="105" fill="#D9D9D9"/>
</mask>
<g mask="url(#mask0_597_862)">
<path d="M121.325 77.4326L105.672 94.1884C106.182 101.267 105.699 108.865 104.677 116.32C92.7781 137.493 81.749 148.083 81.749 148.083L88.3512 151.677C97.5533 140.969 107.016 132.395 114.865 123.094C115.197 122.709 115.519 122.314 115.851 121.92C115.868 121.902 115.895 121.866 115.931 121.821C116.469 121.167 116.89 120.45 117.204 119.689C117.257 119.456 117.293 119.259 117.32 119.115C117.446 118.506 117.562 117.897 117.678 117.305C123.377 88.4091 121.325 77.4326 121.325 77.4326Z" fill="#EFAD9C"/>
<path d="M121.376 106.15L116.039 74.4336L112.456 71.7584C112.456 71.7584 106.89 77.7119 106.052 86.556C105.213 95.4 103.836 116.723 103.836 116.723L85.192 142.437C84.6143 143.259 84.4864 144.324 84.8891 145.244C85.5816 146.826 87.1293 149.067 90.4373 149.639C91.4011 149.806 92.3868 149.478 93.0582 148.765C97.7643 143.773 120.042 120.289 120.746 118.53C121.541 116.542 121.376 106.15 121.376 106.15Z" fill="#FD9206"/>
<path d="M124.427 65.3969C119.801 66.359 115.906 68.2341 112.456 71.7584C112.456 71.7584 116.607 119.695 114.278 157.516C114.149 159.607 115.528 161.506 117.557 162.027C140.697 167.962 157.538 164.124 164.13 162.014C165.956 161.429 167.192 159.718 167.172 157.8C166.618 104.506 151.939 66.759 151.939 66.759C146.514 64.5478 141.081 63.3363 135.637 63.408L124.427 65.3969Z" fill="#FD9206"/>
<path d="M134.824 143.581C140.677 143.214 144.543 128.907 143.459 111.625C142.375 94.3439 136.752 80.632 130.899 80.9991C125.046 81.3662 121.181 95.6733 122.265 112.955C123.349 130.236 128.972 143.948 134.824 143.581Z" fill="#EA6D07"/>
<path d="M114.712 122.377C114.706 122.377 114.699 122.377 114.693 122.377C114.446 122.366 114.254 122.158 114.264 121.91C114.778 109.285 114.28 98.9208 112.697 89.2915C112.657 89.0473 112.823 88.8171 113.067 88.7768C113.303 88.7356 113.542 88.9011 113.582 89.1462C115.175 98.8368 115.676 109.259 115.16 121.947C115.149 122.188 114.952 122.377 114.712 122.377Z" fill="#EA6D07"/>
<path d="M159.451 101C159.341 101 159.232 100.96 159.146 100.88C155.152 97.1709 151.829 92.5979 149.534 87.6545C149.43 87.4296 149.527 87.1634 149.752 87.0593C149.977 86.9534 150.244 87.0531 150.347 87.2764C152.593 92.1155 155.847 96.5931 159.755 100.223C159.938 100.391 159.948 100.675 159.779 100.856C159.691 100.952 159.571 101 159.451 101Z" fill="#EA6D07"/>
<path d="M156.791 73.3123L157.702 96.2238C163.096 100.837 168.159 106.523 172.742 112.49C179.435 135.838 178.977 147.606 178.977 147.606L186.956 146.472C185.81 132.4 185.819 122.128 184.722 110.008C184.681 109.501 184.628 108.994 184.58 108.482C184.58 108.456 184.573 108.413 184.567 108.355C184.48 107.513 184.266 106.709 183.945 105.951C183.817 105.749 183.701 105.585 183.619 105.465C183.274 104.948 182.922 104.437 182.584 103.938C166.04 79.5695 156.791 73.3123 156.791 73.3123Z" fill="#EFAD9C"/>
<path d="M183.812 104.315C178.912 97.2961 159.921 70.5985 151.94 66.7582L151.307 75.6276L156.169 96.5161L172.411 113.424L177.044 138.193C177.258 139.075 177.918 139.775 178.788 140.033C180.378 140.507 183.115 140.897 186.078 139.431C187.053 138.949 187.618 137.895 187.479 136.816L185.147 108.031C185.039 106.694 184.581 105.415 183.812 104.315Z" fill="#FD9206"/>
<path d="M106.626 28.1098C105.147 35.3651 107.332 43.5123 112.379 48.8417C117.426 54.171 125.049 56.5389 131.832 54.8836C136.552 53.7316 140.454 47.5189 142.414 42.8199C144.375 38.1208 144.82 32.682 143.661 27.5995C143.102 25.1484 142.141 22.7183 140.469 20.9071C138.797 19.096 136.056 17.7566 133.776 18.2932C132.869 16.8051 131.463 15.3405 129.917 14.5763C129.377 14.3093 128.778 14.0931 128.189 14.1999C127.602 14.3058 127.057 14.8372 127.117 15.4438C125.434 14.3382 123.44 13.6265 121.465 13.3254C120.948 13.2466 120.396 13.2028 119.93 13.4401C119.465 13.6764 119.152 14.291 119.404 14.7584C117.473 13.855 115.171 13.7937 113.117 14.3067C112.408 14.4835 111.68 14.7742 111.248 15.3721C110.817 15.9699 110.822 16.9425 111.427 17.3662C110.523 17.6174 109.577 17.9755 108.751 18.4219C107.925 18.8684 107.18 19.5293 106.8 20.4003C106.421 21.2713 106.465 22.3682 107.058 23.114C106.221 23.5421 105.748 24.3544 105.609 25.3007C105.47 26.2435 105.95 27.4384 106.626 28.1098Z" fill="white"/>
<path d="M133.231 25.1046C127.161 16.2527 109.498 21.2879 108.861 28.8837C107.549 44.5076 110.375 50.5784 115.006 53.7657C120.365 57.4537 123.529 56.5915 124.427 65.397C126.345 71.0012 133.496 69.2303 135.804 63.4247C134.472 51.7751 137.522 43.3425 137.522 43.3425C137.522 43.3425 135.733 28.755 133.231 25.1046Z" fill="#EFAD9C"/>
<path d="M123.717 40.6787C123.782 41.316 123.319 41.885 122.682 41.9498C122.045 42.0146 121.476 41.5515 121.411 40.9142C121.346 40.2769 121.809 39.7079 122.446 39.6431C123.084 39.5784 123.653 40.0414 123.717 40.6787Z" fill="#1B1B28"/>
<path d="M122.532 40.4809C122.556 40.7137 122.386 40.9221 122.153 40.9466C121.919 40.9702 121.711 40.8004 121.687 40.5675C121.664 40.3338 121.833 40.1255 122.066 40.1018C122.3 40.0782 122.508 40.2471 122.532 40.4809Z" fill="white"/>
<path d="M114.797 41.5891C114.862 42.2264 114.399 42.7954 113.762 42.8602C113.124 42.925 112.555 42.4619 112.49 41.8246C112.426 41.1873 112.889 40.6183 113.526 40.5535C114.162 40.4888 114.731 40.9518 114.797 41.5891Z" fill="#1B1B28"/>
<path d="M113.611 41.3913C113.635 41.6241 113.465 41.8324 113.232 41.857C112.999 41.8806 112.79 41.7108 112.766 41.4779C112.743 41.2451 112.913 41.0358 113.145 41.0122C113.379 40.9886 113.587 41.1584 113.611 41.3913Z" fill="white"/>
<path d="M115.108 36.9942C113.556 36.1337 111.68 36.384 110.435 37.7041C110.202 37.951 110.203 38.4009 110.426 38.6688C110.655 38.9428 111.037 38.9533 111.27 38.7056C111.782 38.1637 112.473 37.8722 113.175 37.852C113.53 37.8424 113.889 37.9011 114.228 38.0289C114.529 38.1427 114.834 38.3615 115.137 38.1435C115.21 38.0919 115.268 38.0192 115.313 37.9361C115.465 37.6525 115.403 37.1579 115.108 36.9942Z" fill="#D9D9D9"/>
<path d="M119.604 36.5355C121.162 35.3572 123.326 35.1953 125.012 36.216C125.328 36.4068 125.424 36.8463 125.231 37.157C125.033 37.4748 124.606 37.5676 124.29 37.3759C123.598 36.9574 122.758 36.8314 121.965 36.9653C121.564 37.0336 121.175 37.1675 120.818 37.3619C120.503 37.5334 120.204 37.8118 119.819 37.6647C119.726 37.6297 119.644 37.5719 119.576 37.5002C119.345 37.2568 119.308 36.7596 119.604 36.5355Z" fill="#D9D9D9"/>
<path d="M118.323 47.8551C117.694 47.919 117.025 47.8481 116.36 47.5802C116.049 47.4559 115.898 47.1031 116.024 46.7923C116.149 46.4824 116.501 46.3319 116.811 46.4562C118.419 47.1005 120.036 46.1043 120.455 45.3882C120.624 45.1011 120.995 45.0022 121.284 45.1711C121.573 45.3401 121.67 45.7112 121.501 46.0001C121.007 46.8414 119.772 47.7071 118.323 47.8551Z" fill="#C16B5B"/>
<path d="M116.549 44.5707C116.484 44.5777 116.42 44.54 116.393 44.477C116.007 43.5228 116.308 43.1543 116.628 43.0133C116.953 42.8724 117.363 42.917 117.849 43.1525C117.924 43.1884 117.956 43.2795 117.919 43.3556C117.882 43.43 117.79 43.4607 117.716 43.4256C117.315 43.2313 116.99 43.1858 116.75 43.2908C116.463 43.4169 116.437 43.7776 116.674 44.3632C116.705 44.4402 116.668 44.5286 116.59 44.5601C116.577 44.5654 116.562 44.5689 116.549 44.5707Z" fill="#C16B5B"/>
<path d="M132.255 27.863C132.112 31.9082 134.671 37.5142 137.495 40.4143L140.231 38.2863C140.231 38.2863 139.653 31.9301 139.373 26.8379C139.093 21.7458 135.977 18.6881 128.863 17.4433C121.75 16.1985 112.845 16.8786 110.604 21.1672C107.419 27.2625 107.396 31.6692 107.396 31.6692C107.086 31.8522 107.208 32.4501 107.407 32.7512C107.605 33.0514 107.986 33.1915 108.346 33.1845C108.706 33.1784 109.051 33.0471 109.381 32.9053C110.732 32.324 111.978 31.5265 113.217 30.7334C112.913 30.9768 113.024 31.6307 113.271 31.9318C113.518 32.233 113.938 32.3476 114.326 32.3135C114.713 32.2793 115.078 32.1174 115.428 31.9485C116.639 31.3619 117.789 30.6529 118.888 29.8773C118.51 30.0436 118.5 30.6292 118.699 30.9908C118.9 31.3523 119.329 31.5405 119.741 31.5545C120.154 31.5685 120.557 31.4346 120.942 31.2849C122.497 30.6835 123.935 29.8116 125.306 28.8627C124.956 28.9389 124.836 29.4729 124.946 29.8134C125.055 30.1539 125.391 30.385 125.742 30.4585C126.092 30.5329 126.456 30.4752 126.805 30.3973C128.705 29.9701 130.601 28.8881 132.255 27.863Z" fill="#D9D9D9"/>
<path d="M141.501 43.2768C140.147 45.2727 137.764 46.0194 136.18 44.9444C134.595 43.8695 134.409 41.3798 135.763 39.3831C137.117 37.3872 139.5 36.6405 141.085 37.7155C142.669 38.7904 142.856 41.2801 141.501 43.2768Z" fill="#EFAD9C"/>
<path d="M140.17 38.7187C139.479 38.4386 138.607 38.5445 137.837 39.0023C137.454 39.2299 137.185 39.4873 137.014 39.7884C136.788 40.1876 136.763 40.6621 136.948 41.0262C137.112 41.3536 137.407 41.5471 137.667 41.7178C137.856 41.8412 138.033 41.9585 138.143 42.1082C138.31 42.3384 138.309 42.6851 138.14 42.9153C137.971 43.1438 137.64 43.2462 137.371 43.1534C137.211 43.0991 137.04 43.1841 136.985 43.3416C136.931 43.4992 137.015 43.6725 137.174 43.7268C137.347 43.7863 137.53 43.8047 137.71 43.7863C138.068 43.7496 138.411 43.5675 138.628 43.2742C138.952 42.8339 138.954 42.194 138.632 41.751C138.459 41.5121 138.215 41.3527 138 41.2118C137.785 41.07 137.582 40.9361 137.489 40.7522C137.396 40.5684 137.417 40.3075 137.542 40.0852C137.592 39.9959 137.666 39.9127 137.747 39.8313C138.046 39.798 138.43 39.8523 138.641 40.0397C138.878 40.2515 139.013 40.5789 138.994 40.8958C138.983 41.063 139.11 41.2065 139.277 41.2162C139.294 41.2171 139.311 41.2171 139.327 41.2153C139.472 41.2004 139.589 41.0831 139.598 40.9326C139.629 40.4283 139.423 39.925 139.044 39.588C138.903 39.4628 138.735 39.3849 138.562 39.3262C139.047 39.1406 139.542 39.117 139.943 39.2798C140.441 39.4803 140.862 40.0878 140.673 40.6358C140.618 40.7942 140.702 40.9667 140.861 41.021C141.019 41.0752 141.191 40.9912 141.246 40.8328C141.52 40.0344 141.028 39.0662 140.17 38.7187Z" fill="#C16B5B"/>
<path d="M113.007 44.9585C111.963 44.9585 111.079 44.6328 110.376 43.9877C108.605 42.3638 108.638 39.3008 108.641 39.1713C108.644 39.0006 108.774 38.8588 108.945 38.843L116.884 38.0867C117.061 38.0709 117.222 38.1952 117.248 38.3729C117.267 38.5042 117.7 41.6127 116.214 43.522C115.579 44.3387 114.692 44.8105 113.576 44.927C113.382 44.948 113.192 44.9585 113.007 44.9585ZM109.321 39.4829C109.359 40.2585 109.581 42.3498 110.832 43.4948C111.511 44.1172 112.406 44.3746 113.506 44.2599C114.433 44.1636 115.165 43.7767 115.684 43.1105C116.74 41.7545 116.681 39.5958 116.616 38.7887L109.321 39.4829Z" fill="#32547C"/>
<path d="M122.915 43.9342C121.869 43.9342 120.988 43.6086 120.284 42.9643C118.513 41.3396 118.546 38.2757 118.549 38.1462C118.552 37.9755 118.683 37.8336 118.853 37.8179L126.792 37.0615C126.969 37.0449 127.13 37.1701 127.156 37.3478C127.176 37.4791 127.608 40.5867 126.123 42.4968C125.487 43.3136 124.599 43.7863 123.483 43.9027C123.289 43.9237 123.099 43.9342 122.915 43.9342ZM119.229 38.4578C119.267 39.2334 119.49 41.3256 120.741 42.4714C121.418 43.0921 122.317 43.3477 123.413 43.2357C124.34 43.1394 125.072 42.7524 125.591 42.0863C126.644 40.7329 126.589 38.5716 126.524 37.7627L119.229 38.4578Z" fill="#32547C"/>
<path d="M116.984 40.4353C116.815 40.4353 116.67 40.3102 116.65 40.1395C116.627 39.9548 116.759 39.7876 116.943 39.7657L119.028 39.5144C119.217 39.4873 119.379 39.6239 119.401 39.8077C119.424 39.9924 119.292 40.1596 119.108 40.1815L117.024 40.4327C117.01 40.4345 116.997 40.4353 116.984 40.4353Z" fill="#32547C"/>
<path d="M126.891 39.2194C126.714 39.2194 126.566 39.0811 126.556 38.9016C126.546 38.7169 126.688 38.5576 126.873 38.548L136.668 38.0043C136.851 37.986 137.011 38.1356 137.021 38.3212C137.032 38.5059 136.89 38.6653 136.705 38.6749L126.91 39.2185C126.904 39.2194 126.898 39.2194 126.891 39.2194Z" fill="#32547C"/>
<path d="M127.515 115.046C127.515 115.046 109.095 110.42 96.7281 106.125C94.453 98.0075 92.4597 75.9538 92.4597 75.9538C87.8324 74.9454 78.8877 73.3548 79.2825 82.6628C80.4625 90.9772 82.2903 106.587 83.6586 109.451C83.6638 109.461 83.6682 109.478 83.6734 109.488L83.8643 109.991C83.8643 110.001 83.8686 110.012 83.8739 110.018C85.1992 113.179 87.646 115.194 91.966 116.773C92.809 117.08 93.6896 117.361 94.6044 117.616C106.249 120.888 114.839 121.147 125.787 122.491L127.515 115.046Z" fill="#E8A395"/>
<path d="M93.4019 76.662L96.6653 105.895L119.909 112.213C119.909 112.213 122.888 117.053 117.98 123.202C117.98 123.202 91.8857 119.122 86.3594 114.772C80.8331 110.422 77.8173 80.8595 78.5693 69.2168L88.5566 65.9385C91.9654 68.8877 93.0106 72.173 93.4019 76.662Z" fill="#DD4545"/>
<path d="M39.0965 128.123C39.0965 128.123 32.9513 110.153 29.8226 97.441C35.3945 91.1146 52.8086 77.4375 52.8086 77.4375C51.1357 73.0072 47.6009 64.6376 40.0078 70.0344C33.6752 75.5493 21.5756 85.5795 19.9176 88.2862C19.9115 88.2967 19.9001 88.309 19.894 88.3195L19.5762 88.7528C19.5675 88.7581 19.5604 88.7686 19.5587 88.7756C17.6285 91.6083 17.2696 94.7571 18.2964 99.2408C18.4978 100.114 18.742 101.007 19.0247 101.913C22.6173 113.462 27.0757 120.809 31.9078 130.724L39.0965 128.123Z" fill="#E8A395"/>
<path d="M54.4121 80.062L30.7259 97.2266L37.3333 120.2C37.3333 120.2 34.8945 125.334 27.0659 124.564C27.0659 124.564 16.2846 100.453 16.9263 93.4493C17.5679 86.4453 40.7254 67.8241 50.9009 62.1183L54.4121 80.062Z" fill="#DD4545"/>
<path d="M51.6226 108.023C47.798 112.777 46.1776 114.875 43.5786 122.251C56.5449 127.058 73.3033 128.694 86.6854 125.195C85.3679 119.096 84.0794 115.283 84.0794 115.283C84.0794 115.283 84.173 112.207 86.7711 103.102C86.8867 102.939 86.9594 102.854 86.9594 102.854C87.7507 102.09 88.4178 101.282 88.9859 100.457L88.9938 100.458L88.9947 100.45C93.4565 93.9685 91.4851 85.8965 89.6004 80.8701C89.7772 72.6931 89.6293 67.8224 88.7399 66.1819C88.269 65.4046 86.6074 64.4355 84.4689 63.5295L81.6659 62.493C80.7406 62.1858 79.7969 61.9161 78.8585 61.6763C76.7121 61.0092 69.2118 59.9281 65.3434 60.0831L64.6308 60.0122C59.9886 59.5535 54.1735 59.8458 50.9013 62.1175C50.826 62.6873 47.0259 79.6314 51.6226 108.023Z" fill="#DD4545"/>
<path d="M89.7759 74.3895C89.6691 76.2865 89.5615 78.1835 89.4547 80.0804C91.7622 83.5828 92.6227 88.3555 92.2559 92.5337C91.8891 96.7119 89.5545 100.412 86.6718 103.459" stroke="#BC2626" stroke-miterlimit="10" stroke-linecap="round" stroke-linejoin="round"/>
<path d="M52.3018 52.8869C49.2712 49.5174 49.546 44.3291 52.9156 41.2986C56.2851 38.268 61.4734 38.5428 64.5039 41.9123C67.5345 45.2819 67.2597 50.4702 63.8901 53.5007C60.5206 56.5312 55.3323 56.2564 52.3018 52.8869Z" fill="white"/>
<path d="M65.8302 18.4978C70.4522 15.7832 75.9383 14.3327 81.1714 15.328C86.4044 16.3224 91.2611 20.0306 92.9164 25.1989C94.781 31.0184 92.3606 37.5672 88.3224 42.1079C84.2842 46.6485 78.8489 49.5846 73.5309 52.4296C71.7705 52.3289 69.9147 52.0987 68.1543 51.998C63.5594 48.4868 60.4632 43.2546 58.2913 37.8255C57.2303 35.173 56.2963 32.4217 56.102 29.5609C55.9085 26.7001 56.5231 23.6897 58.2852 21.4522C60.0491 19.2138 63.1375 17.6968 65.8302 18.4978Z" fill="#D9D9D9"/>
<path d="M66.9624 25.318C72.2349 16.853 88.8358 20.8045 89.7374 27.8286C91.5941 42.2778 89.2192 48.0282 85.0514 51.1761C80.228 54.8186 77.5651 52.1767 77.0434 61.2842C77.0854 67.7122 68.8471 65.0116 66.5948 60.0744C67.3546 49.2065 63.7252 42.4222 63.7252 42.4222C63.7252 42.4222 64.7888 28.8082 66.9624 25.318Z" fill="#E8A395"/>
<path d="M90.8198 31.2329C90.9975 29.9461 90.8907 27.3436 88.4851 23.6363C86.2214 20.1488 79.1246 18.9101 72.968 19.6848C66.8114 20.4587 64.0102 22.9544 63.5593 27.3129C63.1085 31.6715 62.3487 37.1033 62.3487 37.1033L64.6089 39.0432C68.4598 36.7838 68.6383 27.3576 68.6383 27.3576C70.4434 29.0217 72.2458 29.8761 74.6225 30.4906C75.2388 30.6499 75.8787 30.7707 76.5098 30.6867C77.141 30.6035 77.7678 30.2884 78.0952 29.743C79.8591 31.668 83.2547 32.0751 85.458 30.6753C87.0092 31.6663 89.0357 31.6785 90.8198 31.2329Z" fill="#D9D9D9"/>
<path d="M60.0286 42.5237C61.3671 44.3208 63.6089 44.917 65.0358 43.8543C66.4627 42.7915 66.5336 40.4726 65.1952 38.6755C63.8567 36.8783 61.6148 36.2821 60.1879 37.3449C58.7619 38.4076 58.6902 40.7256 60.0286 42.5237Z" fill="#E8A395"/>
<path d="M61.0782 38.2377C61.7076 37.9497 62.5226 38.0118 63.2553 38.4058C63.6203 38.6018 63.8803 38.8294 64.051 39.1017C64.2769 39.4623 64.3197 39.9018 64.163 40.2484C64.0239 40.5592 63.7578 40.7509 63.524 40.9199C63.3542 41.0424 63.194 41.158 63.0986 41.3015C62.9524 41.5221 62.9673 41.8443 63.1336 42.05C63.2999 42.2557 63.6107 42.3371 63.8575 42.24C64.0029 42.1831 64.1657 42.2548 64.2226 42.3984C64.2795 42.5428 64.2086 42.7065 64.0642 42.7634C63.9057 42.8256 63.7367 42.8501 63.5686 42.8405C63.2351 42.8212 62.9086 42.6663 62.6959 42.4028C62.3764 42.0071 62.3484 41.4136 62.6294 40.9899C62.7808 40.7614 63.0005 40.603 63.194 40.4629C63.3883 40.3229 63.5713 40.1907 63.6501 40.0156C63.7289 39.8414 63.6991 39.5998 63.573 39.3993C63.5223 39.3188 63.4513 39.2444 63.3726 39.1717C63.0933 39.1533 62.7397 39.219 62.5515 39.4011C62.3405 39.6077 62.2285 39.9167 62.2591 40.2099C62.2757 40.3649 62.1637 40.5032 62.0087 40.5189C61.993 40.5207 61.9781 40.5207 61.9623 40.5198C61.8275 40.5119 61.7137 40.4078 61.6997 40.2686C61.6498 39.802 61.8214 39.3267 62.1584 38.9975C62.2836 38.8758 62.4368 38.7971 62.5952 38.7349C62.1374 38.5826 61.6778 38.5808 61.311 38.748C60.8585 38.9546 60.4917 39.5359 60.6895 40.0366C60.7464 40.181 60.6746 40.3447 60.5311 40.4016C60.3866 40.4585 60.2238 40.3876 60.166 40.2432C59.8789 39.5149 60.2965 38.5957 61.0782 38.2377Z" fill="#C16B5B"/>
<path d="M76.1551 39.0571C76.1192 39.6813 76.5962 40.217 77.2212 40.2529C77.8463 40.2888 78.3812 39.8117 78.417 39.1867C78.4529 38.5625 77.9758 38.0268 77.3508 37.9909C76.7258 37.955 76.1901 38.433 76.1551 39.0571Z" fill="#1B1B28"/>
<path d="M77.304 38.8129C77.2908 39.0413 77.4659 39.2374 77.6944 39.2506C77.9229 39.2637 78.119 39.0886 78.1321 38.8601C78.1453 38.6317 77.9701 38.4356 77.7417 38.4224C77.5132 38.4093 77.3171 38.5844 77.304 38.8129Z" fill="white"/>
<path d="M84.9011 39.5587C84.8653 40.1837 85.3424 40.7186 85.9674 40.7545C86.5915 40.7904 87.1272 40.3133 87.1631 39.6883C87.199 39.0641 86.722 38.5284 86.097 38.4925C85.4719 38.4566 84.937 38.9346 84.9011 39.5587Z" fill="#1B1B28"/>
<path d="M86.0501 39.3145C86.037 39.5429 86.212 39.739 86.4405 39.7522C86.669 39.7653 86.8651 39.5902 86.8782 39.3617C86.8913 39.1333 86.7163 38.9372 86.4878 38.924C86.2593 38.9109 86.0632 39.0851 86.0501 39.3145Z" fill="white"/>
<path d="M84.398 35.0881C85.8748 34.1812 87.7175 34.3432 88.9894 35.5784C89.2275 35.8095 89.2459 36.248 89.0393 36.5194C88.8284 36.7969 88.4564 36.8232 88.2174 36.5921C87.6956 36.0852 87.0076 35.8305 86.3213 35.8418C85.9746 35.848 85.628 35.9206 85.3006 36.0598C85.0108 36.1841 84.7246 36.4108 84.4182 36.2113C84.3455 36.164 84.2842 36.0957 84.2378 36.0169C84.0785 35.7456 84.1179 35.2606 84.398 35.0881Z" fill="#D9D9D9"/>
<path d="M79.9904 34.8352C78.4182 33.7532 76.2998 33.6884 74.6987 34.7581C74.3993 34.9586 74.324 35.3919 74.5262 35.6861C74.7328 35.9872 75.1539 36.0598 75.4541 35.8585C76.1107 35.4199 76.9257 35.2597 77.7048 35.3569C78.0987 35.4059 78.4847 35.5197 78.8419 35.6939C79.157 35.848 79.4599 36.1062 79.8293 35.9469C79.9177 35.9084 79.9957 35.8489 80.0587 35.7762C80.274 35.5276 80.2889 35.0409 79.9904 34.8352Z" fill="#D9D9D9"/>
<path d="M81.7311 45.8274C82.3474 45.8624 82.9978 45.7644 83.6359 45.4737C83.9336 45.3389 84.0657 44.9879 83.9301 44.6903C83.7952 44.3926 83.4442 44.2613 83.1466 44.3961C81.6059 45.0947 79.9838 44.193 79.5443 43.512C79.3675 43.2389 79.0007 43.1583 78.7259 43.336C78.451 43.5137 78.3731 43.8797 78.5499 44.1545C79.0673 44.9546 80.3112 45.746 81.7311 45.8274Z" fill="#C16B5B"/>
<path d="M83.3204 42.5447C83.3843 42.5482 83.4455 42.5097 83.4683 42.4458C83.8036 41.4977 83.4945 41.1511 83.1759 41.0276C82.8529 40.9033 82.4537 40.9655 81.9898 41.2167C81.918 41.2552 81.8917 41.3454 81.9302 41.4172C81.9705 41.4881 82.0607 41.5143 82.1307 41.4767C82.5141 41.2692 82.8301 41.2106 83.0682 41.3034C83.3536 41.4137 83.3939 41.7647 83.1882 42.3468C83.161 42.4239 83.2013 42.5079 83.2783 42.5359C83.2923 42.5412 83.3072 42.5438 83.3204 42.5447Z" fill="#C16B5B"/>
</g>
</svg>
