<svg width="191" height="105" viewBox="0 0 191 105" fill="none" xmlns="http://www.w3.org/2000/svg">
<mask id="mask0_597_703" style="mask-type:alpha" maskUnits="userSpaceOnUse" x="0" y="0" width="191" height="105">
<rect width="191" height="105" fill="#D9D9D9"/>
</mask>
<g mask="url(#mask0_597_703)">
<path d="M117.659 58.339L103.705 62.8897C103.705 62.8897 99.8661 112.56 96.9904 151.412C129.624 160.947 149.799 151.327 149.799 151.327C147.599 105.579 144.087 63.2228 144.087 63.2228L129.209 58.3381H117.659V58.339Z" fill="#DCEAFF"/>
<path d="M124.974 69.6892L127.301 66.7504C127.418 64.5843 123.395 62.1731 123.395 62.1731C123.395 62.1731 119.372 64.5843 119.489 66.7504L121.816 69.6892L118.312 99.9427L123.395 106.984L128.478 99.9427L124.974 69.6892Z" fill="#DD4545"/>
<path d="M123.395 62.1721C123.395 62.1721 120.164 64.2841 118.762 68.9529C118.762 68.9529 114.346 63.856 117.658 58.3381C117.658 58.3381 119.192 62.1721 123.395 62.1721Z" fill="#ABC9FF"/>
<path d="M123.395 62.1721C123.395 62.1721 126.626 64.2841 128.027 68.9529C128.027 68.9529 132.522 63.856 129.21 58.3381C129.21 58.3381 127.598 62.1721 123.395 62.1721Z" fill="#ABC9FF"/>
<path d="M117.659 58.3391C117.659 58.3391 103.167 62.1296 100.543 64.4058C97.9177 66.682 94.7854 151.327 94.9532 163.376C94.9532 163.376 102.518 168.072 115.498 169.268L117.659 58.3391Z" fill="#42669B"/>
<path d="M117.659 58.3391L113.651 59.451L107.737 69.5693L113.922 75.35L109.119 86.5322L116.877 98.4667L117.659 58.3391Z" fill="#32547C"/>
<path d="M129.21 58.3391C129.21 58.3391 143.623 62.1296 146.248 64.4058C148.873 66.682 152.006 151.327 151.838 163.376C151.838 163.376 144.273 168.072 131.293 169.268L129.21 58.3391Z" fill="#42669B"/>
<path d="M129.21 58.3391L133.14 59.451L139.054 69.5693L132.869 75.35L137.672 86.5322L129.913 98.4667L129.21 58.3391Z" fill="#32547C"/>
<path d="M71.3633 102.08C88.3103 75.7479 97.9604 68.9539 97.9604 68.9539L97.4791 92.2073C92.0971 96.9933 87.0677 102.852 82.5384 109.001C88.669 132.863 95.1088 142.924 95.1088 142.924L87.6601 145.085C81.1769 131.651 75.5978 123.491 70.1199 111.575C70.1048 111.544 70.0862 111.503 70.0631 111.454C68.8686 108.82 69.087 105.758 70.6039 103.297C70.9272 102.771 71.2034 102.329 71.3633 102.08Z" fill="#EFAD9C"/>
<path d="M100.543 64.4067C100.543 64.4067 70.1642 95.1265 68.1855 106.08C66.5292 115.25 84.3643 142.216 84.3643 142.216C84.3643 142.216 90.621 142.704 93.2978 136.656L83.628 109.513L100.542 90.8361L100.543 64.4067Z" fill="#42669B"/>
<path d="M176.397 102.08C159.45 75.7479 149.8 68.9539 149.8 68.9539L150.282 92.2073C155.664 96.9933 160.693 102.852 165.222 109.001C159.093 132.863 152.652 142.924 152.652 142.924L160.101 145.085C166.584 131.651 172.163 123.491 177.641 111.575C177.656 111.544 177.675 111.503 177.698 111.454C178.892 108.82 178.674 105.758 177.157 103.297C176.833 102.771 176.556 102.329 176.397 102.08Z" fill="#EFAD9C"/>
<path d="M146.248 64.4067C146.248 64.4067 176.627 95.1265 178.605 106.08C180.262 115.25 162.427 142.216 162.427 142.216C162.427 142.216 156.17 142.704 153.493 136.656L163.163 109.513L146.249 90.8361V64.4067H146.248Z" fill="#42669B"/>
<path d="M103.533 18.8713C101.292 26.042 102.659 34.4897 107.204 40.3885C111.748 46.2874 119.199 49.4623 126.215 48.4908C131.098 47.814 135.676 41.9463 138.138 37.4045C140.601 32.8635 141.611 27.4203 140.964 22.1707C140.653 19.6396 139.933 17.088 138.432 15.0871C136.932 13.0862 134.303 11.4521 131.946 11.7593C131.184 10.1634 129.915 8.54082 128.432 7.61008C127.915 7.28503 127.333 7.00528 126.728 7.05235C126.124 7.09942 125.518 7.579 125.518 8.19713C123.932 6.90759 121.994 5.98395 120.031 5.47684C119.517 5.34451 118.964 5.24327 118.47 5.43421C117.977 5.62516 117.597 6.21308 117.803 6.71043C115.947 5.60029 113.63 5.30099 111.505 5.60651C110.771 5.71219 110.007 5.93066 109.508 6.4884C109.01 7.04613 108.916 8.02927 109.483 8.51951C108.545 8.68026 107.553 8.94403 106.673 9.30904C105.793 9.67494 104.974 10.2647 104.5 11.1048C104.028 11.945 103.959 13.0569 104.481 13.8704C103.592 14.2168 103.031 14.9876 102.793 15.9281C102.559 16.8687 102.92 18.1244 103.533 18.8713Z" fill="#5B3D31"/>
<path d="M130.695 18.579C125.481 9.0194 107.135 12.2823 105.709 19.8828C102.775 35.5171 105.003 41.9355 109.348 45.6291C114.377 49.9036 117.658 49.3592 117.658 58.3389C119.56 63.1187 126.856 63.7706 129.21 58.3389C129.065 46.4436 133.147 37.4283 133.147 37.4283C133.147 37.4283 132.844 22.5214 130.695 18.579Z" fill="#EFAD9C"/>
<path d="M119.489 33.3175C119.489 33.9667 118.962 34.4933 118.313 34.4933C117.663 34.4933 117.137 33.9667 117.137 33.3175C117.137 32.6682 117.664 32.1416 118.313 32.1416C118.962 32.1416 119.489 32.6682 119.489 33.3175Z" fill="#1B1B28"/>
<path d="M117.882 33.4267C117.644 33.4267 117.452 33.2338 117.452 32.9959C117.452 32.758 117.644 32.5652 117.882 32.5652C118.12 32.5652 118.313 32.758 118.313 32.9959C118.313 33.2338 118.12 33.4267 117.882 33.4267Z" fill="white"/>
<path d="M110.391 33.3175C110.391 33.9667 109.864 34.4933 109.215 34.4933C108.566 34.4933 108.039 33.9667 108.039 33.3175C108.039 32.6682 108.566 32.1416 109.215 32.1416C109.864 32.1416 110.391 32.6682 110.391 33.3175Z" fill="#1B1B28"/>
<path d="M108.784 33.4267C108.546 33.4267 108.353 33.2338 108.353 32.9959C108.353 32.758 108.546 32.5652 108.784 32.5652C109.022 32.5652 109.215 32.758 109.215 32.9959C109.215 33.2338 109.022 33.4267 108.784 33.4267Z" fill="white"/>
<path d="M111.179 28.7125C109.701 27.6841 107.782 27.7436 106.389 28.9479C106.128 29.1734 106.083 29.6264 106.281 29.9203C106.483 30.2205 106.867 30.2703 107.129 30.0438C107.7 29.55 108.428 29.3262 109.14 29.3786C109.499 29.4052 109.855 29.5011 110.185 29.6654C110.477 29.8111 110.761 30.0642 111.091 29.875C111.169 29.8297 111.237 29.7631 111.29 29.6841C111.471 29.4132 111.46 28.9079 111.179 28.7125Z" fill="#5B3D31"/>
<path d="M115.763 28.7125C117.457 27.6841 119.657 27.7436 121.254 28.9479C121.554 29.1734 121.605 29.6264 121.379 29.9203C121.147 30.2205 120.706 30.2703 120.406 30.0438C119.752 29.55 118.916 29.336 118.102 29.3901C117.691 29.4177 117.283 29.5127 116.903 29.6726C116.568 29.8138 116.238 30.0633 115.864 29.8759C115.775 29.8306 115.697 29.764 115.636 29.685C115.427 29.4132 115.442 28.9079 115.763 28.7125Z" fill="#5B3D31"/>
<path d="M113.305 40.0049C112.664 40.0049 111.995 39.8646 111.351 39.5253C111.05 39.3673 110.935 38.996 111.093 38.6958C111.251 38.3957 111.621 38.2802 111.922 38.4374C113.478 39.2536 115.214 38.4143 115.709 37.7349C115.909 37.4623 116.294 37.401 116.568 37.6008C116.842 37.8006 116.902 38.1852 116.702 38.4596C116.119 39.2589 114.782 40.0049 113.305 40.0049Z" fill="#C16B5B"/>
<path d="M111.852 36.5075C111.786 36.5075 111.725 36.464 111.705 36.3965C111.414 35.3938 111.755 35.0528 112.092 34.9435C112.434 34.8343 112.844 34.9222 113.311 35.21C113.383 35.2544 113.405 35.3494 113.36 35.4213C113.315 35.4933 113.219 35.5146 113.149 35.4711C112.765 35.2331 112.44 35.154 112.187 35.2357C111.884 35.3325 111.822 35.6949 112.001 36.3103C112.024 36.3912 111.978 36.4764 111.896 36.5004C111.881 36.5057 111.866 36.5075 111.852 36.5075Z" fill="#C16B5B"/>
<path d="M129.426 21.2631C128.864 25.3315 130.87 31.2534 133.422 34.4711L136.402 32.6052C136.402 32.6052 136.473 26.1299 136.716 20.962C136.957 15.7941 134.128 12.3864 127.076 10.397C120.025 8.40765 110.968 8.17674 108.264 12.2745C104.421 18.0987 103.944 22.5437 103.944 22.5437C103.611 22.6965 103.674 23.3128 103.842 23.637C104.011 23.9603 104.382 24.1406 104.746 24.1716C105.11 24.2018 105.471 24.1059 105.82 23.9958C107.244 23.5482 108.583 22.8723 109.914 22.1991C109.583 22.4132 109.628 23.0846 109.846 23.4141C110.064 23.7436 110.477 23.9025 110.872 23.9079C111.267 23.9132 111.651 23.788 112.022 23.653C113.305 23.1858 114.538 22.5881 115.728 21.9185C115.329 22.0473 115.258 22.6379 115.422 23.0233C115.587 23.4087 116.001 23.6432 116.416 23.6992C116.832 23.7551 117.252 23.6619 117.656 23.5508C119.287 23.1041 120.828 22.3723 122.311 21.5561C121.95 21.597 121.774 22.1237 121.85 22.478C121.925 22.8333 122.24 23.1006 122.587 23.2116C122.932 23.3226 123.306 23.3022 123.667 23.2587C125.625 23.0242 127.651 22.1272 129.426 21.2631Z" fill="#5B3D31"/>
<path d="M137.171 37.7722C135.599 39.647 133.117 40.1559 131.629 38.9072C130.14 37.6594 130.209 35.1274 131.781 33.2517C133.353 31.3769 135.835 30.868 137.323 32.1167C138.812 33.3653 138.743 35.8965 137.171 37.7722Z" fill="#EFAD9C"/>
<path d="M136.296 33.0341C135.628 32.6806 134.736 32.6966 133.913 33.0803C133.502 33.2703 133.205 33.503 133.001 33.789C132.732 34.1682 132.658 34.6451 132.807 35.0315C132.939 35.3787 133.216 35.6043 133.461 35.8041C133.638 35.948 133.806 36.0848 133.901 36.2473C134.046 36.4968 134.009 36.8468 133.815 37.0608C133.621 37.2748 133.277 37.3432 133.014 37.2224C132.859 37.1514 132.677 37.2189 132.605 37.3725C132.534 37.5262 132.601 37.7091 132.755 37.7811C132.924 37.8592 133.107 37.8965 133.291 37.8965C133.656 37.8965 134.021 37.7482 134.27 37.4747C134.643 37.0635 134.711 36.4178 134.431 35.9382C134.28 35.6798 134.051 35.4933 133.849 35.3281C133.646 35.1629 133.454 35.0075 133.38 34.8121C133.304 34.6167 133.353 34.3556 133.502 34.1451C133.563 34.0599 133.644 33.9835 133.735 33.9098C134.04 33.9071 134.422 34.0013 134.615 34.2117C134.833 34.4498 134.935 34.7943 134.882 35.1123C134.855 35.2792 134.969 35.4373 135.135 35.4649C135.152 35.4675 135.169 35.4693 135.186 35.4693C135.334 35.4693 135.464 35.3627 135.489 35.2118C135.573 34.7055 135.416 34.1771 135.069 33.797C134.939 33.6558 134.778 33.5608 134.609 33.4826C135.118 33.3458 135.619 33.3725 136.009 33.5785C136.489 33.8325 136.852 34.4879 136.605 35.0226C136.534 35.1771 136.602 35.3592 136.755 35.4311C136.91 35.5022 137.091 35.4356 137.164 35.281C137.523 34.5022 137.126 33.4737 136.296 33.0341Z" fill="#C16B5B"/>
<path d="M76.7728 38.1158C76.3589 34.3626 77.3634 30.565 76.9921 26.8065C76.358 20.3953 71.437 14.7282 65.2833 12.8197C59.1296 10.9111 50.6374 12.3587 47.2493 16.9201C41.2883 17.2238 38.5591 21.6084 37.6168 26.3802C36.909 29.9638 37.7465 33.6539 37.7758 37.3067C37.8468 46.1176 31.6176 54.6391 33.9676 63.1303C35.0262 66.9554 37.9499 70.0922 41.4321 71.9963C44.9144 73.9004 48.9171 74.6731 52.8808 74.8765C58.4963 75.1642 64.1669 74.3507 69.4752 72.4954C72.6848 71.3729 75.8909 69.769 77.8936 67.0211C80.8146 63.014 80.5348 57.521 79.4194 52.6888C78.3048 47.8566 77.3163 43.0448 76.7728 38.1158Z" fill="#5B3D31"/>
<path d="M91.0266 95.9115C87.1829 88.271 81.9022 71.5168 81.9022 71.5168C77.0984 71.4129 67.1107 74.0985 69.3132 83.2896C72.1054 91.3395 78.3941 98.717 80.3133 101.303L80.3169 101.301C80.5966 101.701 80.8853 102.101 81.1961 102.501C81.7556 103.219 82.3622 103.936 83.0096 104.647C91.2584 113.732 98.5036 118.582 107.191 125.635L112.689 120.165C112.689 120.165 99.3447 106.265 91.0266 95.9115Z" fill="#E8A395"/>
<path d="M74.3021 62.3062C74.3021 62.3062 79.7675 66.0611 82.7391 71.8764C85.7107 77.6909 90.8449 94.3883 90.8449 94.3883L106.652 113.052C106.652 113.052 106.511 119.185 99.1532 120.017C99.1532 120.017 84.296 108.68 75.8056 96.9345C67.3153 85.1892 68.1537 64.3897 68.1537 64.3897L74.3021 62.3062Z" fill="#42669B"/>
<path d="M37.7003 81.564C38.6231 87.8652 40.8096 100.661 44.4446 109.65C44.4446 109.65 41.3309 114.223 37.9712 121.572C51.657 124.661 66.6146 126.078 79.7551 122.084C77.6094 116.128 75.8003 112.468 75.8003 112.468C75.8003 112.468 75.4806 109.362 76.867 99.8565C76.9611 99.6762 77.0233 99.582 77.0233 99.582C77.7169 98.7081 78.279 97.8058 78.7382 96.8991H78.7462V96.8911C82.3608 89.7737 79.2915 81.921 76.7195 77.1217C75.7968 68.8756 74.9921 63.9981 73.8767 62.4678C73.2985 61.7502 71.4974 60.9989 69.2247 60.3755L66.2673 59.7112C65.2948 59.5264 64.3099 59.3825 63.3339 59.268C61.0861 58.8861 53.3977 58.8088 49.5291 59.4856L48.7804 59.6321C43.9482 60.7458 39.6524 61.2991 35.917 63.8542C36.0733 63.903 35.8557 68.4573 37.3237 80.8589C37.3237 80.8589 37.4623 81.1004 37.7003 81.564Z" fill="#7D98D4"/>
<path d="M49.9833 59.4109C49.9833 59.4109 61.2153 98.4843 60.8352 137.716C60.8352 137.716 39.667 138.424 31.627 131.571C31.627 131.571 39.8944 113.615 39.1848 104.159C38.4761 94.7036 32.5932 68.2982 34.516 64.6809C36.5773 60.8026 49.9833 59.4109 49.9833 59.4109Z" fill="#42669B"/>
<path d="M72.2883 136.836C73.6035 96.2728 63.3325 59.2678 63.3325 59.2678C63.3325 59.2678 70.5111 59.7607 74.3025 62.3061C74.3025 62.3061 75.9641 66.9367 77.2262 76.8649C77.2262 76.8649 86.6881 88.3801 77.2262 100.086C77.2262 100.086 78.1516 117.671 85.6401 130.208C82.2653 133.781 77.9207 136.125 72.2883 136.836Z" fill="#42669B"/>
<path d="M74.8687 66.7405C76.1546 69.935 77.0054 73.3036 77.3909 76.7246C79.835 79.6403 81.1876 83.453 81.3892 87.2523C81.5908 91.0517 80.5268 94.9078 78.406 98.066" stroke="#32547C" stroke-width="0.75" stroke-miterlimit="10" stroke-linecap="round" stroke-linejoin="round"/>
<path d="M18.6523 92.9833C23.1195 89.5819 31.9384 84.5285 37.4536 81.4645C40.4909 79.786 41.9918 76.2424 41.0771 72.8942C40.0558 69.1642 38.4749 65.4341 35.9172 63.8533C30.2865 67.0682 18.5368 75.3543 13.2259 79.1466C10.7481 80.9139 8.44785 82.9299 6.4052 85.2035C5.94338 85.7186 5.48157 86.2603 5.02864 86.8198C5.02064 86.8287 5.01354 86.8385 5.00554 86.8483C3.57391 88.62 3.34122 91.0997 4.41584 93.1086C4.55083 93.3617 4.69115 93.6139 4.83325 93.8626C6.77821 97.2729 9.30045 100.239 9.30045 100.239C9.91325 100.923 10.5616 101.589 11.2632 102.255C20.1265 110.746 27.6932 115.08 36.8497 121.509L41.9475 115.666C41.9475 115.666 27.6666 102.735 18.6523 92.9833Z" fill="#E8A395"/>
<path d="M36.5034 62.8738C36.5034 62.8738 8.25519 79.3811 2.66364 88.7214C-2.92791 98.0626 28.6525 116.49 28.6525 116.49C28.6525 116.49 33.609 115.791 35.4518 108.547L20.0111 93.106L40.9803 79.6982C40.9803 79.6982 43.2326 77.9157 41.9475 72.707C40.6624 67.4982 36.5034 62.8738 36.5034 62.8738Z" fill="#42669B"/>
<path d="M49.1571 23.2408C54.0053 14.3605 71.0491 17.3988 72.3715 24.461C75.0909 38.9888 73.0198 44.9507 68.9807 48.3814C64.3065 52.3513 61.4566 49.8291 61.4566 59.085C69.4966 86.9912 53.4236 64.1712 50.8552 59.3008C50.9937 48.2482 46.8711 40.7534 46.8711 40.7534C46.8711 40.7534 47.158 26.9025 49.1571 23.2408Z" fill="#E8A395"/>
<path d="M73.6644 27.8474C73.7701 26.5339 73.5108 23.9042 70.8589 20.2887C68.3642 16.8873 61.1039 16.0453 54.9128 17.1874C48.7218 18.3287 46.029 21.0196 45.8257 25.4602C45.6223 29.9017 45.1685 35.447 45.1685 35.447L47.5708 37.2801C51.34 34.7676 50.9741 25.2098 50.9741 25.2098C52.8986 26.7906 54.7743 27.5508 57.2175 28.0348C57.8507 28.1601 58.5061 28.2453 59.1402 28.1245C59.7743 28.0038 60.3907 27.6476 60.6918 27.0766C62.5906 28.9238 66.0524 29.1397 68.2043 27.5934C69.8295 28.5064 71.8829 28.4025 73.6644 27.8474Z" fill="#5B3D31"/>
<path d="M43.1331 41.0716C44.5931 42.814 46.8987 43.2874 48.2824 42.1284C49.666 40.9694 49.603 38.6168 48.1429 36.8735C46.6829 35.131 44.3773 34.6576 42.9936 35.8166C41.61 36.9756 41.673 39.3282 43.1331 41.0716Z" fill="#E8A395"/>
<path d="M43.9468 36.6702C44.5684 36.3425 45.3971 36.3576 46.1617 36.7137C46.5427 36.8905 46.8198 37.1063 47.0081 37.3727C47.2577 37.7253 47.3269 38.1676 47.1884 38.5273C47.0649 38.8496 46.8074 39.0592 46.58 39.2448C46.4157 39.379 46.2594 39.5051 46.1715 39.656C46.0365 39.8878 46.0702 40.2129 46.2514 40.4118C46.4317 40.6108 46.7514 40.6747 46.9957 40.5619C47.1395 40.4953 47.3083 40.5584 47.3749 40.7014C47.4406 40.8443 47.3784 41.014 47.2354 41.0806C47.0782 41.1534 46.9086 41.1872 46.7381 41.1872C46.3988 41.1872 46.0596 41.0495 45.8287 40.7946C45.4823 40.4127 45.4193 39.8124 45.6795 39.3674C45.8198 39.1267 46.0329 38.9535 46.2203 38.8008C46.4086 38.6472 46.5871 38.5024 46.6564 38.3212C46.7257 38.14 46.6813 37.8967 46.5427 37.7013C46.4868 37.6223 46.4104 37.5512 46.3269 37.4828C46.0427 37.4802 45.6883 37.5672 45.5089 37.7635C45.3073 37.9846 45.2114 38.3052 45.2603 38.6001C45.286 38.7555 45.1804 38.902 45.0249 38.9278C45.009 38.9305 44.9938 38.9313 44.9779 38.9313C44.8411 38.9313 44.7194 38.8319 44.6972 38.6924C44.6191 38.2226 44.7656 37.7315 45.088 37.378C45.2079 37.2475 45.358 37.1587 45.5152 37.0867C45.0427 36.9588 44.5764 36.9846 44.215 37.1755C43.7682 37.4109 43.4308 38.0201 43.6599 38.5166C43.7256 38.6596 43.6635 38.8292 43.5205 38.8958C43.3775 38.9615 43.2079 38.8994 43.1413 38.7564C42.8064 38.0326 43.1768 37.0779 43.9468 36.6702Z" fill="#C16B5B"/>
<path d="M59.2646 36.6238C59.2646 37.2588 59.7789 37.773 60.4139 37.773C61.0489 37.773 61.5631 37.2588 61.5631 36.6238C61.5631 35.9897 61.0489 35.4746 60.4139 35.4746C59.7798 35.4746 59.2646 35.9888 59.2646 36.6238Z" fill="#1B1B28"/>
<path d="M60.4141 36.3094C60.4141 36.5421 60.6023 36.7304 60.835 36.7304C61.0677 36.7304 61.256 36.5421 61.256 36.3094C61.256 36.0767 61.0677 35.8884 60.835 35.8884C60.6023 35.8884 60.4141 36.0767 60.4141 36.3094Z" fill="white"/>
<path d="M68.1528 36.6238C68.1528 37.2588 68.6671 37.773 69.3021 37.773C69.9362 37.773 70.4513 37.2588 70.4513 36.6238C70.4513 35.9897 69.9371 35.4746 69.3021 35.4746C68.6671 35.4746 68.1528 35.9888 68.1528 36.6238Z" fill="#1B1B28"/>
<path d="M69.3022 36.3094C69.3022 36.5421 69.4905 36.7304 69.7232 36.7304C69.9559 36.7304 70.1442 36.5421 70.1442 36.3094C70.1442 36.0767 69.9559 35.8884 69.7232 35.8884C69.4905 35.8884 69.3022 36.0767 69.3022 36.3094Z" fill="white"/>
<path d="M67.3836 32.1246C68.8268 31.1201 70.7025 31.1778 72.0622 32.3537C72.3171 32.5739 72.3615 33.0171 72.1679 33.304C71.9698 33.5971 71.5951 33.6459 71.3393 33.4248C70.7807 32.9416 70.0693 32.724 69.3748 32.7755C69.024 32.8013 68.6767 32.8954 68.3543 33.0562C68.0684 33.1983 67.7913 33.4452 67.4698 33.2613C67.3934 33.2178 67.3277 33.1521 67.2753 33.0748C67.0977 32.8093 67.1101 32.3155 67.3836 32.1246Z" fill="#5B3D31"/>
<path d="M62.904 32.1246C61.2495 31.1201 59.0993 31.1778 57.5398 32.3537C57.2476 32.5739 57.197 33.0171 57.419 33.304C57.6455 33.5971 58.0762 33.6459 58.3693 33.4248C59.0096 32.9425 59.8249 32.7329 60.6198 32.7862C61.0221 32.8128 61.42 32.9052 61.7912 33.0615C62.1189 33.1992 62.4413 33.4434 62.8063 33.2596C62.8943 33.216 62.9697 33.1503 63.0292 33.0731C63.2326 32.8093 63.2184 32.3155 62.904 32.1246Z" fill="#5B3D31"/>
<path d="M65.3066 43.1566C65.9336 43.1566 66.5864 43.0189 67.2152 42.6877C67.5092 42.5332 67.622 42.1708 67.4674 41.8777C67.3129 41.5847 66.9506 41.4719 66.6575 41.6255C65.137 42.423 63.4416 41.6033 62.9576 40.939C62.7622 40.6726 62.3865 40.6122 62.1183 40.8084C61.8501 41.0047 61.7924 41.3795 61.9878 41.6477C62.5579 42.4275 63.8635 43.1566 65.3066 43.1566Z" fill="#C16B5B"/>
<path d="M66.7252 39.7399C66.79 39.7399 66.8504 39.6973 66.869 39.6316C67.1532 38.652 66.8202 38.3189 66.4907 38.2124C66.1568 38.1058 65.7562 38.192 65.3006 38.4726C65.2305 38.5161 65.2083 38.6085 65.2518 38.6795C65.2962 38.7497 65.3895 38.7701 65.4587 38.7284C65.8344 38.4966 66.1514 38.4184 66.3983 38.4984C66.6941 38.5934 66.7554 38.9468 66.5804 39.5481C66.5573 39.6271 66.6035 39.7106 66.6825 39.7337C66.6976 39.7382 66.7119 39.7399 66.7252 39.7399Z" fill="#C16B5B"/>
</g>
</svg>
