<svg width="24" height="24" viewBox="0 0 24 24" fill="none" xmlns="http://www.w3.org/2000/svg">
<circle cx="12" cy="12" r="12" fill="#F2F2F2"/>
<path d="M8.75701 16V5.81818H12.8337C13.5828 5.81818 14.2075 5.92921 14.708 6.15128C15.2085 6.37334 15.5847 6.68158 15.8366 7.07599C16.0885 7.46709 16.2144 7.91785 16.2144 8.42827C16.2144 8.82599 16.1349 9.17566 15.9758 9.47727C15.8167 9.77557 15.5979 10.0208 15.3195 10.2131C15.0444 10.402 14.7296 10.5362 14.3749 10.6158V10.7152C14.7627 10.7318 15.1256 10.8411 15.4637 11.0433C15.8051 11.2455 16.0818 11.5289 16.2939 11.8935C16.5061 12.2547 16.6121 12.6856 16.6121 13.1861C16.6121 13.7263 16.4779 14.2086 16.2094 14.6328C15.9443 15.0537 15.5515 15.3868 15.0312 15.6321C14.5108 15.8774 13.8695 16 13.1072 16H8.75701ZM10.9097 14.2401H12.6647C13.2646 14.2401 13.7021 14.1257 13.9772 13.897C14.2523 13.665 14.3898 13.3568 14.3898 12.9723C14.3898 12.6906 14.3219 12.442 14.186 12.2266C14.0501 12.0111 13.8562 11.8421 13.6043 11.7195C13.3557 11.5968 13.0591 11.5355 12.7144 11.5355H10.9097V14.2401ZM10.9097 10.0788H12.5056C12.8006 10.0788 13.0624 10.0275 13.2911 9.92472C13.5231 9.81866 13.7054 9.66951 13.838 9.47727C13.9739 9.28504 14.0418 9.05469 14.0418 8.78622C14.0418 8.41832 13.9109 8.12169 13.6491 7.89631C13.3905 7.67093 13.0226 7.55824 12.5454 7.55824H10.9097V10.0788Z" fill="#236ADB"/>
</svg>
