<svg width="24" height="24" viewBox="0 0 24 24" fill="none" xmlns="http://www.w3.org/2000/svg">
<circle cx="12" cy="12" r="12" fill="#F2F2F2"/>
<path d="M7.75701 16V5.81818H11.8337C12.5828 5.81818 13.2075 5.92921 13.708 6.15128C14.2085 6.37334 14.5847 6.68158 14.8366 7.07599C15.0885 7.46709 15.2144 7.91785 15.2144 8.42827C15.2144 8.82599 15.1349 9.17566 14.9758 9.47727C14.8167 9.77557 14.5979 10.0208 14.3195 10.2131C14.0444 10.402 13.7296 10.5362 13.3749 10.6158V10.7152C13.7627 10.7318 14.1256 10.8411 14.4637 11.0433C14.8051 11.2455 15.0818 11.5289 15.2939 11.8935C15.5061 12.2547 15.6121 12.6856 15.6121 13.1861C15.6121 13.7263 15.4779 14.2086 15.2094 14.6328C14.9443 15.0537 14.5515 15.3868 14.0312 15.6321C13.5108 15.8774 12.8695 16 12.1072 16H7.75701ZM9.90971 14.2401H11.6647C12.2646 14.2401 12.7021 14.1257 12.9772 13.897C13.2523 13.665 13.3898 13.3568 13.3898 12.9723C13.3898 12.6906 13.3219 12.442 13.186 12.2266C13.0501 12.0111 12.8562 11.8421 12.6043 11.7195C12.3557 11.5968 12.0591 11.5355 11.7144 11.5355H9.90971V14.2401ZM9.90971 10.0788H11.5056C11.8006 10.0788 12.0624 10.0275 12.2911 9.92472C12.5231 9.81866 12.7054 9.66951 12.838 9.47727C12.9739 9.28504 13.0418 9.05469 13.0418 8.78622C13.0418 8.41832 12.9109 8.12169 12.6491 7.89631C12.3905 7.67093 12.0226 7.55824 11.5454 7.55824H9.90971V10.0788Z" fill="#797979"/>
</svg>
