<svg width="24" height="24" viewBox="0 0 24 24" fill="none" xmlns="http://www.w3.org/2000/svg">
<circle cx="12" cy="12" r="12" fill="#F2F2F2"/>
<path d="M7.79119 16V5.81818H11.8082C12.5772 5.81818 13.2334 5.95573 13.777 6.23082C14.3239 6.5026 14.7398 6.88873 15.0249 7.3892C15.3132 7.88636 15.4574 8.47135 15.4574 9.14418C15.4574 9.82031 15.3116 10.402 15.0199 10.8892C14.7282 11.3731 14.3056 11.7443 13.7521 12.0028C13.2019 12.2614 12.5357 12.3906 11.7536 12.3906H9.06392V10.6605H11.4055C11.8165 10.6605 12.1579 10.6042 12.4297 10.4915C12.7015 10.3788 12.9036 10.2098 13.0362 9.98438C13.1721 9.759 13.2401 9.47893 13.2401 9.14418C13.2401 8.80611 13.1721 8.52107 13.0362 8.28906C12.9036 8.05705 12.6998 7.88139 12.4247 7.76207C12.1529 7.63944 11.8099 7.57812 11.3956 7.57812H9.94389V16H7.79119ZM13.2898 11.3665L15.8203 16H13.4439L10.968 11.3665H13.2898Z" fill="#F4373D"/>
</svg>
