<svg width="24" height="24" viewBox="0 0 24 24" fill="none" xmlns="http://www.w3.org/2000/svg">
<circle cx="12" cy="12" r="12" fill="#F2F2F2"/>
<path d="M13.8112 9.10938C13.7416 8.86742 13.6438 8.65365 13.5178 8.46804C13.3919 8.27912 13.2378 8.12003 13.0555 7.99077C12.8765 7.85819 12.671 7.7571 12.439 7.6875C12.2103 7.6179 11.9568 7.5831 11.6784 7.5831C11.158 7.5831 10.7006 7.71236 10.3062 7.97088C9.9151 8.2294 9.61017 8.60559 9.39142 9.09943C9.17267 9.58996 9.0633 10.1899 9.0633 10.8991C9.0633 11.6084 9.17102 12.2116 9.38645 12.7088C9.60189 13.206 9.90681 13.5855 10.3012 13.8473C10.6956 14.1058 11.1613 14.2351 11.6982 14.2351C12.1855 14.2351 12.6014 14.1489 12.9461 13.9766C13.2941 13.8009 13.5593 13.554 13.7416 13.2358C13.9272 12.9176 14.02 12.5414 14.02 12.1072L14.4575 12.1719H11.8325V10.5511H16.0931V11.8338C16.0931 12.7287 15.9042 13.4976 15.5264 14.1406C15.1485 14.7803 14.6282 15.2741 13.9653 15.6222C13.3024 15.9669 12.5434 16.1392 11.6883 16.1392C10.7338 16.1392 9.89521 15.9287 9.17267 15.5078C8.45014 15.0836 7.88669 14.482 7.48233 13.7031C7.08129 12.9209 6.88077 11.9929 6.88077 10.919C6.88077 10.0937 7.00009 9.35795 7.23873 8.71165C7.48068 8.06203 7.81874 7.51184 8.25293 7.06108C8.68712 6.61032 9.19256 6.26728 9.76926 6.03196C10.346 5.79664 10.9707 5.67898 11.6436 5.67898C12.2203 5.67898 12.7572 5.76349 13.2544 5.93253C13.7515 6.09825 14.1923 6.33357 14.5768 6.63849C14.9646 6.94342 15.2811 7.30634 15.5264 7.72727C15.7716 8.14489 15.9291 8.60559 15.9987 9.10938H13.8112Z" fill="#41BD43"/>
</svg>
