<svg width="22" height="22" viewBox="0 0 22 22" fill="none" xmlns="http://www.w3.org/2000/svg">
<circle cx="11" cy="11" r="11" fill="#EB6C2E"/>
<path d="M10.9745 16.8892C10.2321 16.8892 9.57087 16.7616 8.99086 16.5064C8.41415 16.2479 7.95842 15.8932 7.62367 15.4425C7.29223 14.9884 7.12154 14.4647 7.11159 13.8714H9.27921C9.29247 14.12 9.37367 14.3388 9.52282 14.5277C9.67528 14.7133 9.87746 14.8575 10.1294 14.9602C10.3812 15.063 10.6646 15.1143 10.9795 15.1143C11.3076 15.1143 11.5976 15.0563 11.8495 14.9403C12.1014 14.8243 12.2986 14.6636 12.4411 14.4581C12.5837 14.2526 12.6549 14.0156 12.6549 13.7472C12.6549 13.4754 12.5787 13.2351 12.4262 13.0263C12.2771 12.8142 12.0616 12.6484 11.7799 12.5291C11.5015 12.4098 11.1701 12.3501 10.7856 12.3501H9.83603V10.7692H10.7856C11.1104 10.7692 11.3971 10.7128 11.6457 10.6001C11.8976 10.4875 12.0931 10.3317 12.2323 10.1328C12.3715 9.93063 12.4411 9.69531 12.4411 9.42685C12.4411 9.17164 12.3798 8.94792 12.2572 8.75568C12.1379 8.56013 11.9688 8.40767 11.7501 8.2983C11.5347 8.18892 11.2828 8.13423 10.9944 8.13423C10.7027 8.13423 10.4359 8.18726 10.194 8.29332C9.95203 8.39607 9.75814 8.54356 9.6123 8.7358C9.46647 8.92803 9.38858 9.15341 9.37864 9.41193H7.31543C7.32537 8.82528 7.49275 8.30824 7.81756 7.8608C8.14237 7.41335 8.57987 7.06368 9.13006 6.81179C9.68356 6.55658 10.3083 6.42898 11.0044 6.42898C11.707 6.42898 12.3218 6.55658 12.8488 6.81179C13.3758 7.067 13.7851 7.41169 14.0768 7.84588C14.3718 8.27675 14.5176 8.76065 14.5143 9.29758C14.5176 9.86766 14.3403 10.3433 13.9823 10.7244C13.6277 11.1056 13.1653 11.3475 12.5953 11.4503V11.5298C13.3443 11.6259 13.9144 11.8861 14.3055 12.3104C14.6999 12.7313 14.8954 13.2583 14.8921 13.8913C14.8954 14.4714 14.7281 14.9867 14.39 15.4375C14.0553 15.8883 13.5929 16.2429 13.0029 16.5014C12.413 16.7599 11.7368 16.8892 10.9745 16.8892Z" fill="white"/>
</svg>
