<svg width="22" height="22" viewBox="0 0 22 22" fill="none" xmlns="http://www.w3.org/2000/svg">
<circle cx="11" cy="11" r="11" fill="#31AA57"/>
<path d="M7.4161 16.75V15.1989L11.0404 11.843C11.3486 11.5447 11.6072 11.2763 11.816 11.0376C12.0281 10.799 12.1888 10.5653 12.2982 10.3366C12.4076 10.1046 12.4623 9.8544 12.4623 9.58594C12.4623 9.28764 12.3943 9.03078 12.2584 8.81534C12.1225 8.59659 11.9369 8.42921 11.7016 8.31321C11.4663 8.19389 11.1995 8.13423 10.9012 8.13423C10.5896 8.13423 10.3179 8.19721 10.0858 8.32315C9.85384 8.4491 9.67486 8.62973 9.54892 8.86506C9.42297 9.10038 9.36 9.38044 9.36 9.70526H7.31667C7.31667 9.03906 7.46748 8.4607 7.76909 7.97017C8.0707 7.47964 8.49328 7.10014 9.03684 6.83168C9.5804 6.56321 10.2068 6.42898 10.9161 6.42898C11.6453 6.42898 12.28 6.55824 12.8202 6.81676C13.3638 7.07197 13.7864 7.42661 14.088 7.88068C14.3896 8.33475 14.5404 8.85511 14.5404 9.44176C14.5404 9.82623 14.4642 10.2057 14.3117 10.5803C14.1626 10.9548 13.8957 11.3707 13.5113 11.8281C13.1268 12.2822 12.5849 12.8274 11.8856 13.4638L10.3991 14.9205V14.9901H14.6746V16.75H7.4161Z" fill="white"/>
</svg>
