<svg width="26" height="26" viewBox="0 0 26 26" fill="none" xmlns="http://www.w3.org/2000/svg">
<circle cx="12.7402" cy="12.7402" r="12.7402" fill="#DC9B00"/>
<path d="M15.0114 11.0449C14.9319 10.7684 14.8202 10.5241 14.6762 10.312C14.5323 10.0961 14.3561 9.91424 14.1478 9.76651C13.9433 9.615 13.7084 9.49947 13.4433 9.41992C13.1819 9.34038 12.8921 9.3006 12.5739 9.3006C11.9792 9.3006 11.4565 9.44833 11.0058 9.74378C10.5588 10.0392 10.2103 10.4692 9.96031 11.0336C9.71031 11.5942 9.58531 12.2798 9.58531 13.0904C9.58531 13.901 9.70841 14.5904 9.95463 15.1586C10.2008 15.7267 10.5493 16.1605 11.0001 16.4597C11.4508 16.7551 11.983 16.9029 12.5967 16.9029C13.1535 16.9029 13.6289 16.8044 14.0228 16.6074C14.4205 16.4067 14.7236 16.1245 14.9319 15.7608C15.144 15.3972 15.2501 14.9673 15.2501 14.4711L15.7501 14.5449H12.7501V12.6926H17.6194V14.1586C17.6194 15.1813 17.4035 16.0601 16.9717 16.7949C16.5399 17.526 15.9452 18.0904 15.1876 18.4881C14.43 18.882 13.5626 19.079 12.5853 19.079C11.4944 19.079 10.5361 18.8385 9.71031 18.3574C8.88455 17.8726 8.24061 17.1851 7.77849 16.2949C7.32016 15.401 7.09099 14.3404 7.09099 13.1131C7.09099 12.1699 7.22735 11.329 7.50008 10.5904C7.7766 9.84795 8.16296 9.21916 8.65917 8.70401C9.15538 8.18886 9.73303 7.79682 10.3921 7.52788C11.0512 7.25894 11.7652 7.12447 12.5342 7.12447C13.1933 7.12447 13.8069 7.22106 14.3751 7.41424C14.9433 7.60363 15.4471 7.87257 15.8864 8.22106C16.3296 8.56954 16.6914 8.98432 16.9717 9.46538C17.252 9.94265 17.4319 10.4692 17.5114 11.0449H15.0114Z" fill="white"/>
</svg>
