<svg width="26" height="26" viewBox="0 0 26 26" fill="none" xmlns="http://www.w3.org/2000/svg">
<circle cx="12.7402" cy="12.7402" r="12.7402" fill="#003D9D"/>
<path d="M8.95178 18.9199V7.28356H13.6109C14.4669 7.28356 15.181 7.41045 15.7529 7.66424C16.3249 7.91803 16.7548 8.2703 17.0427 8.72106C17.3306 9.16803 17.4745 9.68318 17.4745 10.2665C17.4745 10.7211 17.3836 11.1207 17.2018 11.4654C17.02 11.8063 16.77 12.0866 16.4518 12.3063C16.1374 12.5222 15.7775 12.6756 15.3722 12.7665V12.8801C15.8154 12.8991 16.2302 13.0241 16.6166 13.2551C17.0067 13.4862 17.323 13.8101 17.5654 14.2267C17.8078 14.6396 17.9291 15.132 17.9291 15.704C17.9291 16.3214 17.7756 16.8726 17.4688 17.3574C17.1658 17.8385 16.7169 18.2192 16.1222 18.4995C15.5275 18.7798 14.7946 18.9199 13.9234 18.9199H8.95178ZM11.412 16.9086H13.4177C14.1033 16.9086 14.6033 16.7779 14.9177 16.5165C15.2321 16.2514 15.3893 15.8991 15.3893 15.4597C15.3893 15.1377 15.3116 14.8536 15.1563 14.6074C15.001 14.3612 14.7794 14.168 14.4916 14.0279C14.2075 13.8877 13.8685 13.8176 13.4745 13.8176H11.412V16.9086ZM11.412 12.1529H13.2359C13.573 12.1529 13.8722 12.0942 14.1336 11.9767C14.3988 11.8555 14.6071 11.6851 14.7586 11.4654C14.9139 11.2457 14.9916 10.9824 14.9916 10.6756C14.9916 10.2551 14.8419 9.91613 14.5427 9.65856C14.2472 9.40098 13.8268 9.27219 13.2813 9.27219H11.412V12.1529Z" fill="white"/>
</svg>
