<svg width="13" height="13" viewBox="0 0 13 13" fill="none" xmlns="http://www.w3.org/2000/svg">
<g clip-path="url(#clip0_576_955)">
<path d="M6.4987 1.08301C9.49032 1.08301 11.9154 3.50805 11.9154 6.49967C11.9154 9.4913 9.49032 11.9163 6.4987 11.9163C3.50707 11.9163 1.08203 9.4913 1.08203 6.49967C1.08203 3.50805 3.50707 1.08301 6.4987 1.08301ZM6.4987 2.16634C5.34943 2.16634 4.24723 2.62289 3.43457 3.43554C2.62191 4.2482 2.16536 5.3504 2.16536 6.49967C2.16536 7.64895 2.62191 8.75115 3.43457 9.5638C4.24723 10.3765 5.34943 10.833 6.4987 10.833C7.64797 10.833 8.75017 10.3765 9.56283 9.5638C10.3755 8.75115 10.832 7.64895 10.832 6.49967C10.832 5.3504 10.3755 4.2482 9.56283 3.43554C8.75017 2.62289 7.64797 2.16634 6.4987 2.16634ZM6.4987 3.24967C6.63137 3.24969 6.75942 3.2984 6.85857 3.38656C6.95771 3.47472 7.02105 3.5962 7.03657 3.72797L7.04036 3.79134V6.27542L8.50666 7.74172C8.6038 7.83919 8.6602 7.96999 8.6644 8.10755C8.6686 8.2451 8.62029 8.3791 8.52927 8.48232C8.43825 8.58555 8.31136 8.65026 8.17436 8.66331C8.03736 8.67636 7.90053 8.63677 7.79166 8.55259L7.74074 8.50763L6.11574 6.88263C6.03155 6.79837 5.97749 6.68872 5.96191 6.57063L5.95703 6.49967V3.79134C5.95703 3.64768 6.0141 3.50991 6.11568 3.40832C6.21726 3.30674 6.35504 3.24967 6.4987 3.24967Z" fill="black"/>
</g>
<defs>
<clipPath id="clip0_576_955">
<rect width="13" height="13" fill="white"/>
</clipPath>
</defs>
</svg>
