<svg width="15" height="15" viewBox="0 0 15 15" fill="none" xmlns="http://www.w3.org/2000/svg">
<g clip-path="url(#clip0_382_305)">
<path fill-rule="evenodd" clip-rule="evenodd" d="M7.5 2.5C8.03438 2.5 8.5825 2.51375 9.11375 2.53625L9.74125 2.56625L10.3419 2.60188L10.9044 2.64L11.4181 2.68C11.9757 2.72243 12.5005 2.96027 12.9 3.35163C13.2994 3.74298 13.548 4.26275 13.6019 4.81938L13.6269 5.085L13.6737 5.65375C13.7175 6.24312 13.75 6.88562 13.75 7.5C13.75 8.11438 13.7175 8.75688 13.6737 9.34625L13.6269 9.915L13.6019 10.1806C13.548 10.7374 13.2993 11.2572 12.8997 11.6486C12.5001 12.0399 11.9752 12.2777 11.4175 12.32L10.905 12.3594L10.3425 12.3981L9.74125 12.4337L9.11375 12.4637C8.57614 12.487 8.03811 12.4991 7.5 12.5C6.96189 12.4991 6.42386 12.487 5.88625 12.4637L5.25875 12.4337L4.65812 12.3981L4.09562 12.3594L3.58187 12.32C3.02426 12.2776 2.4995 12.0397 2.10003 11.6484C1.70056 11.257 1.45199 10.7373 1.39812 10.1806L1.37313 9.915L1.32625 9.34625C1.27865 8.73195 1.25321 8.11613 1.25 7.5C1.25 6.88562 1.2825 6.24312 1.32625 5.65375L1.37313 5.085L1.39812 4.81938C1.45197 4.26285 1.70044 3.74316 2.09979 3.35182C2.49913 2.96047 3.02374 2.72257 3.58125 2.68L4.09438 2.64L4.65688 2.60188L5.25813 2.56625L5.88562 2.53625C6.42344 2.51295 6.96168 2.50087 7.5 2.5ZM6.25 5.98438V9.01562C6.25 9.30438 6.5625 9.48438 6.8125 9.34062L9.4375 7.825C9.49462 7.79212 9.54207 7.74477 9.57506 7.68771C9.60805 7.63065 9.62542 7.56591 9.62542 7.5C9.62542 7.43409 9.60805 7.36935 9.57506 7.31229C9.54207 7.25523 9.49462 7.20788 9.4375 7.175L6.8125 5.66C6.75548 5.62708 6.69079 5.60975 6.62494 5.60976C6.55909 5.60977 6.49441 5.62712 6.4374 5.66006C6.38038 5.693 6.33305 5.74038 6.30015 5.79742C6.26725 5.85446 6.24996 5.91915 6.25 5.985V5.98438Z" fill="black"/>
</g>
<defs>
<clipPath id="clip0_382_305">
<rect width="15" height="15" fill="white"/>
</clipPath>
</defs>
</svg>
