<svg width="20" height="20" viewBox="0 0 20 20" fill="none" xmlns="http://www.w3.org/2000/svg">
<path d="M4.16699 8.33341H15.8337M10.0003 1.66675V3.33341M10.0003 3.33341C11.1054 3.33341 12.1652 3.7724 12.9466 4.5538C13.728 5.3352 14.167 6.39501 14.167 7.50008V16.6667C14.167 17.1088 13.9914 17.5327 13.6788 17.8453C13.3663 18.1578 12.9424 18.3334 12.5003 18.3334H7.50033C7.0583 18.3334 6.63437 18.1578 6.32181 17.8453C6.00925 17.5327 5.83366 17.1088 5.83366 16.6667V7.50008C5.83366 6.39501 6.27265 5.3352 7.05405 4.5538C7.83545 3.7724 8.89526 3.33341 10.0003 3.33341Z" stroke="black" stroke-width="1.5" stroke-linecap="round" stroke-linejoin="round"/>
</svg>
