<svg width="22" height="18" viewBox="0 0 22 18" fill="none" xmlns="http://www.w3.org/2000/svg">
<path d="M16.925 8.6707V8.6707C16.925 4.43429 13.4908 1 9.25434 1H8.92083C4.54628 1 1 4.54628 1 8.92083V8.92083C1 13.2954 4.54628 16.8417 8.92083 16.8417H13.3398" stroke="black"/>
<path d="M13.2568 17.0084H16.4252" stroke="black"/>
<path d="M18.5093 10.0047C18.5093 10.7875 17.2027 11.4221 15.5911 11.4221C13.9794 11.4221 12.6729 10.7875 12.6729 10.0047C12.6729 9.22188 13.9794 8.58728 15.5911 8.58728C17.2027 8.58728 18.5093 9.22188 18.5093 10.0047ZM18.5093 10.0047V12.2559M21.3441 14.0074C21.3441 14.7902 20.0376 15.4248 18.4259 15.4248C16.8142 15.4248 15.5077 14.7902 15.5077 14.0074M21.3441 14.0074C21.3441 13.2245 20.0376 12.59 18.4259 12.59C18.1913 12.59 17.9631 12.6034 17.7445 12.6288M21.3441 14.0074L21.4275 15.8411C21.4275 16.6239 20.1209 17.2585 18.5093 17.2585C17.603 17.2585 16.7933 17.0579 16.2581 16.7431M15.5077 14.0074L15.5911 15.8411C15.5911 16.1838 15.8414 16.498 16.2581 16.7431M15.5077 14.0074C15.5077 13.6573 15.7689 13.3369 16.2018 13.0896M18.5093 11.6722C18.5093 12.0409 18.2195 12.3767 17.7445 12.6288M17.7445 12.6288C17.133 12.6998 16.5962 12.8644 16.2018 13.0896M15.5077 13.0896H16.2018M16.2581 16.7431C16.1191 16.7759 15.7411 16.8416 15.3409 16.8416" stroke="black"/>
<path d="M15.5911 13.0896C13.9794 13.0896 12.6729 12.455 12.6729 11.6722M15.5077 14.9239C13.896 14.9239 12.6729 14.2893 12.6729 13.5065M15.5077 16.8416C13.896 16.8416 12.6729 16.207 12.6729 15.4242V9.92126" stroke="black"/>
<path d="M16.0918 17.2585H17.2591" stroke="black"/>
<path d="M6.00293 12.9235V4.91822C6.00293 4.36593 6.45045 3.91822 7.00274 3.91822L10.005 3.91822C10.8388 3.91821 13.1734 4.91874 13.0066 7.08655C12.8732 8.82079 11.2557 9.838 10.005 9.838H9.00398C8.4517 9.838 8.00398 10.2857 8.00398 10.838V13.6733C8.00398 13.8115 7.89199 13.9235 7.75385 13.9235H7.00293C6.45065 13.9235 6.00293 13.4758 6.00293 12.9235Z" stroke="black"/>
</svg>
