<svg width="14" height="14" viewBox="0 0 14 14" fill="none" xmlns="http://www.w3.org/2000/svg">
<g clip-path="url(#clip0_382_309)">
<path d="M1.75 6.41667C1.75 4.21692 1.75 3.11675 2.43367 2.43367C3.11675 1.75 4.21692 1.75 6.41667 1.75H7.58333C9.78308 1.75 10.8832 1.75 11.5663 2.43367C12.25 3.11675 12.25 4.21692 12.25 6.41667V7.58333C12.25 9.78308 12.25 10.8832 11.5663 11.5663C10.8832 12.25 9.78308 12.25 7.58333 12.25H6.41667C4.21692 12.25 3.11675 12.25 2.43367 11.5663C1.75 10.8832 1.75 9.78308 1.75 7.58333V6.41667Z" stroke="black" stroke-width="2"/>
<path d="M9.625 5.25C10.1082 5.25 10.5 4.85825 10.5 4.375C10.5 3.89175 10.1082 3.5 9.625 3.5C9.14175 3.5 8.75 3.89175 8.75 4.375C8.75 4.85825 9.14175 5.25 9.625 5.25Z" fill="black"/>
<path d="M7 8.75C7.9665 8.75 8.75 7.9665 8.75 7C8.75 6.0335 7.9665 5.25 7 5.25C6.0335 5.25 5.25 6.0335 5.25 7C5.25 7.9665 6.0335 8.75 7 8.75Z" stroke="black" stroke-width="2"/>
</g>
<defs>
<clipPath id="clip0_382_309">
<rect width="14" height="14" fill="white"/>
</clipPath>
</defs>
</svg>
