<svg width="15" height="15" viewBox="0 0 15 15" fill="none" xmlns="http://www.w3.org/2000/svg">
<g clip-path="url(#clip0_382_314)">
<path d="M2.87134 3.115C2.9845 3.10185 3.0991 3.11988 3.20275 3.16713C3.30641 3.21439 3.39518 3.28908 3.45946 3.38313C4.38196 4.7325 5.48946 5.29375 6.71884 5.42125C6.77884 4.89563 6.92071 4.37625 7.18759 3.91875C7.57884 3.2475 8.21509 2.75375 9.12384 2.57125C10.3801 2.31875 11.3363 2.77375 11.8907 3.33063L13.0107 3.12125C13.1279 3.09929 13.249 3.11132 13.3595 3.15591C13.4701 3.2005 13.5657 3.27579 13.6348 3.37291C13.704 3.47002 13.744 3.5849 13.75 3.70399C13.756 3.82308 13.7279 3.9414 13.6688 4.045L12.5938 5.93375C12.692 8.65938 11.9345 10.5619 10.3195 11.8725C9.46321 12.5675 8.23696 12.9619 6.89134 13.0838C5.53509 13.2063 4.00196 13.0581 2.47821 12.6131C2.34802 12.5751 2.23371 12.4959 2.15254 12.3872C2.07137 12.2786 2.02774 12.1465 2.02823 12.0109C2.02873 11.8752 2.07332 11.7435 2.15528 11.6354C2.23724 11.5274 2.35212 11.4489 2.48259 11.4119C3.24884 11.1938 3.83259 11.0056 4.35946 10.6763C3.61009 10.2788 3.05821 9.75875 2.66759 9.16625C2.12509 8.3425 1.92384 7.42375 1.88384 6.59563C1.84384 5.7675 1.96321 5 2.08946 4.44688C2.16134 4.13125 2.24509 3.815 2.36071 3.5125C2.4015 3.40587 2.47071 3.31245 2.56084 3.24237C2.65097 3.1723 2.75794 3.12825 2.87134 3.115Z" fill="black"/>
</g>
<defs>
<clipPath id="clip0_382_314">
<rect width="15" height="15" fill="white"/>
</clipPath>
</defs>
</svg>
