<svg width="32" height="32" viewBox="0 0 32 32" fill="none" xmlns="http://www.w3.org/2000/svg">
<path d="M16.1346 24.7333L16.0013 24.8667L15.8546 24.7333C9.5213 18.9867 5.33464 15.1867 5.33464 11.3333C5.33464 8.66667 7.33464 6.66667 10.0013 6.66667C12.0546 6.66667 14.0546 8 14.7613 9.81333H17.2413C17.948 8 19.948 6.66667 22.0013 6.66667C24.668 6.66667 26.668 8.66667 26.668 11.3333C26.668 15.1867 22.4813 18.9867 16.1346 24.7333ZM22.0013 4C19.6813 4 17.4546 5.08 16.0013 6.77333C14.548 5.08 12.3213 4 10.0013 4C5.89464 4 2.66797 7.21333 2.66797 11.3333C2.66797 16.36 7.2013 20.48 14.068 26.7067L16.0013 28.4667L17.9346 26.7067C24.8013 20.48 29.3346 16.36 29.3346 11.3333C29.3346 7.21333 26.108 4 22.0013 4Z" fill="white"/>
</svg>
